<?xml version="1.0" encoding="utf-8"?>
<!-- Generator: Adobe Illustrator 19.0.0, SVG Export Plug-In . SVG Version: 6.00 Build 0)  -->
<svg version="1.1" id="Layer_1" xmlns="http://www.w3.org/2000/svg" xmlns:xlink="http://www.w3.org/1999/xlink" x="0px" y="0px"
	 viewBox="0 0 1024 339" style="enable-background:new 0 0 1024 339;" xml:space="preserve">
<style type="text/css">
	.st0{fill:#38A4DD;}
	.st1{fill:#E81F64;}
	.st2{fill:#8BC249;}
	.st3{fill:#543E98;}
	.st4{fill:#FEC111;}
</style>
<path id="XMLID_56_" class="st0" d="M74.9,334.1h-2.1v-4.6c-2.6,1.2-4.6,2.1-6.2,2.6S63,333,60.5,333c-4,0-7.9-0.9-11.6-2.8
	s-7-4.3-9.9-7.4c-2.8-3-5.2-6.4-7-10.2c-1.9-3.8-3.1-7.5-3.5-11.3c-0.2-0.2-0.3-2.1-0.5-5.6s-0.2-7.4-0.2-11.6c0-4.2,0-8.1,0-11.6
	s0.1-5.4,0.4-5.6v-17.6c0-13.6-0.8-27.2-2.3-41c-1.5-13.7-3.5-27.2-5.8-40.6c-0.5-1.4-1-3.4-1.6-6c-0.6-2.6-1.2-5.3-1.9-8.1
	s-1.2-5.6-1.6-8.3s-0.3-5,0.2-6.9c-2.6-14.8-4.8-28.9-6.7-42.4s-3.5-27.5-4.9-42c0-0.5-0.2-1.3-0.5-2.5s-0.5-2-0.5-2.5
	c-0.5,0-1-0.2-1.6-0.7S0,47.7,0,47.2l2.5-2.8v-2.5v-2.8L0,36c0-0.2,0.3-0.9,0.9-1.9C1.5,33,2,32.4,2.5,32.4
	c1.6-5.2,2.7-9.7,3.2-13.5c0.5-3.9,1.4-7,2.8-9.3s3.8-4.1,7.2-5.3s8.7-1.8,16-1.8C37.5,2.6,43,3.7,48,6.1c5,2.3,10.6,4.1,16.7,5.3
	c0.7,0,2.6,0.2,5.6,0.7c3,0.5,5,0.7,6,0.7c10.8,1.2,20.8,3.2,30.1,6.1s18.9,6,29,9.3l-2.8,1.4c0.7,1.4,1.7,2.4,3,3
	c1.3,0.6,2.7,0.9,4.2,0.9c1.5,0,3.1,0,4.7,0c1.6,0,3.2,0.2,4.6,0.7c8.4,2.6,17.1,6.7,26,12.3s17.1,12.2,24.5,19.7
	s13.4,15.8,18.1,24.8c4.7,9,7,18.2,7,27.6v9.8c-2.1,3.8-3.9,7.7-5.3,11.8c-1.4,4.1-3.6,7.9-6.7,11.4c-5.2,6.8-10.8,12.7-16.9,17.8
	c-6.1,5-12.5,9.5-19.3,13.4c-6.8,3.9-13.9,7.2-21.3,10c-7.4,2.8-15,5.5-22.7,8.1c-2.8,0.9-5.7,1.5-8.6,1.8c-2.9,0.2-5.9,0.4-9,0.5
	s-6,0.4-8.8,0.7s-5.6,1-8.4,1.9v4.9c0,8.2,0.3,16.3,0.8,24.3c0.6,8,0.8,15.9,0.8,23.9c0,0.7,0.1,3.5,0.2,8.4s0.2,10.3,0.4,16.2
	c0.1,5.9,0.2,11.3,0.4,16.3c0.1,5,0.2,7.9,0.2,8.6c0,0.2-0.2,0.9-0.5,1.9c-0.3,1.1-0.7,2.2-1,3.3s-0.6,2.3-0.9,3.5
	c-0.2,1.2-0.3,1.9-0.3,2.1c-0.5,2.1-1.4,3.9-2.8,5.5c-1.4,1.5-2.8,3-4.2,4.4c-1.4,1.4-2.8,2.9-4.2,4.4c-1.4,1.5-2.4,3.3-2.8,5.4
	c-1.6-0.5-2.8-1.2-3.5-2.1c-0.7-0.9-1.2-1.9-1.6-3c-0.4-1.1-0.8-2.2-1.2-3.3s-1.3-2.3-2.5-3.5V334.1z M72.9,308.4
	c-0.9,0-1.4,0.4-1.4,1.2s0.5,1.2,1.4,1.2c0.7,0,1.1-0.4,1.1-1.2S73.6,308.4,72.9,308.4z M74.6,16.2c-0.9,0-1.4,0.6-1.4,1.8
	s0.5,1.8,1.4,1.8S76,19.1,76,18S75.6,16.2,74.6,16.2z M76.4,17.7c-0.9,0-1.4,0.6-1.4,1.8s0.5,1.8,1.4,1.8c0.5,0,0.7-0.6,0.7-1.8
	S76.9,17.7,76.4,17.7z M77.3,69c0,0.9,0.2,3.5,0.7,7.6s1,9,1.6,14.8c0.6,5.7,1.4,11.8,2.3,18.3c0.9,6.4,1.9,12.4,3,17.9
	s2.1,10.1,3,13.7s1.9,5.4,2.8,5.4h2.1c0.7-0.5,2-0.8,4-1.1c2-0.2,3.5-0.6,4.4-1.1c0.9,0,2.7-0.4,5.1-1.2c2.5-0.8,5.1-1.6,8-2.5
	c2.8-0.8,5.5-1.7,8-2.6c2.5-0.9,4.2-1.6,5.1-2.1c2.1-1.6,5-3.6,8.5-6c3.5-2.3,6.9-4.9,10.1-7.7s6-5.8,8.3-9c2.4-3.2,3.5-6.3,3.5-9.3
	c0-1.2-0.3-2.5-0.9-4c-0.6-1.5-1.5-2.5-2.7-3c0.2,0,0.5-0.2,0.9-0.7s0.5-0.8,0.5-1.1c0-3.3-2.2-6.7-6.5-10.2
	c-4.4-3.5-9.3-6.8-14.9-9.8c-5.5-3-11-5.6-16.3-7.7c-5.3-2.1-8.9-3.4-10.8-3.9c-4-0.7-7.8-1.1-11.3-1.2c-3.5-0.1-7.4-0.2-11.6-0.2
	h-4.6l-2.5,1.4V69z M81,17.6c-0.5,0-0.7,0.6-0.7,1.8s0.2,1.8,0.7,1.8c0.7,0,1.1-0.6,1.1-1.8S81.7,17.6,81,17.6z M92.9,19.7
	c-1.2,0-1.8,0.5-1.8,1.4s0.6,1.4,1.8,1.4c0.7,0,1.1-0.5,1.1-1.4S93.6,19.7,92.9,19.7z M105.6,22.6c-0.5,0-0.7,0.6-0.7,1.8
	s0.2,1.8,0.7,1.8c0.9,0,1.4-0.6,1.4-1.8S106.5,22.6,105.6,22.6z M114,24.8c-0.7,0-1.1,0.6-1.1,1.8s0.4,1.8,1.1,1.8
	c1.2,0,1.8-0.6,1.8-1.8S115.2,24.8,114,24.8z M129.5,197.3c-1.2,0-1.8,0.6-1.8,1.8s0.6,1.8,1.8,1.8c0.7,0,1.1-0.6,1.1-1.8
	S130.2,197.3,129.5,197.3z M147.1,37.3h2.1l-2.1-1.4V37.3z M150.6,42.2c-0.7,0-1.1,0.6-1.1,1.8s0.4,1.8,1.1,1.8s1.1-0.6,1.1-1.8
	S151.3,42.2,150.6,42.2z M152,44.3c-0.7,0-1.1,0.5-1.1,1.4s0.4,1.4,1.1,1.4c1.2,0,1.8-0.5,1.8-1.4S153.2,44.3,152,44.3z M157.9,44.3
	h1.4v-2.1h-1.4V44.3z M162.5,45.8c-1.2,0-1.8,0.6-1.8,1.8s0.6,1.8,1.8,1.8c0.5,0,0.7-0.6,0.7-1.8S163,45.8,162.5,45.8z"/>
<path id="XMLID_51_" class="st1" d="M263.5,324.6c-0.5-0.9-0.9-1.9-1.2-2.8c-0.4-0.9-0.8-1.8-1.2-2.5l2.5-1.4
	c-1.2-0.5-2.4-1.4-3.7-2.8s-2-2.8-2.3-4.2c0.9-0.2,1.3-0.8,1.2-1.6c-0.1-0.8-0.2-1.6-0.2-2.5s0.2-1.4,0.7-1.8
	c0.5-0.4,1.9-0.4,4.2-0.2c-0.5-0.7-1.3-2.3-2.5-4.9c-1.2-2.6-2-4.5-2.5-5.6v-0.7c0-1.4,0.8-2.5,2.3-3.2s3.3-1.2,5.5-1.6
	c2.1-0.3,4.2-0.6,6.3-0.7c2.1-0.1,3.6-0.2,4.6-0.2c0-0.9-0.1-1.5-0.4-1.8s0.4-0.7,1.8-1.4c3.3,0.2,7,0.3,11.1,0.2
	c4.1-0.1,7.9-0.8,11.4-1.9c3.5-1.2,6.5-3,9-5.4c2.5-2.5,3.7-6,3.7-10.7c0-6.3-1.5-13-4.6-20c-3-7-6.9-14.1-11.6-21.3
	c-4.7-7.1-9.7-14.4-15.1-21.8c-5.4-7.4-10.4-14.8-15.1-22.1c-4.7-7.4-8.6-14.7-11.6-22s-4.6-14.3-4.6-21.1v-7.7
	c1.9-1.2,3.3-3.5,4.4-6.9c1.1-3.4,2.3-6,3.7-7.9c1.4-1.6,2.8-2.3,4.2-1.9s2.7-0.1,3.9-1.2c-0.5-0.9-1.3-1.6-2.5-1.9
	c-1.2-0.4-2.3-0.3-3.5,0.2c4-4.7,8.8-8.4,14.6-11.1c5.7-2.7,11.8-4.7,18.1-6c6.3-1.3,12.7-2.1,19.2-2.5c6.4-0.4,12.5-0.5,18.1-0.5
	c0.9,0,4.1,0.4,9.5,1.1c5.4,0.7,11.1,1.6,17,2.8c6,1.2,11.4,2.6,16.2,4.4c4.8,1.8,7.2,3.7,7.2,5.8c0,0.2-0.3,1.2-0.9,2.8
	c-0.6,1.6-0.8,2.7-0.5,3.2c0.5,2.6,1.7,4.5,3.7,5.6c2,1.2,3.6,2.7,4.7,4.6c0,0.2,0.1,0.9,0.2,1.9s0.3,2.3,0.5,3.7s0.4,2.8,0.5,4
	c0.1,1.3,0.2,2.2,0.2,2.6c0,3-1.5,5.3-4.4,6.9c-2.9,1.5-5.7,2.3-8.3,2.3h-2.5c-0.5,0-1.5-0.3-3.2-0.9s-2.6-1-2.8-1.2
	c0,1.9-0.3,2.9-0.9,3.2c-0.6,0.2-1.5,0.4-2.6,0.4c-4.2,0-8.3-0.8-12.1-2.5c-3.9-1.6-7.9-2.5-12.1-2.5H339c-1.2,0.2-3.5,0.8-7,1.6
	s-5.9,1.5-7,1.9c0,0.2-0.4,1.2-1.2,3c-0.8,1.8-1.2,2.9-1.2,3.3v1.1c0,2.8,0.6,5.7,1.9,8.8c1.3,3,2.8,6,4.6,8.8
	c1.8,2.8,3.6,5.5,5.5,8.1s3.4,4.8,4.6,6.7c2.6,4.2,6.4,10.2,11.6,17.9c5.2,7.7,10.4,15.9,15.6,24.6c5.3,8.7,9.8,17.1,13.7,25.3
	c3.9,8.2,5.8,14.9,5.8,20c0,9.1-0.7,17.1-2.1,23.7c-1.4,6.7-3.7,12.5-7,17.6c-3.3,5-7.7,9.3-13.2,12.8c-5.5,3.5-12.3,6.7-20.5,9.5
	l1.4,1.4c-3.7,1.2-7.8,2.1-12.3,2.6c-4.4,0.6-8.5,0.9-12.3,0.9c-0.9,0-3.9-0.5-9-1.4c-5-0.9-10.4-2-16.2-3.3
	c-5.7-1.3-11-2.7-15.6-4.2c-4.7-1.5-7-2.9-7-4v-1.4H263.5z M270.8,109.7c0-0.9-0.3-1.4-0.9-1.4s-0.6,0.5-0.2,1.4
	c0,0.5,0.2,0.7,0.5,0.7C270.7,110.4,270.8,110.2,270.8,109.7z M350,135.8c-0.9,0-1.4,0.6-1.4,1.8c0,1.2,0.5,1.8,1.4,1.8
	c0.9,0,1.4-0.6,1.4-1.8C351.4,136.4,350.9,135.8,350,135.8z M363.6,139.3c0-0.5-0.7-0.7-2.1-0.7c-1.4,0-1.9,0.2-1.4,0.7
	C361.5,139.8,362.7,139.8,363.6,139.3z"/>
<path id="XMLID_46_" class="st2" d="M430.5,324.6c-0.5-0.9-0.9-1.9-1.2-2.8c-0.4-0.9-0.8-1.8-1.2-2.5l2.5-1.4
	c-1.2-0.5-2.4-1.4-3.7-2.8c-1.3-1.4-2-2.8-2.3-4.2c0.9-0.2,1.3-0.8,1.2-1.6c-0.1-0.8-0.2-1.6-0.2-2.5s0.2-1.4,0.7-1.8
	s1.9-0.4,4.2-0.2c-0.5-0.7-1.3-2.3-2.5-4.9c-1.2-2.6-2-4.5-2.5-5.6v-0.7c0-1.4,0.8-2.5,2.3-3.2c1.5-0.7,3.3-1.2,5.5-1.6
	c2.1-0.3,4.2-0.6,6.3-0.7c2.1-0.1,3.6-0.2,4.6-0.2c0-0.9-0.1-1.5-0.4-1.8c-0.2-0.2,0.4-0.7,1.8-1.4c3.3,0.2,7,0.3,11.1,0.2
	c4.1-0.1,7.9-0.8,11.4-1.9s6.5-3,9-5.4c2.5-2.5,3.7-6,3.7-10.7c0-6.3-1.5-13-4.6-20c-3-7-6.9-14.1-11.6-21.3
	c-4.7-7.1-9.7-14.4-15.1-21.8c-5.4-7.4-10.4-14.8-15.1-22.1c-4.7-7.4-8.6-14.7-11.6-22c-3-7.3-4.6-14.3-4.6-21.1v-7.7
	c1.9-1.2,3.3-3.5,4.4-6.9c1.1-3.4,2.3-6,3.7-7.9c1.4-1.6,2.8-2.3,4.2-1.9c1.4,0.4,2.7-0.1,3.9-1.2c-0.5-0.9-1.3-1.6-2.5-1.9
	c-1.2-0.4-2.3-0.3-3.5,0.2c4-4.7,8.8-8.4,14.6-11.1c5.7-2.7,11.8-4.7,18.1-6c6.3-1.3,12.7-2.1,19.2-2.5c6.4-0.4,12.5-0.5,18.1-0.5
	c0.9,0,4.1,0.4,9.5,1.1c5.4,0.7,11.1,1.6,17,2.8c6,1.2,11.4,2.6,16.2,4.4c4.8,1.8,7.2,3.7,7.2,5.8c0,0.2-0.3,1.2-0.9,2.8
	c-0.6,1.6-0.8,2.7-0.5,3.2c0.5,2.6,1.7,4.5,3.7,5.6c2,1.2,3.6,2.7,4.7,4.6c0,0.2,0.1,0.9,0.2,1.9s0.3,2.3,0.5,3.7
	c0.2,1.4,0.4,2.8,0.5,4c0.1,1.3,0.2,2.2,0.2,2.6c0,3-1.5,5.3-4.4,6.9c-2.9,1.5-5.7,2.3-8.3,2.3h-2.5c-0.5,0-1.5-0.3-3.2-0.9
	s-2.6-1-2.8-1.2c0,1.9-0.3,2.9-0.9,3.2c-0.6,0.2-1.5,0.4-2.6,0.4c-4.2,0-8.3-0.8-12.1-2.5c-3.9-1.6-7.9-2.5-12.1-2.5H506
	c-1.2,0.2-3.5,0.8-7,1.6c-3.5,0.8-5.9,1.5-7,1.9c0,0.2-0.4,1.2-1.2,3c-0.8,1.8-1.2,2.9-1.2,3.3v1.1c0,2.8,0.6,5.7,1.9,8.8
	s2.8,6,4.6,8.8s3.6,5.5,5.5,8.1s3.4,4.8,4.6,6.7c2.6,4.2,6.4,10.2,11.6,17.9c5.2,7.7,10.4,15.9,15.6,24.6
	c5.3,8.7,9.8,17.1,13.7,25.3c3.9,8.2,5.8,14.9,5.8,20c0,9.1-0.7,17.1-2.1,23.7c-1.4,6.7-3.7,12.5-7,17.6c-3.3,5-7.7,9.3-13.2,12.8
	c-5.5,3.5-12.3,6.7-20.5,9.5l1.4,1.4c-3.7,1.2-7.8,2.1-12.3,2.6c-4.4,0.6-8.5,0.9-12.3,0.9c-0.9,0-3.9-0.5-9-1.4
	c-5-0.9-10.4-2-16.2-3.3c-5.7-1.3-11-2.7-15.6-4.2c-4.7-1.5-7-2.9-7-4v-1.4H430.5z M437.9,109.7c0-0.9-0.3-1.4-0.9-1.4
	c-0.6,0-0.6,0.5-0.2,1.4c0,0.5,0.2,0.7,0.5,0.7C437.7,110.4,437.9,110.2,437.9,109.7z M517,135.8c-0.9,0-1.4,0.6-1.4,1.8
	c0,1.2,0.5,1.8,1.4,1.8c0.9,0,1.4-0.6,1.4-1.8C518.4,136.4,517.9,135.8,517,135.8z M530.6,139.3c0-0.5-0.7-0.7-2.1-0.7
	s-1.9,0.2-1.4,0.7C528.5,139.8,529.7,139.8,530.6,139.3z"/>
<path id="XMLID_40_" class="st3" d="M706.1,333.7c-0.5,0.2-1.2,0.4-2.1,0.4c-1.2-0.2-2.2-1.1-3-2.6c-0.8-1.5-1.6-3.3-2.3-5.3
	c-0.7-2-1.3-4-1.8-6s-0.8-3.6-1.1-4.8l-4.9,5.3c-3-2.6-5.5-6.3-7.2-11.1s-3.2-10-4.2-15.5c-1.1-5.5-1.8-11-2.3-16.4
	c-0.5-5.4-0.8-9.9-1.1-13.4c-0.2-1.6-0.5-4.9-0.9-9.7c-0.4-4.8-0.7-9.9-1.1-15.1c-0.4-5.3-0.7-10.2-1.1-14.8
	c-0.4-4.6-0.6-7.7-0.9-9.3c-0.7-8.2-1.2-16.4-1.4-24.6c-0.2-8.2-0.7-16.4-1.4-24.6h-1.1c-3.3,0-6.4,0.5-9.5,1.4s-6,2.1-9,3.3
	c-2.9,1.3-5.9,2.4-8.8,3.3s-6,1.4-9.3,1.4c-1.9,0-3.3-0.2-4.4-0.7c-1.1-0.5-2.5-1.3-4.4-2.5l3.5-3.5c-6.6,0.7-12.1,0.4-16.5-0.9
	c-4.5-1.3-8.4-3.2-11.8-5.6c-3.4-2.5-6.4-5.6-9.1-9.3c-2.7-3.8-5.6-7.7-8.6-12c5.4-4.9,11.3-8.9,17.6-12c6.3-3,12.9-5.6,19.7-7.7
	c6.8-2.1,13.7-4,20.7-5.8c7-1.8,14.1-3.8,21.1-6.2c1.2-0.9,2-3.3,2.6-7.2c0.6-3.9,0.9-8.5,0.9-13.9c0-5.4-0.1-11.2-0.4-17.4
	c-0.2-6.2-0.5-12.1-0.7-17.8c-0.2-5.6-0.4-10.5-0.5-14.6c-0.1-4.1,0.1-6.7,0.5-7.9c1.6-8.7,5.4-14.9,11.3-18.8
	c5.9-3.9,12.4-6.1,19.5-6.7s14.2,0.3,21.3,2.6c7,2.3,12.8,5.3,17.2,8.8c0.5,1.4,0.9,4,1.4,7.9s1,8.3,1.6,13.4
	c0.6,5,1.3,10.3,2.1,15.8s1.6,10.7,2.5,15.5c0.8,4.8,1.8,8.8,2.8,12.1c1.1,3.3,2.3,5.2,3.7,5.6c1.2,0,3.2-0.1,6-0.3
	c2.8-0.2,5.8-0.4,9-0.5c3.2-0.1,6.2-0.3,9-0.5c2.8-0.2,4.8-0.3,6-0.3h1.4c3.3,0,6.8,0.1,10.5,0.2s7.3,0.6,10.5,1.6
	c0.9,0.5,2.1,0.8,3.5,1.1c1.4,0.2,2.7,0.6,3.9,1.1c1.4,0.5,2.9,0.8,4.6,1.1v2.1h2.8l16.9,8.5v1.4h-3.9c0,1.9,0.6,2.9,1.8,3.2
	c1.2,0.2,2.7,0.4,4.6,0.4c0,1.2,0.5,2.2,1.6,3.2c1.1,0.9,2.3,1.9,3.7,2.8c1.4,0.9,2.8,1.8,4,2.6c1.3,0.8,2.3,1.7,3,2.6h-2.5
	c-1.9,0-3.7-0.1-5.5-0.4c-1.8-0.2-3.3-0.7-4.7-1.4c-0.7,0-1.4-0.6-2.1-1.8c-0.5-0.5-0.9-1.1-1.4-1.8c-0.7,0-1.9,0.5-3.7,1.4
	s-2.9,1.6-3.3,2.1l-1.4-1.8l-9.8,1.8l14.8,5.3c-0.5,0.9-1.2,1.5-2.3,1.8c-1.1,0.2-2,0.4-3,0.5c-0.9,0.1-1.8,0.4-2.6,0.9
	s-1.3,1.5-1.6,3.2c-1.2,0-3.2,0.2-6.2,0.7s-4.7,0.9-5.4,1.4c-0.5,0-0.9,0.2-1.4,0.7c-0.5,0.5-0.7,0.9-0.7,1.4h-17.9l-1.8,3.9H767
	V134c-4,1.2-8.1,2.4-12.3,3.7c-4.2,1.3-8.3,3.2-12.3,5.8c0.5,3.3,0.2,6.4-0.7,9.5c-0.9,3-1.4,6.2-1.4,9.5c0,14.1-0.1,27.6-0.2,40.6
	s1.1,26.5,3.7,40.6v65.8c-0.7,1.2-1.1,2.7-1.2,4.6s-0.2,3.6-0.2,5.3s-0.2,3-0.5,4.2c-0.4,1.2-1.2,1.8-2.6,1.8c0,2.1,0.3,3.5,0.9,4.2
	s0.9,2.2,0.9,4.6c-0.9,0-2.1-0.2-3.5-0.7c-1.4-0.5-2.8-1.2-4-2.1c-1.3-0.9-2.2-2-2.8-3.2c-0.6-1.2-0.4-2.3,0.5-3.5
	c-4,0-6.8,1.6-8.4,4.9c-0.7-1.4-1.4-2-1.9-1.8c-0.6,0.2-1.6,0.4-3,0.4c0,0.5,0.4,1.3,1.1,2.5c0.7,1.2,0.8,2,0.4,2.5
	c-0.2,0.5-1.2,1.5-3,3c-1.8,1.5-3,2.5-3.7,3c-0.9-0.5-1.8-1.6-2.5-3.3c-0.7-1.8-1.5-2.6-2.5-2.6L706.1,333.7z M724.1,321.1
	c-0.5-0.2-0.7,0.3-0.7,1.6s0.2,1.9,0.7,1.9c0.5-0.2,0.7-0.8,0.7-1.6S724.5,321.5,724.1,321.1z M759.9,131.5c-0.5,0-0.7,0.6-0.7,1.8
	c0,1.2,0.2,1.8,0.7,1.8c1.2,0,1.8-0.6,1.8-1.8C761.7,132.1,761.1,131.5,759.9,131.5z M821.1,102.4c-0.7,0-1.1,0.6-1.1,1.8
	c0,1.2,0.4,1.8,1.1,1.8c1.2,0,1.8-0.6,1.8-1.8C822.9,102.9,822.3,102.4,821.1,102.4z M823.2,105.9c-1.2,0-1.8,0.6-1.8,1.8
	c0,1.2,0.6,1.8,1.8,1.8c0.7,0,1.1-0.6,1.1-1.8C824.3,106.5,823.9,105.9,823.2,105.9z"/>
<path id="XMLID_37_" class="st4" d="M823.2,227.9c-0.5-2.1-1.1-5.3-1.8-9.7c-0.7-4.3-1.5-9.3-2.3-14.8c-0.8-5.5-1.7-11.3-2.6-17.4
	c-0.9-6.1-1.9-11.9-2.8-17.4c-0.9-5.5-1.8-10.4-2.5-14.8c-0.7-4.3-1.2-7.6-1.4-9.7c0-0.7-0.1-1.9-0.2-3.5c-0.1-1.6-0.3-3.5-0.5-5.4
	c-0.2-2-0.4-3.9-0.5-5.8s-0.2-3.3-0.2-4.2c0-6.8-0.6-14-1.9-21.6c-1.3-7.6-2-14.8-2.3-21.6c0-1.4,0.2-3.5,0.5-6.3
	c0.3-2.8,0.5-5.7,0.7-8.6c0.1-2.9,0.2-5.7,0.2-8.3s-0.4-4.3-1.1-5.3l2.1-19.7c-0.2-0.5-0.9-1.4-1.9-2.8c-1.1-1.4-1.7-2.2-1.9-2.5
	v-1.1l0.4-0.7c0-0.2,0.2-0.5,0.5-0.9s0.5-0.6,0.5-0.9c3.3-1.9,7.4-4.3,12.5-7.2c5-2.9,10.3-5.8,15.8-8.6c5.5-2.8,11-5.1,16.4-6.9
	c5.4-1.8,10.1-2.5,14.1-2.3h0.7c0.7,0,1.7,0.2,3,0.7c1.3,0.5,2.7,0.9,4.2,1.4s3,0.9,4.4,1.2s2.5,0.6,3.2,0.9c0,0.5,0.1,0.8,0.4,1.1
	c0.5,0.5,0.8,0.7,1.1,0.7c5.9,4.2,10.2,9.7,13,16.4c2.8,6.7,4.1,13.8,3.9,21.3c0,1.9-0.3,4-0.9,6.5c-0.6,2.5-0.1,4.3,1.6,5.4
	c-1.9,12.9-3.5,25.4-4.7,37.4s-1.7,24.4-1.2,37.1c0.4,12,0.9,24,1.3,36.2s0.1,24.1-1.1,35.9c-0.5,3.3-1.6,6.2-3.5,8.6
	c-1.9,2.5-4,4.8-6.3,7c-2.3,2.2-4.6,4.6-6.9,7.2c-2.2,2.6-3.8,5.5-4.7,8.8h-0.4h-1.1l-0.7-1.4c-0.2-0.2-0.4-0.6-0.4-1.1h-0.4
	c-0.2,0-0.5-0.1-0.7-0.4c-0.9,0-1.5,0.4-1.8,1.2c-0.2,0.8-0.5,1.7-0.7,2.6c-0.2,0.9-0.6,1.8-1.2,2.5c-0.6,0.7-1.6,0.8-3,0.4
	c-0.2-0.2-0.7-0.9-1.4-2.1c-0.7-1.2-1.3-1.8-1.8-1.8c-0.9-0.2-2.7,0.2-5.3,1.2c-2.6,1.1-4.1,2-4.6,3c-0.5-0.2-1.1-0.8-1.8-1.6
	c-0.7-0.8-1.2-1.5-1.4-1.9l-0.7-0.4c-1.4,0-2.6,0.9-3.5,2.8s-2.6,2.7-4.9,2.5c-4-0.5-6.6-1.5-7.9-3
	C825.6,235,824.3,232.1,823.2,227.9z M829.6,315.8c0-5.6,1.5-11.2,4.6-16.6c3-5.4,7-10.3,11.8-14.6c4.8-4.3,10.2-7.8,16.2-10.4
	c6-2.6,11.8-3.9,17.4-3.9c2.8,0,5.7,0.6,8.8,1.8c3,1.2,5.9,2.8,8.4,4.9c2.6,2.1,4.7,4.6,6.3,7.4c1.6,2.8,2.5,5.8,2.5,8.8v0.7
	c-2.6,12.7-8.3,23.3-17.1,31.9c-8.8,8.6-20.2,12.9-34.3,12.9c-6.1,0-11.7-2-16.9-6C832.1,328.7,829.6,323.1,829.6,315.8z"/>
<path id="XMLID_34_" class="st4" d="M941.6,227.9c-0.5-2.1-1.1-5.3-1.8-9.7c-0.7-4.3-1.5-9.3-2.3-14.8c-0.8-5.5-1.7-11.3-2.6-17.4
	c-0.9-6.1-1.9-11.9-2.8-17.4c-0.9-5.5-1.8-10.4-2.5-14.8c-0.7-4.3-1.2-7.6-1.4-9.7c0-0.7-0.1-1.9-0.2-3.5s-0.3-3.5-0.5-5.4
	c-0.2-2-0.4-3.9-0.5-5.8c-0.1-1.9-0.2-3.3-0.2-4.2c0-6.8-0.6-14-1.9-21.6c-1.3-7.6-2-14.8-2.3-21.6c0-1.4,0.2-3.5,0.5-6.3
	c0.3-2.8,0.5-5.7,0.7-8.6c0.1-2.9,0.2-5.7,0.2-8.3s-0.4-4.3-1.1-5.3l2.1-19.7c-0.2-0.5-0.9-1.4-1.9-2.8c-1.1-1.4-1.7-2.2-1.9-2.5
	v-1.1l0.4-0.7c0-0.2,0.2-0.5,0.5-0.9s0.5-0.6,0.5-0.9c3.3-1.9,7.4-4.3,12.5-7.2c5-2.9,10.3-5.8,15.8-8.6s11-5.1,16.4-6.9
	c5.4-1.8,10.1-2.5,14.1-2.3h0.7c0.7,0,1.7,0.2,3,0.7c1.3,0.5,2.7,0.9,4.2,1.4c1.5,0.5,3,0.9,4.4,1.2c1.4,0.4,2.5,0.6,3.2,0.9
	c0,0.5,0.1,0.8,0.4,1.1c0.5,0.5,0.8,0.7,1.1,0.7c5.9,4.2,10.2,9.7,13,16.4c2.8,6.7,4.1,13.8,3.9,21.3c0,1.9-0.3,4-0.9,6.5
	c-0.6,2.5-0.1,4.3,1.6,5.4c-1.9,12.9-3.5,25.4-4.7,37.4c-1.3,12.1-1.7,24.4-1.2,37.1c0.4,12,0.9,24,1.3,36.2
	c0.5,12.2,0.1,24.1-1.1,35.9c-0.5,3.3-1.6,6.2-3.5,8.6c-1.9,2.5-4,4.8-6.3,7c-2.3,2.2-4.6,4.6-6.9,7.2c-2.2,2.6-3.8,5.5-4.7,8.8
	h-0.4h-1.1l-0.7-1.4c-0.2-0.2-0.4-0.6-0.4-1.1h-0.4c-0.2,0-0.5-0.1-0.7-0.4c-0.9,0-1.5,0.4-1.8,1.2c-0.2,0.8-0.5,1.7-0.7,2.6
	c-0.2,0.9-0.6,1.8-1.2,2.5c-0.6,0.7-1.6,0.8-3,0.4c-0.2-0.2-0.7-0.9-1.4-2.1c-0.7-1.2-1.3-1.8-1.8-1.8c-0.9-0.2-2.7,0.2-5.3,1.2
	s-4.1,2-4.6,3c-0.5-0.2-1.1-0.8-1.8-1.6s-1.2-1.5-1.4-1.9l-0.7-0.4c-1.4,0-2.6,0.9-3.5,2.8c-0.9,1.9-2.6,2.7-4.9,2.5
	c-4-0.5-6.6-1.5-7.9-3C944,235,942.8,232.1,941.6,227.9z M948.1,315.8c0-5.6,1.5-11.2,4.6-16.6c3-5.4,7-10.3,11.8-14.6
	c4.8-4.3,10.2-7.8,16.2-10.4s11.8-3.9,17.4-3.9c2.8,0,5.7,0.6,8.8,1.8c3,1.2,5.9,2.8,8.4,4.9c2.6,2.1,4.7,4.6,6.3,7.4
	c1.6,2.8,2.5,5.8,2.5,8.8v0.7c-2.6,12.7-8.3,23.3-17.1,31.9c-8.8,8.6-20.2,12.9-34.3,12.9c-6.1,0-11.7-2-16.9-6
	C950.6,328.7,948.1,323.1,948.1,315.8z"/>
</svg>
