<?xml version="1.0" encoding="utf-8"?>
<!-- Generator: Adobe Illustrator 19.0.0, SVG Export Plug-In . SVG Version: 6.00 Build 0)  -->
<svg version="1.1" id="Layer_1" xmlns="http://www.w3.org/2000/svg" xmlns:xlink="http://www.w3.org/1999/xlink" x="0px" y="0px"
	 viewBox="0 0 24 31" style="enable-background:new 0 0 24 31;" xml:space="preserve">
<style type="text/css">
	.st0{fill:#38A4DD;}
	.st1{fill:#FEEA39;}
	.st2{fill:#FEC111;}
	.st3{fill:#E81F64;}
	.st4{fill:none;stroke:#F1592B;stroke-linecap:round;stroke-miterlimit:10;}
	.st5{fill:#E53A35;}
	.st6{fill:#F1592B;}
	.st7{fill:#757576;}
	.st8{fill:#9D9D9D;}
	.st9{fill:none;stroke:#F8981D;stroke-linecap:round;stroke-miterlimit:10;}
	.st10{fill:none;stroke:#EF4438;stroke-linecap:round;stroke-miterlimit:10;}
</style>
<g id="XMLID_47_">
	<path id="XMLID_24_" class="st0" d="M-14.2,1.7c-6.6,0-12,5.4-12,12c0,5.6,3.8,10.2,8.9,11.6l1.4,2.5l1.6,2.8l1.6-2.8l1.4-2.5
		c5.1-1.3,8.9-6,8.9-11.6C-2.3,7.1-7.6,1.7-14.2,1.7z"/>
	<path id="XMLID_23_" class="st1" d="M-20.3,16.6l1,0.8c0.6-0.7,1.6-0.8,2.2-0.2c0.7,0.6,0.8,1.6,0.2,2.2l1,0.8l0,0l2.9-12.6
		L-20.3,16.6z"/>
	<path id="XMLID_1_" class="st2" d="M-9.2,10.3c-0.6,0.7-1.6,0.8-2.2,0.2s-0.8-1.6-0.2-2.2l-1-0.8l-0.2,0.3l-2.9,12.6l7.6-9.2
		L-9.2,10.3z"/>
</g>
<g id="XMLID_2_">
	<path id="XMLID_6_" class="st3" d="M12,1C5.4,1,0,6.4,0,13c0,5.6,3.8,10.2,8.9,11.6l1.4,2.5l1.6,2.8l1.6-2.8l1.4-2.5
		c5.1-1.3,8.9-6,8.9-11.6C23.9,6.4,18.6,1,12,1z"/>
	<g id="XMLID_3_">
		<path id="XMLID_5_" class="st1" d="M12.4,15.3h-0.8c-0.4,0-0.7-0.3-0.7-0.7V7c0-0.4,0.3-0.7,0.7-0.7h0.8c0.4,0,0.7,0.3,0.7,0.7
			v7.6C13.1,14.9,12.8,15.3,12.4,15.3z"/>
		<circle id="XMLID_4_" class="st1" cx="12" cy="17.9" r="1.2"/>
	</g>
</g>
<g id="XMLID_7_">
	<path id="XMLID_22_" class="st1" d="M41.5,1.3c-6.6,0-12,5.4-12,12c0,5.6,3.8,10.2,8.9,11.6l1.4,2.5l1.6,2.8l1.6-2.8l1.4-2.5
		c5.1-1.3,8.9-6,8.9-11.6C53.4,6.6,48.1,1.3,41.5,1.3z"/>
	<g id="XMLID_8_">
		<line id="XMLID_21_" class="st4" x1="38.9" y1="10.5" x2="37.3" y2="8.5"/>
		<g id="XMLID_18_">
			<path id="XMLID_20_" class="st5" d="M41.6,11.1c-2.4,0-4.3,1.9-4.3,4.3h4.3V11.1z"/>
			<path id="XMLID_19_" class="st6" d="M45.8,15.3c0-2.4-1.9-4.3-4.3-4.3v4.3H45.8z"/>
		</g>
		<g id="XMLID_15_">
			<rect id="XMLID_17_" x="37" y="15.3" class="st7" width="4.6" height="1.6"/>
			<rect id="XMLID_16_" x="41.6" y="15.3" class="st8" width="4.6" height="1.6"/>
		</g>
		<line id="XMLID_14_" class="st9" x1="44.3" y1="10.5" x2="45.8" y2="8.5"/>
		<g id="XMLID_11_">
			<line id="XMLID_13_" class="st9" x1="46.4" y1="12.8" x2="48.5" y2="11.6"/>
			<line id="XMLID_12_" class="st4" x1="36.6" y1="12.8" x2="34.4" y2="11.6"/>
		</g>
		<line id="XMLID_10_" class="st10" x1="41.6" y1="9.9" x2="41.6" y2="7.2"/>
	</g>
</g>
</svg>
