<?xml version="1.0" encoding="utf-8"?>
<!-- Generator: Adobe Illustrator 19.0.0, SVG Export Plug-In . SVG Version: 6.00 Build 0)  -->
<svg version="1.1" id="Layer_1" xmlns="http://www.w3.org/2000/svg" xmlns:xlink="http://www.w3.org/1999/xlink" x="0px" y="0px"
	 viewBox="0 0 24 31" style="enable-background:new 0 0 24 31;" xml:space="preserve">
<style type="text/css">
	.st0{fill:#38A4DD;}
	.st1{fill:#FEEA39;}
	.st2{fill:#FEC111;}
	.st3{fill:#E81F64;}
	.st4{fill:none;stroke:#F1592B;stroke-linecap:round;stroke-miterlimit:10;}
	.st5{fill:#E53A35;}
	.st6{fill:#F1592B;}
	.st7{fill:#757576;}
	.st8{fill:#9D9D9D;}
	.st9{fill:none;stroke:#F8981D;stroke-linecap:round;stroke-miterlimit:10;}
	.st10{fill:none;stroke:#EF4438;stroke-linecap:round;stroke-miterlimit:10;}
</style>
<g id="XMLID_47_">
	<path id="XMLID_24_" class="st0" d="M-14.2,1.7c-6.6,0-12,5.4-12,12c0,5.6,3.8,10.2,8.9,11.6l1.4,2.5l1.6,2.8l1.6-2.8l1.4-2.5
		c5.1-1.3,8.9-6,8.9-11.6C-2.3,7.1-7.6,1.7-14.2,1.7z"/>
	<path id="XMLID_23_" class="st1" d="M-20.3,16.6l1,0.8c0.6-0.7,1.6-0.8,2.2-0.2c0.7,0.6,0.8,1.6,0.2,2.2l1,0.8l0,0l2.9-12.6
		L-20.3,16.6z"/>
	<path id="XMLID_1_" class="st2" d="M-9.2,10.3c-0.6,0.7-1.6,0.8-2.2,0.2s-0.8-1.6-0.2-2.2l-1-0.8l-0.2,0.3l-2.9,12.6l7.6-9.2
		L-9.2,10.3z"/>
</g>
<g id="XMLID_2_">
	<path id="XMLID_6_" class="st3" d="M22.3,37.8c-6.6,0-12,5.4-12,12c0,5.6,3.8,10.2,8.9,11.6l1.4,2.5l1.6,2.8l1.6-2.8l1.4-2.5
		c5.1-1.3,8.9-6,8.9-11.6C34.3,43.2,28.9,37.8,22.3,37.8z"/>
	<g id="XMLID_3_">
		<path id="XMLID_5_" class="st1" d="M22.7,52.1h-0.8c-0.4,0-0.7-0.3-0.7-0.7v-7.6c0-0.4,0.3-0.7,0.7-0.7h0.8c0.4,0,0.7,0.3,0.7,0.7
			v7.6C23.4,51.7,23.1,52.1,22.7,52.1z"/>
		<circle id="XMLID_4_" class="st1" cx="22.3" cy="54.7" r="1.2"/>
	</g>
</g>
<g id="XMLID_7_">
	<path id="XMLID_22_" class="st1" d="M12,1.1c-6.6,0-12,5.4-12,12C0,18.6,3.8,23.3,9,24.6l1.4,2.5l1.6,2.8l1.6-2.8l1.4-2.5
		c5.1-1.3,8.9-6,8.9-11.6C24,6.4,18.6,1.1,12,1.1z"/>
	<g id="XMLID_8_">
		<line id="XMLID_21_" class="st4" x1="9.4" y1="10.3" x2="7.8" y2="8.4"/>
		<g id="XMLID_18_">
			<path id="XMLID_20_" class="st5" d="M12.1,10.9c-2.4,0-4.3,1.9-4.3,4.3h4.3V10.9z"/>
			<path id="XMLID_19_" class="st6" d="M16.4,15.2c0-2.4-1.9-4.3-4.3-4.3v4.3H16.4z"/>
		</g>
		<g id="XMLID_15_">
			<rect id="XMLID_17_" x="7.5" y="15.2" class="st7" width="4.6" height="1.6"/>
			<rect id="XMLID_16_" x="12.1" y="15.2" class="st8" width="4.6" height="1.6"/>
		</g>
		<line id="XMLID_14_" class="st9" x1="14.8" y1="10.3" x2="16.4" y2="8.4"/>
		<g id="XMLID_11_">
			<line id="XMLID_13_" class="st9" x1="16.9" y1="12.6" x2="19.1" y2="11.4"/>
			<line id="XMLID_12_" class="st4" x1="7.1" y1="12.6" x2="4.9" y2="11.4"/>
		</g>
		<line id="XMLID_10_" class="st10" x1="12.1" y1="9.7" x2="12.1" y2="7.1"/>
	</g>
</g>
</svg>
