<?xml version="1.0" encoding="utf-8"?>
<!-- Generator: Adobe Illustrator 19.0.0, SVG Export Plug-In . SVG Version: 6.00 Build 0)  -->
<svg version="1.1" id="Layer_1" xmlns="http://www.w3.org/2000/svg" xmlns:xlink="http://www.w3.org/1999/xlink" x="0px" y="0px"
	 viewBox="0 0 300 339" style="enable-background:new 0 0 300 339;" xml:space="preserve">
<style type="text/css">
	.st0{fill:none;}
	.st1{fill:#E81F64;}
	.st2{fill:#8BC249;}
	.st3{fill:#38A4DD;}
	.st4{fill:#FEC111;}
	.st5{fill:#543E98;}
</style>
<g id="XMLID_403_">
	<path id="XMLID_432_" class="st0" d="M182.9,55.8c0.1,0,0.2,0,0.3-0.1c0-0.7,0.2-1,0.6-1.2c0-0.1,0-0.2,0-0.4c0-1.1-0.3-1.6-1-1.6
		s-1,0.5-1,1.6C182,55.2,182.3,55.8,182.9,55.8z"/>
	<path id="XMLID_431_" class="st0" d="M183.3,55.7C183.3,55.7,183.3,55.8,183.3,55.7c0,0.9,0.3,1.3,1,1.3c1.1,0,1.6-0.4,1.6-1.3
		s-0.5-1.3-1.6-1.3c-0.1,0-0.2,0-0.3,0C183.8,55.2,183.6,55.6,183.3,55.7z"/>
	<path id="XMLID_430_" class="st0" d="M112.3,296.9c0.6,0,1-0.4,1-1.1c0-0.7-0.3-1.1-1-1.1c-0.9,0-1.3,0.4-1.3,1.1
		C111,296.6,111.4,296.9,112.3,296.9z"/>
	<path id="XMLID_429_" class="st0" d="M123.1,130.2c1,5,1.9,9.2,2.7,12.5c0.9,3.3,1.7,5,2.6,5h1.9c0.6-0.4,1.9-0.7,3.7-1
		c1.8-0.2,3.1-0.5,4-1c0.9,0,2.4-0.4,4.7-1.1c2.3-0.7,4.7-1.5,7.2-2.2c2.6-0.7,5-1.5,7.2-2.4c2.3-0.9,3.8-1.5,4.7-1.9
		c1.9-1.5,4.5-3.3,7.7-5.4c3.2-2.1,6.3-4.5,9.2-7c2.9-2.6,5.4-5.3,7.6-8.2h-65.4C121.6,121.9,122.4,126.2,123.1,130.2z"/>
	<rect id="XMLID_428_" x="189.6" y="52.6" class="st0" width="1.3" height="1.9"/>
	<path id="XMLID_427_" class="st0" d="M193.8,59c0.4,0,0.6-0.5,0.6-1.6c0-1.1-0.2-1.6-0.6-1.6c-1.1,0-1.6,0.5-1.6,1.6
		C192.2,58.4,192.7,59,193.8,59z"/>
	<path id="XMLID_426_" class="st0" d="M189.6,108.9c0-1.1-0.3-2.3-0.8-3.7c-0.5-1.4-1.4-2.3-2.5-2.7c0.2,0,0.5-0.2,0.8-0.6
		c0.3-0.4,0.5-0.7,0.5-1c0-3-2-6.1-6-9.3c-4-3.2-8.5-6.2-13.5-9c-5-2.8-10-5.1-14.8-7c-4.8-1.9-8.1-3.1-9.8-3.5
		c-3.6-0.6-7.1-1-10.3-1.1c-3.2-0.1-6.7-0.2-10.6-0.2h-4.2l-2.2,1.3v4.8c0,0.9,0.2,3.1,0.6,6.9c0.4,3.7,0.9,8.2,1.4,13.4
		s1.2,10.8,2.1,16.6c0.2,1.2,0.3,2.4,0.5,3.5h65.4l0,0C188.5,114.5,189.6,111.7,189.6,108.9z"/>
	<path id="XMLID_425_" class="st0" d="M163.7,196.8c0.6,0,1-0.5,1-1.6s-0.3-1.6-1-1.6c-1.1,0-1.6,0.5-1.6,1.6
		S162.7,196.8,163.7,196.8z"/>
	<path id="XMLID_424_" class="st1" d="M71.5,241v13.4h65c-0.1-2.7-0.1-4.2-0.1-4.7c0-7.2-0.3-14.5-0.8-21.7
		c-0.4-6.3-0.7-12.7-0.7-19.2H70C71,219.5,71.5,230.2,71.5,241z"/>
	<path id="XMLID_421_" class="st2" d="M142.7,199.5c2.6-0.3,5.2-0.5,8-0.6s5.5-0.3,8.2-0.5c2.7-0.2,5.3-0.7,7.8-1.6
		c7-2.3,13.9-4.8,20.6-7.4c6.7-2.6,13.2-5.6,19.4-9.1c6.2-3.5,12.1-7.6,17.6-12.2c2-1.6,3.9-3.4,5.7-5.2H63.1c0.4,1.6,0.7,2.8,1,3.8
		c2.1,12.2,3.9,24.5,5.3,36.9c0.2,1.7,0.4,3.3,0.5,4.9h65c0-1,0-1.9,0-2.9v-4.5C137.5,200.5,140.1,199.9,142.7,199.5z M163.7,193.6
		c0.6,0,1,0.5,1,1.6s-0.3,1.6-1,1.6c-1.1,0-1.6-0.5-1.6-1.6S162.7,193.6,163.7,193.6z"/>
	<path id="XMLID_418_" class="st3" d="M71.5,257c-0.2,0.2-0.3,1.9-0.3,5.1s0,6.7,0,10.6c0,3.8,0.1,7.4,0.2,10.6
		c0.1,3.2,0.2,4.9,0.4,5.1c0.4,3.4,1.5,6.8,3.2,10.2c1.7,3.4,3.8,6.5,6.4,9.3c2.6,2.8,5.6,5,9,6.7c3.4,1.7,6.9,2.6,10.6,2.6
		c2.3,0,4.2-0.3,5.6-0.8c1.4-0.5,3.3-1.3,5.6-2.4v4.2h1.9v-6.4c1.1,1.1,1.8,2.1,2.2,3.2c0.4,1.1,0.8,2.1,1.1,3
		c0.3,1,0.8,1.9,1.4,2.7c0.6,0.9,1.7,1.5,3.2,1.9c0.4-1.9,1.3-3.6,2.6-5c1.3-1.4,2.6-2.7,3.9-4c1.3-1.3,2.6-2.6,3.9-4
		c1.3-1.4,2.1-3,2.6-5c0-0.2,0.1-0.9,0.3-1.9c0.2-1.1,0.5-2.1,0.8-3.2s0.6-2.1,0.9-3c0.3-1,0.5-1.5,0.5-1.8c0-0.6-0.1-3.2-0.2-7.8
		c-0.1-4.6-0.2-9.5-0.3-14.9c-0.1-5.3-0.2-10.2-0.3-14.7c0-1.1-0.1-2.1-0.1-3h-65V257z M112.3,294.7c0.6,0,1,0.4,1,1.1
		c0,0.7-0.3,1.1-1,1.1c-0.9,0-1.3-0.4-1.3-1.1C111,295.1,111.4,294.7,112.3,294.7z"/>
	<path id="XMLID_417_" class="st3" d="M183.3,55.7c0.4-0.1,0.6-0.5,0.6-1.2C183.5,54.7,183.3,55.1,183.3,55.7z"/>
	<path id="XMLID_406_" class="st4" d="M120.4,113.8c-0.9-5.9-1.5-11.4-2.1-16.6s-1-9.7-1.4-13.4c-0.4-3.7-0.6-6-0.6-6.9v-4.8
		l2.2-1.3h4.2c3.8,0,7.4,0.1,10.6,0.2c3.2,0.1,6.6,0.5,10.3,1.1c1.7,0.4,5,1.6,9.8,3.5c4.8,1.9,9.8,4.3,14.8,7c5,2.8,9.5,5.8,13.5,9
		c4,3.2,6,6.3,6,9.3c0,0.2-0.2,0.5-0.5,1c-0.3,0.4-0.6,0.6-0.8,0.6c1.1,0.4,1.9,1.3,2.5,2.7c0.5,1.4,0.8,2.6,0.8,3.7
		c0,2.8-1.1,5.6-3.2,8.5l0,0h63.9c-0.6-6.9-2.7-13.8-6.2-20.5c-4.3-8.2-9.8-15.7-16.5-22.5c-6.7-6.8-14.1-12.8-22.2-17.9
		c-8.1-5.1-16-8.8-23.7-11.2c-1.3-0.4-2.7-0.6-4.2-0.6c-1.5,0-2.9,0-4.3,0c-1.4,0-2.7-0.3-3.8-0.8c-1.2-0.5-2.1-1.4-2.7-2.7l2.6-1.3
		c-9.2-3-18-5.8-26.4-8.5c-8.4-2.7-17.5-4.5-27.4-5.6c-0.9,0-2.7-0.2-5.4-0.6c-2.8-0.4-4.5-0.6-5.1-0.6c-5.5-1.1-10.6-2.7-15.2-4.8
		c-4.6-2.1-9.6-3.2-14.9-3.2c-6.6,0-11.5,0.5-14.6,1.6c-3.1,1.1-5.3,2.7-6.6,4.8c-1.3,2.1-2.1,5-2.6,8.5c-0.4,3.5-1.4,7.6-2.9,12.3
		c-0.4,0-0.9,0.5-1.4,1.4c-0.5,1-0.8,1.5-0.8,1.8l2.2,2.9v2.6v2.2L46,57.1c0,0.4,0.3,0.9,0.8,1.3c0.5,0.4,1,0.6,1.4,0.6
		c0,0.4,0.2,1.2,0.5,2.2c0.3,1.1,0.5,1.8,0.5,2.2c1.3,13.2,2.8,26,4.5,38.2c0.7,5.1,1.5,10.3,2.3,15.6h65
		C120.8,116.2,120.6,115,120.4,113.8z M193.8,55.8c0.4,0,0.6,0.5,0.6,1.6c0,1.1-0.2,1.6-0.6,1.6c-1.1,0-1.6-0.5-1.6-1.6
		C192.2,56.3,192.7,55.8,193.8,55.8z M189.6,52.6h1.3v1.9h-1.3V52.6z M182.9,52.6c0.6,0,1,0.5,1,1.6c0,0.1,0,0.3,0,0.4
		c0.1,0,0.2,0,0.3,0c1.1,0,1.6,0.4,1.6,1.3s-0.5,1.3-1.6,1.3c-0.6,0-1-0.4-1-1.3c0,0,0,0,0-0.1c-0.1,0-0.2,0.1-0.3,0.1
		c-0.6,0-1-0.5-1-1.6C182,53.1,182.3,52.6,182.9,52.6z M179.7,46.8l1.9,1.3h-1.9V46.8z M149.7,36.7c1.1,0,1.6,0.5,1.6,1.6
		c0,1.1-0.5,1.6-1.6,1.6c-0.6,0-1-0.5-1-1.6C148.7,37.2,149,36.7,149.7,36.7z M142,34.7c0.9,0,1.3,0.5,1.3,1.6
		c0,1.1-0.4,1.6-1.3,1.6c-0.4,0-0.6-0.5-0.6-1.6C141.4,35.2,141.6,34.7,142,34.7z M130.5,32.1c0.6,0,1,0.4,1,1.3
		c0,0.9-0.3,1.3-1,1.3c-1.1,0-1.6-0.4-1.6-1.3C128.9,32.6,129.4,32.1,130.5,32.1z M119.6,30.2c0.6,0,1,0.5,1,1.6s-0.3,1.6-1,1.6
		c-0.4,0-0.6-0.5-0.6-1.6S119.2,30.2,119.6,30.2z M115.5,33.4c-0.8,0-1.2-0.4-1.3-1.3c-0.1,0-0.2,0-0.3,0c-0.9,0-1.3-0.5-1.3-1.6
		s0.4-1.6,1.3-1.6c0.8,0,1.2,0.4,1.3,1.3c0.1,0,0.2,0,0.3,0c0.4,0,0.6,0.5,0.6,1.6C116.1,32.9,115.9,33.4,115.5,33.4z"/>
	<path id="XMLID_405_" class="st5" d="M239.6,152.1c2.8-3.2,4.8-6.7,6.1-10.4c1.3-3.7,2.9-7.3,4.8-10.7v-9c0-1.6-0.1-3.1-0.2-4.6
		h-63.9c-2.1,2.9-4.7,5.6-7.6,8.2c-2.9,2.6-6,4.9-9.2,7c-3.2,2.1-5.8,3.9-7.7,5.4c-0.9,0.4-2.4,1.1-4.7,1.9
		c-2.3,0.9-4.7,1.7-7.2,2.4c-2.6,0.7-5,1.5-7.2,2.2c-2.3,0.7-3.8,1.1-4.7,1.1c-0.9,0.4-2.2,0.7-4,1c-1.8,0.2-3,0.5-3.7,1h-1.9
		c-0.9,0-1.7-1.7-2.6-5c-0.9-3.3-1.8-7.5-2.7-12.5c-0.8-4-1.5-8.3-2.2-12.8h-65c1.1,7.4,2.4,15.1,3.8,22.9c-0.4,1.7-0.5,3.8-0.2,6.2
		c0.3,2.5,0.8,5,1.4,7.5c0.6,2.6,1.2,5,1.8,7.4c0.1,0.6,0.3,1.1,0.4,1.7H230C233.4,159.7,236.6,156,239.6,152.1z"/>
</g>
</svg>
