<?xml version="1.0" encoding="utf-8"?>
<!-- Generator: Adobe Illustrator 19.0.0, SVG Export Plug-In . SVG Version: 6.00 Build 0)  -->
<svg version="1.1" id="Layer_1" xmlns="http://www.w3.org/2000/svg" xmlns:xlink="http://www.w3.org/1999/xlink" x="0px" y="0px"
	 viewBox="0 0 1024 339" style="enable-background:new 0 0 1024 339;" xml:space="preserve">
<style type="text/css">
	.st0{fill:#38A4DD;}
	.st1{fill:#E81F64;}
	.st2{fill:#8BC249;}
	.st3{fill:#543E98;}
	.st4{fill:#FEC111;}
</style>
<path id="XMLID_56_" class="st0" d="M-1869.1,126.5h-2.1V122c-2.6,1.2-4.6,2.1-6.2,2.6c-1.5,0.6-3.6,0.9-6.2,0.9
	c-4,0-7.9-0.9-11.6-2.8c-3.8-1.9-7-4.3-9.9-7.4c-2.8-3-5.2-6.4-7-10.2c-1.9-3.8-3.1-7.5-3.5-11.3c-0.2-0.2-0.3-2.1-0.5-5.6
	c-0.1-3.5-0.2-7.4-0.2-11.6s0-8.1,0-11.6c0-3.5,0.1-5.4,0.4-5.6V41.8c0-13.6-0.8-27.2-2.3-41s-3.5-27.2-5.8-40.6
	c-0.5-1.4-1-3.4-1.6-6c-0.6-2.6-1.2-5.3-1.9-8.1s-1.2-5.6-1.6-8.3c-0.4-2.7-0.3-5,0.2-6.9c-2.6-14.8-4.8-28.9-6.7-42.4
	s-3.5-27.5-4.9-42c0-0.5-0.2-1.3-0.5-2.5c-0.4-1.2-0.5-2-0.5-2.5c-0.5,0-1-0.2-1.6-0.7c-0.6-0.5-0.9-0.9-0.9-1.4l2.5-2.8v-2.5v-2.8
	l-2.5-3.2c0-0.2,0.3-0.9,0.9-1.9c0.6-1.1,1.1-1.6,1.6-1.6c1.6-5.2,2.7-9.7,3.2-13.5c0.5-3.9,1.4-7,2.8-9.3c1.4-2.3,3.8-4.1,7.2-5.3
	c3.4-1.2,8.7-1.8,16-1.8c5.9,0,11.3,1.2,16.4,3.5c5,2.3,10.6,4.1,16.7,5.3c0.7,0,2.6,0.2,5.6,0.7c3,0.5,5,0.7,6,0.7
	c10.8,1.2,20.8,3.2,30.1,6.1c9.3,2.9,18.9,6,29,9.3l-2.8,1.4c0.7,1.4,1.7,2.4,3,3c1.3,0.6,2.7,0.9,4.2,0.9c1.5,0,3.1,0,4.7,0
	s3.2,0.2,4.6,0.7c8.4,2.6,17.1,6.7,26,12.3s17.1,12.2,24.5,19.7c7.4,7.5,13.4,15.8,18.1,24.8c4.7,9,7,18.2,7,27.6v9.8
	c-2.1,3.8-3.9,7.7-5.3,11.8c-1.4,4.1-3.6,7.9-6.7,11.4c-5.2,6.8-10.8,12.7-16.9,17.8c-6.1,5-12.5,9.5-19.3,13.4s-13.9,7.2-21.3,10
	c-7.4,2.8-15,5.5-22.7,8.1c-2.8,0.9-5.7,1.5-8.6,1.8c-2.9,0.2-5.9,0.4-9,0.5c-3,0.1-6,0.4-8.8,0.7s-5.6,1-8.4,1.9v4.9
	c0,8.2,0.3,16.3,0.8,24.3c0.6,8,0.8,15.9,0.8,23.9c0,0.7,0.1,3.5,0.2,8.4s0.2,10.3,0.4,16.2c0.1,5.9,0.2,11.3,0.4,16.3
	c0.1,5,0.2,7.9,0.2,8.6c0,0.2-0.2,0.9-0.5,1.9c-0.3,1.1-0.7,2.2-1,3.3c-0.3,1.2-0.6,2.3-0.9,3.5c-0.2,1.2-0.3,1.9-0.3,2.1
	c-0.5,2.1-1.4,3.9-2.8,5.5c-1.4,1.5-2.8,3-4.2,4.4c-1.4,1.4-2.8,2.9-4.2,4.4c-1.4,1.5-2.4,3.3-2.8,5.4c-1.6-0.5-2.8-1.2-3.5-2.1
	c-0.7-0.9-1.2-1.9-1.6-3c-0.4-1.1-0.8-2.2-1.2-3.3c-0.5-1.2-1.3-2.3-2.5-3.5V126.5z M-1871.1,100.9c-0.9,0-1.4,0.4-1.4,1.2
	c0,0.8,0.5,1.2,1.4,1.2c0.7,0,1.1-0.4,1.1-1.2C-1870.1,101.3-1870.4,100.9-1871.1,100.9z M-1869.4-191.3c-0.9,0-1.4,0.6-1.4,1.8
	c0,1.2,0.5,1.8,1.4,1.8s1.4-0.6,1.4-1.8C-1868-190.7-1868.4-191.3-1869.4-191.3z M-1867.6-189.9c-0.9,0-1.4,0.6-1.4,1.8
	s0.5,1.8,1.4,1.8c0.5,0,0.7-0.6,0.7-1.8S-1867.1-189.9-1867.6-189.9z M-1866.7-138.6c0,0.9,0.2,3.5,0.7,7.6c0.5,4.1,1,9,1.6,14.8
	s1.3,11.8,2.3,18.3c0.9,6.4,1.9,12.4,3,17.9s2.1,10.1,3,13.7c0.9,3.6,1.9,5.4,2.8,5.4h2.1c0.7-0.5,2-0.8,4-1.1
	c2-0.2,3.5-0.6,4.4-1.1c0.9,0,2.7-0.4,5.1-1.2c2.5-0.8,5.1-1.6,8-2.5c2.8-0.8,5.5-1.7,8-2.6c2.5-0.9,4.2-1.6,5.1-2.1
	c2.1-1.6,5-3.6,8.5-6s6.9-4.9,10.1-7.7c3.2-2.8,6-5.8,8.3-9s3.5-6.3,3.5-9.3c0-1.2-0.3-2.5-0.9-4c-0.6-1.5-1.5-2.5-2.7-3
	c0.2,0,0.5-0.2,0.9-0.7c0.3-0.5,0.5-0.8,0.5-1.1c0-3.3-2.2-6.7-6.5-10.2c-4.4-3.5-9.3-6.8-14.9-9.8c-5.5-3-11-5.6-16.3-7.7
	c-5.3-2.1-8.9-3.4-10.8-3.9c-4-0.7-7.8-1.1-11.3-1.2s-7.4-0.2-11.6-0.2h-4.6l-2.5,1.4V-138.6z M-1863-189.9c-0.5,0-0.7,0.6-0.7,1.8
	c0,1.2,0.2,1.8,0.7,1.8c0.7,0,1.1-0.6,1.1-1.8C-1862-189.3-1862.3-189.9-1863-189.9z M-1851.1-187.8c-1.2,0-1.8,0.5-1.8,1.4
	s0.6,1.4,1.8,1.4c0.7,0,1.1-0.5,1.1-1.4S-1850.4-187.8-1851.1-187.8z M-1838.4-185c-0.5,0-0.7,0.6-0.7,1.8c0,1.2,0.2,1.8,0.7,1.8
	c0.9,0,1.4-0.6,1.4-1.8C-1837-184.4-1837.5-185-1838.4-185z M-1830-182.7c-0.7,0-1.1,0.6-1.1,1.8c0,1.2,0.4,1.8,1.1,1.8
	c1.2,0,1.8-0.6,1.8-1.8C-1828.2-182.2-1828.8-182.7-1830-182.7z M-1814.5-10.2c-1.2,0-1.8,0.6-1.8,1.8s0.6,1.8,1.8,1.8
	c0.7,0,1.1-0.6,1.1-1.8S-1813.8-10.2-1814.5-10.2z M-1796.9-170.2h2.1l-2.1-1.4V-170.2z M-1793.4-165.3c-0.7,0-1.1,0.6-1.1,1.8
	s0.4,1.8,1.1,1.8c0.7,0,1.1-0.6,1.1-1.8S-1792.7-165.3-1793.4-165.3z M-1792-163.2c-0.7,0-1.1,0.5-1.1,1.4s0.4,1.4,1.1,1.4
	c1.2,0,1.8-0.5,1.8-1.4S-1790.8-163.2-1792-163.2z M-1786.1-163.2h1.4v-2.1h-1.4V-163.2z M-1781.5-161.8c-1.2,0-1.8,0.6-1.8,1.8
	c0,1.2,0.6,1.8,1.8,1.8c0.5,0,0.7-0.6,0.7-1.8C-1780.8-161.2-1781-161.8-1781.5-161.8z"/>
<path id="XMLID_51_" class="st1" d="M-1680.5,117.1c-0.5-0.9-0.9-1.9-1.2-2.8c-0.4-0.9-0.8-1.8-1.2-2.5l2.5-1.4
	c-1.2-0.5-2.4-1.4-3.7-2.8c-1.3-1.4-2-2.8-2.3-4.2c0.9-0.2,1.3-0.8,1.2-1.6c-0.1-0.8-0.2-1.6-0.2-2.5s0.2-1.4,0.7-1.8
	c0.5-0.4,1.9-0.4,4.2-0.2c-0.5-0.7-1.3-2.3-2.5-4.9c-1.2-2.6-2-4.5-2.5-5.6v-0.7c0-1.4,0.8-2.5,2.3-3.2c1.5-0.7,3.3-1.2,5.5-1.6
	c2.1-0.3,4.2-0.6,6.3-0.7c2.1-0.1,3.6-0.2,4.6-0.2c0-0.9-0.1-1.5-0.4-1.8c-0.2-0.2,0.4-0.7,1.8-1.4c3.3,0.2,7,0.3,11.1,0.2
	s7.9-0.8,11.4-1.9c3.5-1.2,6.5-3,9-5.4c2.5-2.5,3.7-6,3.7-10.7c0-6.3-1.5-13-4.6-20c-3-7-6.9-14.1-11.6-21.3
	c-4.7-7.1-9.7-14.4-15.1-21.8c-5.4-7.4-10.4-14.8-15.1-22.1c-4.7-7.4-8.6-14.7-11.6-22c-3-7.3-4.6-14.3-4.6-21.1v-7.7
	c1.9-1.2,3.3-3.5,4.4-6.9c1.1-3.4,2.3-6,3.7-7.9c1.4-1.6,2.8-2.3,4.2-1.9c1.4,0.4,2.7-0.1,3.9-1.2c-0.5-0.9-1.3-1.6-2.5-1.9
	c-1.2-0.4-2.3-0.3-3.5,0.2c4-4.7,8.8-8.4,14.6-11.1c5.7-2.7,11.8-4.7,18.1-6c6.3-1.3,12.7-2.1,19.2-2.5c6.4-0.4,12.5-0.5,18.1-0.5
	c0.9,0,4.1,0.4,9.5,1.1c5.4,0.7,11.1,1.6,17,2.8c6,1.2,11.4,2.6,16.2,4.4c4.8,1.8,7.2,3.7,7.2,5.8c0,0.2-0.3,1.2-0.9,2.8
	c-0.6,1.6-0.8,2.7-0.5,3.2c0.5,2.6,1.7,4.5,3.7,5.6c2,1.2,3.6,2.7,4.7,4.6c0,0.2,0.1,0.9,0.2,1.9s0.3,2.3,0.5,3.7s0.4,2.8,0.5,4
	c0.1,1.3,0.2,2.2,0.2,2.6c0,3-1.5,5.3-4.4,6.9c-2.9,1.5-5.7,2.3-8.3,2.3h-2.5c-0.5,0-1.5-0.3-3.2-0.9s-2.6-1-2.8-1.2
	c0,1.9-0.3,2.9-0.9,3.2s-1.5,0.4-2.6,0.4c-4.2,0-8.3-0.8-12.1-2.5c-3.9-1.6-7.9-2.5-12.1-2.5h-1.8c-1.2,0.2-3.5,0.8-7,1.6
	s-5.9,1.5-7,1.9c0,0.2-0.4,1.2-1.2,3c-0.8,1.8-1.2,2.9-1.2,3.3v1.1c0,2.8,0.6,5.7,1.9,8.8c1.3,3,2.8,6,4.6,8.8s3.6,5.5,5.5,8.1
	c1.9,2.6,3.4,4.8,4.6,6.7c2.6,4.2,6.4,10.2,11.6,17.9c5.2,7.7,10.4,15.9,15.6,24.6c5.3,8.7,9.8,17.1,13.7,25.3
	c3.9,8.2,5.8,14.9,5.8,20c0,9.1-0.7,17.1-2.1,23.7c-1.4,6.7-3.7,12.5-7,17.6c-3.3,5-7.7,9.3-13.2,12.8c-5.5,3.5-12.3,6.7-20.5,9.5
	l1.4,1.4c-3.7,1.2-7.8,2.1-12.3,2.6c-4.4,0.6-8.5,0.9-12.3,0.9c-0.9,0-3.9-0.5-9-1.4c-5-0.9-10.4-2-16.2-3.3
	c-5.7-1.3-11-2.7-15.6-4.2c-4.7-1.5-7-2.9-7-4v-1.4H-1680.5z M-1673.2-97.8c0-0.9-0.3-1.4-0.9-1.4c-0.6,0-0.6,0.5-0.2,1.4
	c0,0.5,0.2,0.7,0.5,0.7C-1673.3-97.1-1673.2-97.3-1673.2-97.8z M-1594-71.8c-0.9,0-1.4,0.6-1.4,1.8c0,1.2,0.5,1.8,1.4,1.8
	s1.4-0.6,1.4-1.8C-1592.6-71.2-1593.1-71.8-1594-71.8z M-1580.4-68.2c0-0.5-0.7-0.7-2.1-0.7s-1.9,0.2-1.4,0.7
	C-1582.5-67.7-1581.3-67.7-1580.4-68.2z"/>
<path id="XMLID_46_" class="st2" d="M-1513.5,117.1c-0.5-0.9-0.9-1.9-1.2-2.8c-0.4-0.9-0.8-1.8-1.2-2.5l2.5-1.4
	c-1.2-0.5-2.4-1.4-3.7-2.8c-1.3-1.4-2-2.8-2.3-4.2c0.9-0.2,1.3-0.8,1.2-1.6c-0.1-0.8-0.2-1.6-0.2-2.5s0.2-1.4,0.7-1.8
	c0.5-0.4,1.9-0.4,4.2-0.2c-0.5-0.7-1.3-2.3-2.5-4.9c-1.2-2.6-2-4.5-2.5-5.6v-0.7c0-1.4,0.8-2.5,2.3-3.2c1.5-0.7,3.3-1.2,5.5-1.6
	c2.1-0.3,4.2-0.6,6.3-0.7c2.1-0.1,3.6-0.2,4.6-0.2c0-0.9-0.1-1.5-0.4-1.8c-0.2-0.2,0.4-0.7,1.8-1.4c3.3,0.2,7,0.3,11.1,0.2
	s7.9-0.8,11.4-1.9c3.5-1.2,6.5-3,9-5.4c2.5-2.5,3.7-6,3.7-10.7c0-6.3-1.5-13-4.6-20c-3-7-6.9-14.1-11.6-21.3
	c-4.7-7.1-9.7-14.4-15.1-21.8c-5.4-7.4-10.4-14.8-15.1-22.1s-8.6-14.7-11.6-22s-4.6-14.3-4.6-21.1v-7.7c1.9-1.2,3.3-3.5,4.4-6.9
	c1.1-3.4,2.3-6,3.7-7.9c1.4-1.6,2.8-2.3,4.2-1.9c1.4,0.4,2.7-0.1,3.9-1.2c-0.5-0.9-1.3-1.6-2.5-1.9s-2.3-0.3-3.5,0.2
	c4-4.7,8.8-8.4,14.6-11.1c5.7-2.7,11.8-4.7,18.1-6s12.7-2.1,19.2-2.5c6.4-0.4,12.5-0.5,18.1-0.5c0.9,0,4.1,0.4,9.5,1.1
	c5.4,0.7,11.1,1.6,17,2.8c6,1.2,11.4,2.6,16.2,4.4c4.8,1.8,7.2,3.7,7.2,5.8c0,0.2-0.3,1.2-0.9,2.8c-0.6,1.6-0.8,2.7-0.5,3.2
	c0.5,2.6,1.7,4.5,3.7,5.6c2,1.2,3.6,2.7,4.7,4.6c0,0.2,0.1,0.9,0.2,1.9c0.1,1.1,0.3,2.3,0.5,3.7s0.4,2.8,0.5,4
	c0.1,1.3,0.2,2.2,0.2,2.6c0,3-1.5,5.3-4.4,6.9c-2.9,1.5-5.7,2.3-8.3,2.3h-2.5c-0.5,0-1.5-0.3-3.2-0.9s-2.6-1-2.8-1.2
	c0,1.9-0.3,2.9-0.9,3.2c-0.6,0.2-1.5,0.4-2.6,0.4c-4.2,0-8.3-0.8-12.1-2.5c-3.9-1.6-7.9-2.5-12.1-2.5h-1.8c-1.2,0.2-3.5,0.8-7,1.6
	c-3.5,0.8-5.9,1.5-7,1.9c0,0.2-0.4,1.2-1.2,3c-0.8,1.8-1.2,2.9-1.2,3.3v1.1c0,2.8,0.6,5.7,1.9,8.8c1.3,3,2.8,6,4.6,8.8
	s3.6,5.5,5.5,8.1c1.9,2.6,3.4,4.8,4.6,6.7c2.6,4.2,6.4,10.2,11.6,17.9c5.2,7.7,10.4,15.9,15.6,24.6c5.3,8.7,9.8,17.1,13.7,25.3
	c3.9,8.2,5.8,14.9,5.8,20c0,9.1-0.7,17.1-2.1,23.7c-1.4,6.7-3.7,12.5-7,17.6c-3.3,5-7.7,9.3-13.2,12.8c-5.5,3.5-12.3,6.7-20.5,9.5
	l1.4,1.4c-3.7,1.2-7.8,2.1-12.3,2.6s-8.5,0.9-12.3,0.9c-0.9,0-3.9-0.5-9-1.4c-5-0.9-10.4-2-16.2-3.3c-5.7-1.3-11-2.7-15.6-4.2
	c-4.7-1.5-7-2.9-7-4v-1.4H-1513.5z M-1506.1-97.8c0-0.9-0.3-1.4-0.9-1.4s-0.6,0.5-0.2,1.4c0,0.5,0.2,0.7,0.5,0.7
	C-1506.3-97.1-1506.1-97.3-1506.1-97.8z M-1427-71.8c-0.9,0-1.4,0.6-1.4,1.8c0,1.2,0.5,1.8,1.4,1.8s1.4-0.6,1.4-1.8
	C-1425.6-71.2-1426.1-71.8-1427-71.8z M-1413.4-68.2c0-0.5-0.7-0.7-2.1-0.7c-1.4,0-1.9,0.2-1.4,0.7
	C-1415.5-67.7-1414.3-67.7-1413.4-68.2z"/>
<path id="XMLID_40_" class="st3" d="M-1237.9,126.2c-0.5,0.2-1.2,0.4-2.1,0.4c-1.2-0.2-2.2-1.1-3-2.6c-0.8-1.5-1.6-3.3-2.3-5.3
	c-0.7-2-1.3-4-1.8-6c-0.5-2-0.8-3.6-1.1-4.8l-4.9,5.3c-3-2.6-5.5-6.3-7.2-11.1c-1.8-4.8-3.2-10-4.2-15.5c-1.1-5.5-1.8-11-2.3-16.4
	c-0.5-5.4-0.8-9.9-1.1-13.4c-0.2-1.6-0.5-4.9-0.9-9.7c-0.4-4.8-0.7-9.9-1.1-15.1s-0.7-10.2-1.1-14.8c-0.4-4.6-0.6-7.7-0.9-9.3
	c-0.7-8.2-1.2-16.4-1.4-24.6s-0.7-16.4-1.4-24.6h-1.1c-3.3,0-6.4,0.5-9.5,1.4c-3,0.9-6,2.1-9,3.3c-2.9,1.3-5.9,2.4-8.8,3.3
	c-2.9,0.9-6,1.4-9.3,1.4c-1.9,0-3.3-0.2-4.4-0.7s-2.5-1.3-4.4-2.5l3.5-3.5c-6.6,0.7-12.1,0.4-16.5-0.9c-4.5-1.3-8.4-3.2-11.8-5.6
	c-3.4-2.5-6.4-5.6-9.1-9.3c-2.7-3.8-5.6-7.7-8.6-12c5.4-4.9,11.3-8.9,17.6-12c6.3-3,12.9-5.6,19.7-7.7c6.8-2.1,13.7-4,20.7-5.8
	c7-1.8,14.1-3.8,21.1-6.2c1.2-0.9,2-3.3,2.6-7.2c0.6-3.9,0.9-8.5,0.9-13.9c0-5.4-0.1-11.2-0.4-17.4c-0.2-6.2-0.5-12.1-0.7-17.8
	c-0.2-5.6-0.4-10.5-0.5-14.6c-0.1-4.1,0.1-6.7,0.5-7.9c1.6-8.7,5.4-14.9,11.3-18.8s12.4-6.1,19.5-6.7c7.1-0.6,14.2,0.3,21.3,2.6
	c7,2.3,12.8,5.3,17.2,8.8c0.5,1.4,0.9,4,1.4,7.9c0.5,3.9,1,8.3,1.6,13.4c0.6,5,1.3,10.3,2.1,15.8s1.6,10.7,2.5,15.5
	s1.8,8.8,2.8,12.1c1.1,3.3,2.3,5.2,3.7,5.6c1.2,0,3.2-0.1,6-0.3c2.8-0.2,5.8-0.4,9-0.5c3.2-0.1,6.2-0.3,9-0.5c2.8-0.2,4.8-0.3,6-0.3
	h1.4c3.3,0,6.8,0.1,10.5,0.2c3.8,0.1,7.3,0.6,10.5,1.6c0.9,0.5,2.1,0.8,3.5,1.1c1.4,0.2,2.7,0.6,3.9,1.1c1.4,0.5,2.9,0.8,4.6,1.1
	v2.1h2.8l16.9,8.5v1.4h-3.9c0,1.9,0.6,2.9,1.8,3.2c1.2,0.2,2.7,0.4,4.6,0.4c0,1.2,0.5,2.2,1.6,3.2c1.1,0.9,2.3,1.9,3.7,2.8
	c1.4,0.9,2.8,1.8,4,2.6c1.3,0.8,2.3,1.7,3,2.6h-2.5c-1.9,0-3.7-0.1-5.5-0.4c-1.8-0.2-3.3-0.7-4.7-1.4c-0.7,0-1.4-0.6-2.1-1.8
	c-0.5-0.5-0.9-1.1-1.4-1.8c-0.7,0-1.9,0.5-3.7,1.4c-1.8,0.9-2.9,1.6-3.3,2.1l-1.4-1.8l-9.8,1.8l14.8,5.3c-0.5,0.9-1.2,1.5-2.3,1.8
	c-1.1,0.2-2,0.4-3,0.5c-0.9,0.1-1.8,0.4-2.6,0.9s-1.3,1.5-1.6,3.2c-1.2,0-3.2,0.2-6.2,0.7c-2.9,0.5-4.7,0.9-5.4,1.4
	c-0.5,0-0.9,0.2-1.4,0.7c-0.5,0.5-0.7,0.9-0.7,1.4h-17.9l-1.8,3.9h-14.8v-1.1c-4,1.2-8.1,2.4-12.3,3.7c-4.2,1.3-8.3,3.2-12.3,5.8
	c0.5,3.3,0.2,6.4-0.7,9.5s-1.4,6.2-1.4,9.5c0,14.1-0.1,27.6-0.2,40.6s1.1,26.5,3.7,40.6v65.8c-0.7,1.2-1.1,2.7-1.2,4.6
	s-0.2,3.6-0.2,5.3c0,1.6-0.2,3-0.5,4.2c-0.4,1.2-1.2,1.8-2.6,1.8c0,2.1,0.3,3.5,0.9,4.2c0.6,0.7,0.9,2.2,0.9,4.6
	c-0.9,0-2.1-0.2-3.5-0.7c-1.4-0.5-2.8-1.2-4-2.1s-2.2-2-2.8-3.2c-0.6-1.2-0.4-2.3,0.5-3.5c-4,0-6.8,1.6-8.4,4.9
	c-0.7-1.4-1.4-2-1.9-1.8c-0.6,0.2-1.6,0.4-3,0.4c0,0.5,0.4,1.3,1.1,2.5c0.7,1.2,0.8,2,0.4,2.5c-0.2,0.5-1.2,1.5-3,3
	c-1.8,1.5-3,2.5-3.7,3c-0.9-0.5-1.8-1.6-2.5-3.3c-0.7-1.8-1.5-2.6-2.5-2.6L-1237.9,126.2z M-1219.9,113.5c-0.5-0.2-0.7,0.3-0.7,1.6
	c0,1.3,0.2,1.9,0.7,1.9c0.5-0.2,0.7-0.8,0.7-1.6S-1219.5,114-1219.9,113.5z M-1184.1-76.1c-0.5,0-0.7,0.6-0.7,1.8
	c0,1.2,0.2,1.8,0.7,1.8c1.2,0,1.8-0.6,1.8-1.8C-1182.3-75.5-1182.9-76.1-1184.1-76.1z M-1122.9-105.2c-0.7,0-1.1,0.6-1.1,1.8
	c0,1.2,0.4,1.8,1.1,1.8c1.2,0,1.8-0.6,1.8-1.8C-1121.1-104.6-1121.7-105.2-1122.9-105.2z M-1120.8-101.7c-1.2,0-1.8,0.6-1.8,1.8
	c0,1.2,0.6,1.8,1.8,1.8c0.7,0,1.1-0.6,1.1-1.8C-1119.7-101.1-1120.1-101.7-1120.8-101.7z"/>
<path id="XMLID_37_" class="st4" d="M-1120.8,20.4c-0.5-2.1-1.1-5.3-1.8-9.7s-1.5-9.3-2.3-14.8c-0.8-5.5-1.7-11.3-2.6-17.4
	s-1.9-11.9-2.8-17.4s-1.8-10.4-2.5-14.8c-0.7-4.3-1.2-7.6-1.4-9.7c0-0.7-0.1-1.9-0.2-3.5c-0.1-1.6-0.3-3.5-0.5-5.4s-0.4-3.9-0.5-5.8
	s-0.2-3.3-0.2-4.2c0-6.8-0.6-14-1.9-21.6c-1.3-7.6-2-14.8-2.3-21.6c0-1.4,0.2-3.5,0.5-6.3c0.3-2.8,0.5-5.7,0.7-8.6
	c0.1-2.9,0.2-5.7,0.2-8.3s-0.4-4.3-1.1-5.3l2.1-19.7c-0.2-0.5-0.9-1.4-1.9-2.8c-1.1-1.4-1.7-2.2-1.9-2.5v-1.1l0.4-0.7
	c0-0.2,0.2-0.5,0.5-0.9c0.4-0.4,0.5-0.6,0.5-0.9c3.3-1.9,7.4-4.3,12.5-7.2c5-2.9,10.3-5.8,15.8-8.6c5.5-2.8,11-5.1,16.4-6.9
	c5.4-1.8,10.1-2.5,14.1-2.3h0.7c0.7,0,1.7,0.2,3,0.7c1.3,0.5,2.7,0.9,4.2,1.4c1.5,0.5,3,0.9,4.4,1.2c1.4,0.4,2.5,0.6,3.2,0.9
	c0,0.5,0.1,0.8,0.4,1.1c0.5,0.5,0.8,0.7,1.1,0.7c5.9,4.2,10.2,9.7,13,16.4c2.8,6.7,4.1,13.8,3.9,21.3c0,1.9-0.3,4-0.9,6.5
	c-0.6,2.5-0.1,4.3,1.6,5.4c-1.9,12.9-3.5,25.4-4.7,37.4c-1.3,12.1-1.7,24.4-1.2,37.1c0.4,12,0.9,24,1.3,36.2
	c0.5,12.2,0.1,24.1-1.1,35.9c-0.5,3.3-1.6,6.2-3.5,8.6c-1.9,2.5-4,4.8-6.3,7c-2.3,2.2-4.6,4.6-6.9,7.2c-2.2,2.6-3.8,5.5-4.7,8.8
	h-0.4h-1.1l-0.7-1.4c-0.2-0.2-0.4-0.6-0.4-1.1h-0.4c-0.2,0-0.5-0.1-0.7-0.4c-0.9,0-1.5,0.4-1.8,1.2s-0.5,1.7-0.7,2.6
	c-0.2,0.9-0.6,1.8-1.2,2.5s-1.6,0.8-3,0.4c-0.2-0.2-0.7-0.9-1.4-2.1c-0.7-1.2-1.3-1.8-1.8-1.8c-0.9-0.2-2.7,0.2-5.3,1.2
	s-4.1,2-4.6,3c-0.5-0.2-1.1-0.8-1.8-1.6s-1.2-1.5-1.4-1.9l-0.7-0.4c-1.4,0-2.6,0.9-3.5,2.8s-2.6,2.7-4.9,2.5c-4-0.5-6.6-1.5-7.9-3
	C-1118.4,27.4-1119.7,24.6-1120.8,20.4z M-1114.4,108.3c0-5.6,1.5-11.2,4.6-16.6c3-5.4,7-10.3,11.8-14.6c4.8-4.3,10.2-7.8,16.2-10.4
	c6-2.6,11.8-3.9,17.4-3.9c2.8,0,5.7,0.6,8.8,1.8c3,1.2,5.9,2.8,8.4,4.9c2.6,2.1,4.7,4.6,6.3,7.4c1.6,2.8,2.5,5.8,2.5,8.8v0.7
	c-2.6,12.7-8.3,23.3-17.1,31.9c-8.8,8.6-20.2,12.9-34.3,12.9c-6.1,0-11.7-2-16.9-6C-1111.9,121.2-1114.4,115.6-1114.4,108.3z"/>
<path id="XMLID_34_" class="st4" d="M-1002.4,20.4c-0.5-2.1-1.1-5.3-1.8-9.7s-1.5-9.3-2.3-14.8c-0.8-5.5-1.7-11.3-2.6-17.4
	s-1.9-11.9-2.8-17.4c-0.9-5.5-1.8-10.4-2.5-14.8c-0.7-4.3-1.2-7.6-1.4-9.7c0-0.7-0.1-1.9-0.2-3.5c-0.1-1.6-0.3-3.5-0.5-5.4
	c-0.2-2-0.4-3.9-0.5-5.8c-0.1-1.9-0.2-3.3-0.2-4.2c0-6.8-0.6-14-1.9-21.6c-1.3-7.6-2-14.8-2.3-21.6c0-1.4,0.2-3.5,0.5-6.3
	c0.3-2.8,0.5-5.7,0.7-8.6c0.1-2.9,0.2-5.7,0.2-8.3s-0.4-4.3-1.1-5.3l2.1-19.7c-0.2-0.5-0.9-1.4-1.9-2.8c-1.1-1.4-1.7-2.2-1.9-2.5
	v-1.1l0.4-0.7c0-0.2,0.2-0.5,0.5-0.9s0.5-0.6,0.5-0.9c3.3-1.9,7.4-4.3,12.5-7.2c5-2.9,10.3-5.8,15.8-8.6s11-5.1,16.4-6.9
	c5.4-1.8,10.1-2.5,14.1-2.3h0.7c0.7,0,1.7,0.2,3,0.7c1.3,0.5,2.7,0.9,4.2,1.4c1.5,0.5,3,0.9,4.4,1.2c1.4,0.4,2.5,0.6,3.2,0.9
	c0,0.5,0.1,0.8,0.4,1.1c0.5,0.5,0.8,0.7,1.1,0.7c5.9,4.2,10.2,9.7,13,16.4c2.8,6.7,4.1,13.8,3.9,21.3c0,1.9-0.3,4-0.9,6.5
	c-0.6,2.5-0.1,4.3,1.6,5.4c-1.9,12.9-3.5,25.4-4.7,37.4c-1.3,12.1-1.7,24.4-1.2,37.1c0.4,12,0.9,24,1.3,36.2
	c0.5,12.2,0.1,24.1-1.1,35.9c-0.5,3.3-1.6,6.2-3.5,8.6c-1.9,2.5-4,4.8-6.3,7c-2.3,2.2-4.6,4.6-6.9,7.2c-2.2,2.6-3.8,5.5-4.7,8.8
	h-0.4h-1.1l-0.7-1.4c-0.2-0.2-0.4-0.6-0.4-1.1h-0.4c-0.2,0-0.5-0.1-0.7-0.4c-0.9,0-1.5,0.4-1.8,1.2c-0.2,0.8-0.5,1.7-0.7,2.6
	c-0.2,0.9-0.6,1.8-1.2,2.5s-1.6,0.8-3,0.4c-0.2-0.2-0.7-0.9-1.4-2.1c-0.7-1.2-1.3-1.8-1.8-1.8c-0.9-0.2-2.7,0.2-5.3,1.2
	s-4.1,2-4.6,3c-0.5-0.2-1.1-0.8-1.8-1.6s-1.2-1.5-1.4-1.9l-0.7-0.4c-1.4,0-2.6,0.9-3.5,2.8c-0.9,1.9-2.6,2.7-4.9,2.5
	c-4-0.5-6.6-1.5-7.9-3C-1000,27.4-1001.2,24.6-1002.4,20.4z M-995.9,108.3c0-5.6,1.5-11.2,4.6-16.6c3-5.4,7-10.3,11.8-14.6
	c4.8-4.3,10.2-7.8,16.2-10.4c6-2.6,11.8-3.9,17.4-3.9c2.8,0,5.7,0.6,8.8,1.8c3,1.2,5.9,2.8,8.4,4.9c2.6,2.1,4.7,4.6,6.3,7.4
	c1.6,2.8,2.5,5.8,2.5,8.8v0.7c-2.6,12.7-8.3,23.3-17.1,31.9c-8.8,8.6-20.2,12.9-34.3,12.9c-6.1,0-11.7-2-16.9-6
	C-993.4,121.2-995.9,115.6-995.9,108.3z"/>
<g id="XMLID_188_">
	<path id="XMLID_325_" class="st0" d="M3.2-236.9c-0.1,0-0.6,0.1-1.3,0.4c-0.8,0.2-1.2,0.4-1.3,0.4c-0.1,0.1-0.4,0.2-1,0.4
		s-1.1,0.2-1.8,0.3s-1.4,0.1-2.1,0.2s-1.3,0.1-1.8,0.2h-0.4c-0.7,0-1.1-0.3-1.2-0.8c-0.1-0.5-0.3-1.1-0.6-1.8
		c-0.3-0.6-0.8-1.3-1.4-1.9c-0.6-0.6-1.8-1.1-3.6-1.3c-1.3-0.2-2.3-0.6-3-1.1c-0.7-0.5-1.4-1.3-2.1-2.2v-4.2c0-1.4,0.1-3.6,0.3-6.5
		s0.4-6.2,0.5-9.9c0.2-3.7,0.4-7.6,0.7-11.7c0.3-4.1,0.5-8,0.7-11.7s0.4-7,0.5-10c0.2-3,0.3-5.2,0.3-6.6c0-0.6,0-1.7-0.1-3.4
		c-0.1-1.7-0.1-2.8-0.1-3.2c-0.2-0.4-0.6-1.3-1-2.8c-0.4-1.5-0.6-2.6-0.6-3.2c0-0.1,0.1-0.5,0.3-1.1c0.2-0.6,0.3-1.1,0.4-1.3v-6.1
		c0-8.3-0.4-16.5-1.2-24.5c-0.8-8-1.1-16.2-0.9-24.5c0-2.6,0.1-5.6,0.4-9c0.2-3.4,0.8-6.6,1.8-9.7c0.9-3.1,2.4-5.7,4.5-7.9
		s4.9-3.2,8.7-3.2h17.5c0.8,0,1.8,0.6,3.1,1.7c1.2,1.1,2.1,2,2.7,2.5c0,0.4,0,1,0.1,1.8c0.1,0.9,0.1,1.8,0.2,2.7s0.1,1.9,0.2,2.8
		s0.1,1.6,0.1,1.9v3c1.6,0,3-0.5,4-1.4c1.1-0.9,2.3-1.9,3.7-2.8c1.6-0.9,3.5-1.5,5.6-1.8c2.1-0.3,4.1-0.4,6-0.4
		c2.2,0,4.3,0.2,6.2,0.7c1.9,0.5,3.8,0.8,5.7,1.1c3.2,0.4,5.6,0.8,7.5,1.4c1.8,0.6,3.4,1.4,4.7,2.5s2.5,2.5,3.6,4.2
		c1.1,1.7,2.5,3.8,4.3,6.4c0.4,0.6,0.8,1.1,1.2,1.6c0.5,0.5,0.9,1,1.4,1.5c0.5,0.5,0.9,1.1,1.2,1.7c0.4,0.6,0.5,1.3,0.5,2.1h-0.9
		c0,0.9,0.2,2.1,0.6,3.6c0.4,1.5,1,2.7,1.7,3.6c0,0.2,0.3,0.4,0.8,0.6c0.5,0.2,0.8,0.4,0.8,0.6c0.9,1.3,1.4,2.6,1.5,4
		c0.1,1.4,0.6,2.7,1.7,4c0,0.1-0.1,0.2-0.2,0.4c-0.2,0.2-0.4,0.4-0.5,0.4c-0.1,0-0.4-0.1-0.8-0.4c-0.4-0.2-0.7-0.4-0.8-0.4v0.4v0.4
		c0,0.2,0.1,0.7,0.4,1.4s0.6,1.5,1,2.4c0.4,0.9,0.7,1.7,1.1,2.5c0.4,0.8,0.6,1.5,0.9,1.9c0.6,1.3,1,2.5,1.2,3.8s0.8,2.5,1.8,3.8
		c0.2-0.2,0.4-0.4,0.6-0.5s0.4-0.2,0.6-0.4h0.2c2.4,0,4,0.4,5,1.2c1,0.8,1.5,2.3,1.5,4.4h5.6c-1.6,0.9-3.3,1.8-4.9,2.7
		c-1.7,0.9-2.5,2.2-2.5,3.9c0.8,0,1.5,0,1.9,0.1c0.5,0.1,0.9,0.1,1.2,0.1c0.4,0,0.7-0.1,1.1-0.2s1-0.4,1.8-0.7l1.2,1.8
		c-0.8-0.6-1.6-0.6-2.2-0.1s-1.3,1.3-1.8,2.2c-0.6,0.9-1.1,1.8-1.7,2.7c-0.5,0.9-1.1,1.3-1.7,1.3c0,1.6,0.1,3.2,0.3,4.7
		c0.2,1.5,0.3,3.1,0.3,4.7c0,0.5,0,0.9,0.1,1.4s-0.3,0.8-1,0.9l1.7,0.9c0.8,10,1.5,19,2.1,27c0.2,3.4,0.5,6.8,0.8,10.1
		c0.3,3.3,0.6,6.4,0.8,9.1c0.2,2.8,0.5,5,0.7,6.8c0.2,1.8,0.4,3,0.5,3.4c0.1,0.4,0.2,0.9,0.3,1.7c0.1,0.8,0.2,1.5,0.4,2.3
		c0.2,0.8,0.4,1.4,0.7,2c0.3,0.6,0.7,0.9,1.1,1.1v9.3c-1.6,0-2.5,0.8-2.5,2.4l-0.9-2.4c0,0.4-0.2,0.8-0.7,1.5c-0.5,0.6-1,1-1.6,1
		c-0.5,0-0.8-0.2-1-0.5c-0.2-0.4-0.4-0.8-0.6-1.2c-0.2-0.5-0.5-0.9-0.8-1.3c-0.3-0.4-0.7-0.6-1.3-0.6l-1.2,1.1
		c-0.7-0.4-1.2-0.7-1.5-1.1c-0.3-0.4-0.5-0.7-0.5-1c-0.1-0.3-0.2-0.5-0.3-0.7c-0.2-0.2-0.6-0.3-1.1-0.3v0.7c0.1,0.2,0.2,0.5,0.2,0.8
		c0,0.3,0.1,0.6,0.2,1c0,0.5,0.1,0.9,0.2,1.2h1.4c-0.1,0.1-0.2,0.2-0.2,0.3v0.5c-0.2,0.2-0.6,0.7-1.2,1.3c-0.6,0.7-1,1-1.2,1.2
		c-0.2,0-0.4,0-0.4,0.1c0,0-0.1,0.1-0.2,0.1l-0.2,0.1c0-1.1-0.5-2.1-1.4-2.9c-0.9-0.8-1.4-1.8-1.4-3.1h-0.7c-0.4,0-0.9,0.2-1.8,0.7
		c-0.8,0.5-1.3,0.8-1.6,1.1c-0.6-1.5-1.6-3.2-2.9-5.1c-1.3-1.9-2.9-2.8-4.6-2.8v-0.5h-2.1c0-0.4-0.1-2.2-0.4-5.4
		c-0.3-3.3-0.7-7.3-1.2-11.9c-0.5-4.7-1.1-9.7-1.7-15c-0.6-5.3-1.2-10.2-1.8-14.8c-0.6-4.5-1.1-8.3-1.6-11.2c-0.5-3-0.8-4.5-1.1-4.5
		c-3.6,0-7.3,0.6-10.9,1.8c-3.6,1.2-7.4,1.8-11.4,1.8v-1.1c1.3,0,2.7-0.1,4.3-0.4c1.6-0.3,2.9-0.7,3.9-1.3h-0.5h-0.9
		c-0.5,0.2-1.6,0.4-3.3,0.6s-2.9,0.3-3.5,0.4l-0.7,0.7c-0.7,1.2-2.2,1.9-4.4,2.2c-2.2,0.3-4.6,0.5-7,0.6s-4.7,0.4-6.8,0.7
		s-3.3,1.1-3.8,2.3c-0.1,0.4-0.2,1.6-0.3,3.6c-0.1,2-0.1,4.5-0.2,7.5c-0.1,2.9-0.1,6-0.2,9.3c-0.1,3.3-0.1,6.4-0.1,9.3
		c0,2.9,0,5.4-0.1,7.5c-0.1,2-0.1,3.2-0.1,3.6c-0.4,1.2-0.8,2.2-1.4,3.1c-0.6,0.9-1.1,1.8-1.6,2.7c0,0.2,0.1,0.9,0.2,2.1
		c0.1,1.2,0.1,1.9-0.2,2.1c-0.6,1.4-1.1,2.5-1.6,3.4c-0.5,0.9-0.9,1.8-1.3,2.6c-0.4,0.9-0.7,1.6-1,2s-0.5,0.9-0.8,1.3
		c-0.3,0.4-0.6,0.8-0.8,1.3c-0.4,0.5-0.6,1-0.9,1.6H4.2v-0.7c0-0.2,0.1-0.5,0.2-0.8C4.5-236.4,4.1-236.7,3.2-236.9z M41.7-367
		c-2-1.1-4-0.7-6,1.1c-2,1.8-3.8,4.4-5.4,7.9c-1.6,3.5-3.1,7.7-4.3,12.5c-1.2,4.9-2.1,9.8-2.5,14.8v1.1c0.1,0,0.5-0.1,1.1-0.2
		c0.6-0.1,1.1-0.2,1.3-0.2c0.8-0.1,2.5-0.3,5-0.6c2.5-0.3,5.2-0.6,8.1-1c2.9-0.4,5.5-0.6,8-0.9s4-0.4,4.7-0.5c0.9,0,1.5-0.1,1.8-0.4
		c0.2-0.3,0.4-0.7,0.4-1.3c0.5-0.9,0.4-3-0.4-6.2c-0.7-3.2-1.7-6.7-3-10.4s-2.7-7.1-4.3-10.2C44.6-364.5,43.1-366.4,41.7-367z
		 M26.3-372.8c-0.6,0-0.9,0.3-0.9,0.9c0,0.6,0.3,0.9,0.9,0.9c0.4,0,0.5-0.3,0.5-0.9C26.8-372.5,26.7-372.8,26.3-372.8z M26.3-365.2
		c-0.6,0-0.9,0.2-0.9,0.7s0.3,0.7,0.9,0.7c0.4,0,0.5-0.2,0.5-0.7S26.7-365.2,26.3-365.2z M27-362.1c-0.2-0.2-0.5-0.2-0.7,0.2
		c-0.2,0.4-0.2,0.6,0,0.7C26.9-361.2,27.1-361.5,27-362.1z M27.7-364.5c-0.4,0-0.5,0.3-0.5,0.9s0.2,0.9,0.5,0.9
		c0.6,0,0.9-0.3,0.9-0.9S28.3-364.5,27.7-364.5z M29.8-305.4c-0.4,0-0.5,0.3-0.5,0.9s0.2,0.9,0.5,0.9c0.6,0,0.9-0.3,0.9-0.9
		S30.4-305.4,29.8-305.4z M32.8-374.5c-0.5,0-0.7,0.3-0.7,0.9s0.2,0.9,0.7,0.9c0.2,0,0.4-0.3,0.4-0.9S33-374.5,32.8-374.5z
		 M49.3-305.2l2.5-0.7h-2.5V-305.2z M57-307.5c-0.6,0-0.9,0.3-0.9,0.8s0.3,0.8,0.9,0.8c0.4,0,0.5-0.3,0.5-0.8S57.4-307.5,57-307.5z
		 M58.8-309.8c-0.6,0-0.9,0.2-0.9,0.7s0.3,0.7,0.9,0.7c0.4,0,0.5-0.2,0.5-0.7S59.1-309.8,58.8-309.8z M62.6-308.4
		c-0.5,0-0.7,0.3-0.7,0.8s0.2,0.8,0.7,0.8c0.5,0,0.7-0.3,0.7-0.8S63.1-308.4,62.6-308.4z M64.4-302.8c-0.5,0-0.7,0.3-0.7,0.9
		c0,0.6,0.2,0.9,0.7,0.9c0.4,0,0.5-0.3,0.5-0.9C64.9-302.5,64.7-302.8,64.4-302.8z M76.7-362.8c-0.5,0-0.7,0.3-0.7,0.9
		c0,0.6,0.2,0.9,0.7,0.9s0.7-0.3,0.7-0.9C77.4-362.5,77.1-362.8,76.7-362.8z M83.3-352.2c0.5,0.4,1,1,1.5,1.9s1,1.9,1.4,2.9
		s0.7,2,1,3c0.2,1,0.4,1.8,0.4,2.4c0,0.1-0.1,0.3-0.4,0.5c-0.3,0.2-0.6,0.4-0.8,0.4c-0.6-1.3-1.2-2.8-1.9-4.5s-1.1-3.4-1.1-5V-352.2
		z M89.8-328.7c-0.2,0-0.4,0.2-0.4,0.7c0,0.5,0.1,0.7,0.4,0.7c0.4,0,0.5-0.2,0.5-0.7C90.4-328.5,90.2-328.7,89.8-328.7z M90.9-242.2
		c-0.6,0-0.9,0.3-0.9,0.9c0,0.6,0.3,0.9,0.9,0.9c0.2,0,0.4-0.3,0.4-0.9C91.2-241.9,91.1-242.2,90.9-242.2z M91.4-238.7
		c-0.2,0-0.4,0.3-0.4,0.9c0,0.6,0.1,0.9,0.4,0.9c0.4,0,0.5-0.3,0.5-0.9C91.9-238.4,91.8-238.7,91.4-238.7z M93.2-323.8
		c-0.5,0-0.7,0.2-0.7,0.7s0.2,0.7,0.7,0.7s0.7-0.2,0.7-0.7S93.7-323.8,93.2-323.8z"/>
	<path id="XMLID_291_" class="st0" d="M150.5-231.9c-0.5-0.2-1.1-0.5-1.8-0.9c-0.8-0.3-1.3-0.5-1.5-0.5l-0.9,0.8
		c-0.1,0-0.3,0-0.4,0.1c-0.2,0.1-0.4,0.1-0.6,0.1l-0.7,0.1l0.2-1.6c-0.2-0.1-0.6-0.1-1.1,0c-0.5,0.1-0.9,0-1.1-0.2
		c-0.2,0-0.5-0.1-0.7-0.4c-0.1-0.1-0.2-0.3-0.4-0.6l-0.5-0.2L134-240l-0.7-0.2c-2.7-1.2-5.3-2.6-7.9-4.3c-2.6-1.7-4.8-3.7-6.7-6.1
		c-0.1-0.2-0.2-0.5-0.2-0.7s0-0.4-0.1-0.6s0-0.4,0.1-0.6c-0.2-0.2-0.7-0.7-1.3-1.3c-0.6-0.6-1.1-1.1-1.3-1.3l1.2-0.5
		c-0.9,0.2-1.6-0.3-2.1-1.5c-0.5-1.2-0.8-2.7-1.1-4.3c-0.3-1.6-0.5-3.2-0.6-4.8s-0.2-2.6-0.4-3.1c-0.5-2.6-0.9-5.4-1.2-8.5
		c-0.4-3.1-0.4-6.2-0.2-9.2c0.2-3,0.8-5.9,1.8-8.6c1-2.7,2.7-4.9,5-6.7c0.5-1.1,1.2-2.2,2.2-3.3c1-1.2,2-2.3,2.9-3.4
		c0.9-1.1,1.8-2.2,2.5-3.2c0.8-1,1.2-1.9,1.3-2.7c0.1-0.2,0-0.5-0.3-0.7s-0.6-0.4-0.8-0.5c2.3-0.8,4.2-2,5.6-3.4
		c1.4-1.5,3-2.8,4.9-4.1l-1.9-0.2c0.1-0.6,0.6-1.3,1.4-2c0.8-0.8,1.8-1.5,2.8-2.2c1.1-0.7,2.1-1.3,3.1-1.7c1-0.4,1.7-0.6,2.2-0.4
		l0.5,1.2h0.7h0.4c0.2,0.1,0.7,0,1.3-0.4c0.6-0.4,1.1-0.7,1.3-1c0,0.1,0.1,0.1,0.4-0.2c0.1-0.1,0.2-0.2,0.4-0.2l-1.1-1.4
		c0.2-0.2,0.8-0.4,1.6-0.6c0.8-0.2,1.4-0.4,1.8-0.6h0.7h0.4l-1.4,1.8c1.6-1.6,3.3-2.5,5-2.7c1.7-0.2,3.5-0.4,5.5-0.6
		c0.6-0.1,1.5-0.3,2.6-0.4c1.2-0.2,2.3-0.4,3.5-0.6c1.2-0.2,2.2-0.4,3.2-0.6c0.9-0.2,1.5-0.3,1.8-0.3h0.5c0.2,0,0.4,0,0.4,0.1
		c0.1,0.1,0.2,0.1,0.4,0.1c2,0.2,4,0.6,6.1,1.1c2.1,0.5,4.2,1.1,6.1,1.7c0.5,0.1,1.1,0.5,1.8,1.1c0.7,0.6,1.3,1,1.9,1.1
		c0.6,0.1,0.9-0.1,1.1-0.5c0.1-0.5,0.2-0.9,0.4-1.2c0.4-2.1,0.4-4.7,0.2-7.9s-0.5-6.4-0.9-9.8s-0.7-6.6-1.1-9.7
		c-0.4-3.1-0.6-5.6-0.6-7.6c-0.1-0.9-0.2-2.5-0.3-4.7c-0.1-2.2-0.1-4.6-0.2-7.1c-0.1-2.5-0.1-4.9-0.2-7.1c-0.1-2.2-0.1-3.9-0.1-4.9
		v-1.1c0-0.2,0-0.4,0.1-0.6c0-0.2,0.1-0.3,0.1-0.4c0.2-1.8,0.7-3.2,1.4-4.5c0.7-1.2,1.5-2.7,2.5-4.3c1.6,0.1,2.9,0,3.9-0.3
		c0.9-0.3,1.8-0.6,2.7-1c0.9-0.4,1.9-0.6,3.1-0.9c1.2-0.2,2.9-0.2,5.3,0.2c0.6,0.1,1.6,0.3,3.1,0.4c1.5,0.2,2.4,0.3,2.7,0.4
		c0.7,1.1,1.6,1.8,2.6,2.4c1.1,0.5,2.1,1,3.2,1.4c1.1,0.4,2.1,0.9,3,1.4s1.6,1.3,1.9,2.2c1.3,5.8,1.9,11.8,1.8,18
		s-0.1,12.2,0.2,18.2c0.2,0.1,0.4,0.5,0.7,1.1c0.2,0.6,0.3,1.1,0.2,1.3c0,0.9,0.1,2.6,0.3,5.1c0.2,2.5,0.4,5.1,0.6,7.9
		c0.2,2.8,0.5,5.5,0.7,8c0.2,2.5,0.4,4.3,0.5,5.4c0.7,1.1,1.1,2.2,1.2,3.5c0.1,1.3,0.1,2.6,0,4c-0.1,1.4-0.1,2.8-0.3,4.1
		c-0.1,1.3-0.1,2.6,0.2,3.8v51.6c-0.5,1.6-0.4,3.2,0.1,4.7c0.5,1.5,0.7,3,0.4,4.6c-0.2,0.9-0.5,1.5-0.9,1.8
		c-0.4,0.2-0.6,0.8-0.7,1.8s0,2.1,0.4,3.4s0.8,2.6,1.2,3.9s0.9,2.3,1.3,3.2c0.4,0.9,0.6,1.4,0.6,1.5c-0.1,0.9-0.4,1.6-0.9,1.8
		c-0.5,0.3-1.1,0.7-1.9,1.3c0.2,0.1,0.6,0.6,1.1,1.6c0.5,0.9,0.8,1.5,0.9,1.8v0.5c-0.6,0-1,0.2-1.3,0.5c-0.3,0.3-0.6,0.8-0.8,1.3
		c-0.2,0.5-0.4,1.1-0.5,1.6s-0.2,0.9-0.2,1.1c-0.7-0.1-1.2-0.4-1.5-0.7c-0.3-0.4-0.6-0.7-0.9-1.2c-0.3-0.4-0.6-0.8-0.9-1.2
		c-0.3-0.4-0.7-0.6-1.3-0.7h-0.5c-0.1,0.1-0.2,0.3-0.4,0.5s-0.2,0.4-0.4,0.6c-0.1,0.2-0.2,0.3-0.2,0.4c0-0.7-0.2-1.3-0.7-1.9
		c-0.5-0.6-1-1.2-1.5-1.8c-0.5-0.6-0.9-1.2-1.2-1.7c-0.3-0.5-0.2-1.1,0.3-1.7l-1.8,0.9v1.6c0,1.1,0.1,1.9,0.2,2.4
		c0.1,0.1,0.2,0.3,0.2,0.4c0,0.2,0.1,0.4,0.2,0.6l0.4,0.7c-1.2,1.7-2.5,2.4-4,2.1c-2-0.4-3.3-1.6-3.9-3.9c-0.2,0-0.6,0.1-1,0.4
		c-0.4,0.3-0.7,0.3-1,0c-0.2,0-0.5-0.4-0.7-1.2c-0.2-0.8-0.5-1.3-0.7-1.4c0-0.2-0.1-0.4-0.2-0.5c-0.1-0.1-0.2-0.2-0.4-0.2
		c-0.1-0.1-0.6-0.1-1.4,0.1c-0.8,0.2-1.3,0.2-1.4,0.1h-0.5c-0.4,0-0.8-0.4-1.2-1.1c-0.5-0.8-0.9-1.6-1.2-2.6c-0.4-1-0.6-1.9-0.9-2.8
		c-0.2-0.9-0.4-1.5-0.4-1.8c-1.2-0.1-2.2-1-3-2.7c-0.8-1.7-1.4-3.6-1.8-5.8c-0.4-2.2-0.6-4.3-0.6-6.4s0.2-3.7,0.5-4.7
		c-1.4,0.7-2.7,1.7-4,3c-1.2,1.3-2.5,2.6-3.7,4c-1.2,1.4-2.5,2.8-3.8,4.1s-2.7,2.5-4.2,3.4c0,0.2,0.1,0.5,0.3,0.7
		c0.2,0.2,0.4,0.4,0.6,0.4l0.7-0.4c0.2-0.1,0.4-0.2,0.6-0.2s0.4-0.1,0.6-0.2c0.1-0.2,0.6-0.7,1.6-1.4c0.9-0.7,1.5-1.2,1.8-1.4
		l-0.2,1.8c-0.1,0.2-0.9,0.8-2.3,1.8c-1.4,1-2.5,1.8-3.2,2.4c-1.1,0.6-2.2,1-3.3,1.3s-2.4,0.6-3.6,1c-1.2,0.4-2.4,0.8-3.4,1.3
		c-1.1,0.5-2,1.2-2.8,2c0.6-0.2,1.2-0.4,1.9-0.5c0.7-0.1,1.5-0.3,2.5-0.5l-0.2,0.7c-0.1,0.8-0.5,1.3-1.2,1.6
		c-0.7,0.2-1.5,0.4-2.3,0.5s-1.6,0.3-2.4,0.5c-0.8,0.2-1.2,0.8-1.3,1.6l1.4,0.2c0.4,0,1.2-0.2,2.6-0.5c1.4-0.4,2.9-0.7,4.4-1.1
		c1.5-0.4,3-0.8,4.3-1.3c1.3-0.5,2.2-0.8,2.5-0.9l-2.3-0.4c0-0.2,0.1-0.4,0.4-0.4s0.4-0.2,0.4-0.4c0.5-0.2,1.5-0.8,3.2-1.8
		s3.5-2.1,5.4-3.2c1.9-1.2,3.5-2.2,5-3.1c1.5-0.9,2.3-1.3,2.4-1.3c-0.1,0.7-0.5,1.5-1.1,2.3c-0.6,0.8-1.2,1.6-1.9,2.5
		c-0.7,0.8-1.4,1.6-2.1,2.2c-0.7,0.6-1.2,1.1-1.4,1.3c-1.3,0-2.3,0.3-3,0.8c-0.7,0.5-1.3,1.1-1.8,1.8c-0.5,0.6-0.9,1.2-1.3,1.8
		c-0.4,0.5-0.9,0.7-1.5,0.6l0.2-0.9c-0.9-0.1-1.7,0.1-2.2,0.5c-0.5,0.5-1,1-1.3,1.5c-0.4,0.5-0.7,1-1.1,1.5s-1,0.6-1.7,0.5
		c-0.2,0-0.5,0-0.8-0.1c-0.3-0.1-0.6-0.3-0.8-0.7c-0.4,0.7-0.8,1.1-1.5,1.3c-0.6,0.2-1.3,0.3-1.9,0.4c-0.6,0.1-1.2,0.3-1.8,0.5
		s-0.8,0.8-1,1.6c0-0.1-0.2-0.5-0.6-1.1c-0.4-0.6-0.7-0.9-1-0.9c-0.5-0.1-0.9,0-1.3,0.3c-0.4,0.3-0.9,0.7-1.4,1.1
		c-0.5,0.4-1.1,0.7-1.8,1c-0.6,0.3-1.5,0.3-2.5,0.1c0-0.6-0.2-0.9-0.6-1.1c-0.4-0.1-0.8-0.2-1.1-0.4c-0.6-0.1-1.1-0.1-1.7-0.1
		c-0.5,0.1-0.7,0.6-0.6,1.6l-0.9-0.7c-0.7,0.5-1.2,0.6-1.4,0.4h-1.1L150.5-231.9z M113.3-286.4c-0.6-0.1-0.9,0.1-1.1,0.7
		s0.1,0.9,0.7,1.1c0.2,0.1,0.4-0.1,0.5-0.7C113.6-286,113.6-286.3,113.3-286.4z M113.2-281.7c-0.2,0-0.4,0.1-0.4,0.4
		c-0.1,0.3,0,0.4,0.3,0.4C113.3-280.8,113.4-281.1,113.2-281.7z M113.9-275.7c-0.5,0-0.7,0.3-0.8,0.9s0.1,0.9,0.6,0.9
		c0.4,0.1,0.6-0.1,0.7-0.7S114.3-275.6,113.9-275.7z M113.5-279.8c-0.1-0.1-0.2,0.2-0.4,0.9c-0.1,0.7-0.1,0.9,0.2,0.7
		c0.4-0.1,0.6-0.4,0.6-0.7S113.9-279.5,113.5-279.8z M114.2-272.1c-0.2-0.2-0.4-0.1-0.4,0.4c-0.1,0.5,0,0.6,0.3,0.4
		c0.4,0,0.6-0.1,0.6-0.3C114.7-271.8,114.6-271.9,114.2-272.1z M114.8-269.1c-0.4,0-0.6,0.2-0.6,0.6c-0.1,0.4,0.1,0.6,0.4,0.6
		C114.9-268.1,115-268.5,114.8-269.1z M141.8-327.8c-0.5-0.1-0.7,0.1-0.8,0.6s0.1,0.8,0.4,1c0.2,0,0.4-0.3,0.5-0.8
		C142.1-327.6,142-327.8,141.8-327.8z M143.2-235.2c-0.2,0-0.4,0.2-0.4,0.6s0,0.6,0.3,0.6c0.4,0.1,0.6,0,0.6-0.4
		C143.7-234.8,143.5-235.1,143.2-235.2z M147.7-261.2c1.5,1.9,2.7,3.4,3.7,4.7c0.9,1.2,2.4,2,4.4,2.2c0.7,0.2,1.3,0.4,1.9,0.4
		l11.4-3.5h0.7c0.8-0.7,1.6-1.3,2.5-1.9c0.7-0.6,1.4-1.1,2.1-1.6c0.7-0.5,1.3-0.9,1.8-1.4c0.2-0.1,0.7-0.4,1.4-1
		c0.7-0.5,1.4-1.1,2.2-1.8c0.8-0.6,1.4-1.2,2-1.8c0.6-0.5,1-0.8,1.2-1l0.9-0.9c0.2-0.1,0.4-0.3,0.6-0.6s0.4-0.5,0.6-0.6l0.5,0.7v0.4
		v0.5c-0.2,0.2-0.5,0.5-0.9,0.7c-0.6,0.4-1,0.5-1.2,0.5v0.7c0.2,0,0.9,0.1,2,0.4s1.8,0.4,2,0.4c0.1,0.1,0.6,0.4,1.6,0.9
		c0.9,0.5,1.5,0.6,1.8,0.4c0.8-0.2,1.5-1.1,2-2.5c0.5-1.4,0.9-2.6,1.1-3.5c0-0.4,0.1-0.8,0.3-1.3s0-0.9-0.6-1.1l1.2-8.4l-0.5-24.9
		c0-2.3-0.1-4.1-0.3-5.2c-0.2-1.1-1.3-1.8-3.3-2.2c-8.2-1.6-15.6-1.1-22.4,1.5c-6.7,2.6-12.2,6.6-16.3,11.8
		c-4.2,5.3-6.7,11.4-7.7,18.3S144.4-268.1,147.7-261.2z M162.1-238.5c-0.2,0-0.4,0.1-0.6,0.4c-0.2,0.3-0.4,0.4-0.6,0.3l1.9-0.5h-0.2
		L162.1-238.5z M172.8-238.5c0.5,0.1,0.6,0.4,0.5,1s-0.4,0.7-0.7,0.6s-0.5-0.4-0.4-1C172.3-238.4,172.5-238.7,172.8-238.5z
		 M181.1-254.9c-0.2-0.4-0.5-0.4-0.9-0.1c-0.4,0.3-0.4,0.6-0.2,0.8c0.2,0.2,0.5,0.2,0.9,0C181.3-254.4,181.3-254.6,181.1-254.9z
		 M182.3-258c-0.4,0-0.6,0.3-0.6,0.9s0.1,0.9,0.4,0.9c0.5,0.1,0.8-0.1,0.9-0.7S182.9-257.9,182.3-258z M182.5-264.7
		c-0.2-0.1-0.4,0-0.4,0.4c-0.1,0.4,0.1,0.5,0.4,0.3c0.2,0.1,0.4,0.1,0.4-0.2S182.7-264.6,182.5-264.7z M182.8-261.3
		c-0.4-0.1-0.6,0.1-0.7,0.7s0,0.9,0.4,1.1c0.6,0,0.9-0.3,1.1-0.8C183.6-260.9,183.4-261.2,182.8-261.3z M184.1-258.4
		c-0.4-0.1-0.6,0-0.6,0.4c-0.1,0.4,0.1,0.7,0.4,0.8c0.6,0.1,0.9,0,1-0.4C184.9-258,184.6-258.2,184.1-258.4z M184.9-264.3
		c-0.4,0-0.6,0.2-0.6,0.7s0.1,0.7,0.4,0.7c0.6,0.1,0.9-0.1,1-0.5S185.5-264.2,184.9-264.3z M185.8-245c-0.6-0.1-0.9,0.1-1.1,0.7
		c-0.1,0.6,0.1,0.9,0.7,1.1c0.2,0,0.4-0.3,0.5-0.9C186.1-244.7,186-245,185.8-245z M185.3-259.2l0.9-0.7h-0.7L185.3-259.2z
		 M188.1-261.3c-0.6-0.1-0.9,0.1-1,0.7s0.2,0.9,0.8,1.1c0.2,0,0.4-0.3,0.4-0.9C188.4-261.1,188.3-261.3,188.1-261.3z M187.4-328.7
		c0.4,0.9,1,1.6,2,1.8s2,0.5,2.9,0.6c0.2-1.2,0-1.8-0.7-1.8c-0.7-0.1-1.3-0.1-1.9-0.3C189-328.6,188.2-328.7,187.4-328.7z
		 M189-263.6c-0.2-0.1-0.4,0.1-0.4,0.5s0,0.7,0.3,0.7c0.5,0.1,0.7-0.1,0.8-0.5C189.6-263.4,189.4-263.6,189-263.6z M192.1-262.6
		c0.4,0.1,0.5,0.5,0.4,1.1s-0.3,0.8-0.6,0.7c-0.5-0.1-0.7-0.5-0.6-1.1S191.7-262.7,192.1-262.6z M192.1-332.4
		c-0.4,0-0.6,0.3-0.6,0.9s0.1,0.9,0.4,0.9c0.4,0.1,0.6-0.1,0.6-0.7S192.5-332.3,192.1-332.4z M204.4-237.7c-0.2,0-0.4,0.2-0.4,0.5
		s0,0.5,0.3,0.5C205.1-236.4,205.1-236.7,204.4-237.7z M206-238c-0.4-0.1-0.6,0.1-0.6,0.7c-0.1,0.6,0.1,0.9,0.4,1.1
		c0.6,0.1,0.9-0.1,1-0.7C206.8-237.5,206.6-237.9,206-238z M216.3-234.1c-0.4,0-0.6,0.3-0.7,0.8s0,0.8,0.4,0.8
		c0.6,0.1,0.9-0.1,1.1-0.7C217.2-233.6,216.9-234,216.3-234.1z M220.4-237.8c-0.5,0-0.7,0.3-0.8,0.9s0.1,0.9,0.4,0.9
		c0.4,0.1,0.6-0.1,0.7-0.7C220.8-237.4,220.7-237.7,220.4-237.8z M221.6-253.1c-0.5,0-0.7,0.2-0.8,0.6s0.1,0.6,0.6,0.6
		c0.5,0.1,0.7,0,0.8-0.4C222.3-252.7,222.1-253,221.6-253.1z M227.4-235.1c-0.6-0.1-0.9,0.1-1,0.7s0.2,1,0.8,1.1
		c0.4,0.1,0.6-0.1,0.6-0.7S227.7-234.9,227.4-235.1z M228.3-236.7c-0.4-0.1-0.6,0.1-0.6,0.7c-0.1,0.6,0.1,0.9,0.4,1.1
		c0.6,0.1,0.9-0.1,1-0.7S228.9-236.6,228.3-236.7z M227.9-258.2c-0.2,0.9,0.1,1.5,0.9,1.6v-0.4v-0.4c0-0.1-0.1-0.4-0.2-0.8
		s-0.1-0.7,0-1c-0.1,0.2-0.3,0.4-0.4,0.5S227.9-258.3,227.9-258.2z"/>
	<path id="XMLID_257_" class="st0" d="M281-231.9c-0.5-0.2-1.1-0.5-1.8-0.9c-0.8-0.3-1.3-0.5-1.5-0.5l-0.9,0.8c-0.1,0-0.3,0-0.4,0.1
		c-0.2,0.1-0.4,0.1-0.6,0.1l-0.7,0.1l0.2-1.6c-0.2-0.1-0.6-0.1-1.1,0c-0.5,0.1-0.9,0-1.1-0.2c-0.2,0-0.5-0.1-0.7-0.4
		c-0.1-0.1-0.2-0.3-0.4-0.6l-0.5-0.2l-6.8-4.9l-0.7-0.2c-2.7-1.2-5.3-2.6-7.9-4.3c-2.6-1.7-4.8-3.7-6.7-6.1
		c-0.1-0.2-0.2-0.5-0.2-0.7s0-0.4-0.1-0.6s0-0.4,0.1-0.6c-0.2-0.2-0.7-0.7-1.3-1.3c-0.6-0.6-1.1-1.1-1.3-1.3l1.2-0.5
		c-0.9,0.2-1.6-0.3-2.1-1.5s-0.8-2.7-1.1-4.3c-0.3-1.6-0.5-3.2-0.6-4.8s-0.2-2.6-0.4-3.1c-0.5-2.6-0.9-5.4-1.2-8.5
		c-0.4-3.1-0.4-6.2-0.2-9.2c0.2-3,0.8-5.9,1.8-8.6c1-2.7,2.7-4.9,5-6.7c0.5-1.1,1.2-2.2,2.2-3.3c1-1.2,2-2.3,2.9-3.4
		s1.8-2.2,2.5-3.2s1.2-1.9,1.3-2.7c0.1-0.2,0-0.5-0.3-0.7c-0.3-0.2-0.6-0.4-0.8-0.5c2.3-0.8,4.2-2,5.6-3.4c1.4-1.5,3-2.8,4.9-4.1
		l-1.9-0.2c0.1-0.6,0.6-1.3,1.4-2c0.8-0.8,1.8-1.5,2.8-2.2c1.1-0.7,2.1-1.3,3.1-1.7c1-0.4,1.7-0.6,2.2-0.4l0.5,1.2h0.7h0.4
		c0.2,0.1,0.7,0,1.3-0.4c0.6-0.4,1.1-0.7,1.3-1c0,0.1,0.1,0.1,0.4-0.2c0.1-0.1,0.2-0.2,0.4-0.2l-1.1-1.4c0.2-0.2,0.8-0.4,1.6-0.6
		s1.4-0.4,1.8-0.6h0.7h0.4l-1.4,1.8c1.6-1.6,3.3-2.5,5-2.7s3.5-0.4,5.5-0.6c0.6-0.1,1.5-0.3,2.6-0.4c1.2-0.2,2.3-0.4,3.5-0.6
		c1.2-0.2,2.2-0.4,3.2-0.6c0.9-0.2,1.5-0.3,1.8-0.3h0.5c0.2,0,0.4,0,0.4,0.1c0.1,0.1,0.2,0.1,0.4,0.1c2,0.2,4,0.6,6.1,1.1
		s4.2,1.1,6.1,1.7c0.5,0.1,1.1,0.5,1.8,1.1c0.7,0.6,1.3,1,1.9,1.1c0.6,0.1,0.9-0.1,1.1-0.5s0.2-0.9,0.4-1.2c0.4-2.1,0.4-4.7,0.2-7.9
		s-0.5-6.4-0.9-9.8s-0.7-6.6-1.1-9.7c-0.4-3.1-0.6-5.6-0.6-7.6c-0.1-0.9-0.2-2.5-0.3-4.7c-0.1-2.2-0.1-4.6-0.2-7.1
		c-0.1-2.5-0.1-4.9-0.2-7.1c-0.1-2.2-0.1-3.9-0.1-4.9v-1.1c0-0.2,0-0.4,0.1-0.6c0-0.2,0.1-0.3,0.1-0.4c0.2-1.8,0.7-3.2,1.4-4.5
		c0.7-1.2,1.5-2.7,2.5-4.3c1.6,0.1,2.9,0,3.9-0.3c0.9-0.3,1.8-0.6,2.7-1s1.9-0.6,3.1-0.9c1.2-0.2,2.9-0.2,5.3,0.2
		c0.6,0.1,1.6,0.3,3.1,0.4c1.5,0.2,2.4,0.3,2.7,0.4c0.7,1.1,1.6,1.8,2.6,2.4c1.1,0.5,2.1,1,3.2,1.4c1.1,0.4,2.1,0.9,3,1.4
		c0.9,0.5,1.6,1.3,1.9,2.2c1.3,5.8,1.9,11.8,1.8,18s-0.1,12.2,0.2,18.2c0.2,0.1,0.4,0.5,0.7,1.1s0.3,1.1,0.2,1.3
		c0,0.9,0.1,2.6,0.3,5.1c0.2,2.5,0.4,5.1,0.6,7.9c0.2,2.8,0.5,5.5,0.7,8c0.2,2.5,0.4,4.3,0.5,5.4c0.7,1.1,1.1,2.2,1.2,3.5
		c0.1,1.3,0.1,2.6,0,4c-0.1,1.4-0.1,2.8-0.3,4.1c-0.1,1.3-0.1,2.6,0.2,3.8v51.6c-0.5,1.6-0.4,3.2,0.1,4.7s0.7,3,0.4,4.6
		c-0.2,0.9-0.5,1.5-0.9,1.8c-0.4,0.2-0.6,0.8-0.7,1.8s0,2.1,0.4,3.4c0.4,1.3,0.8,2.6,1.2,3.9c0.5,1.2,0.9,2.3,1.3,3.2
		c0.4,0.9,0.6,1.4,0.6,1.5c-0.1,0.9-0.4,1.6-0.9,1.8c-0.5,0.3-1.1,0.7-1.9,1.3c0.2,0.1,0.6,0.6,1.1,1.6c0.5,0.9,0.8,1.5,0.9,1.8v0.5
		c-0.6,0-1,0.2-1.3,0.5c-0.3,0.3-0.6,0.8-0.8,1.3c-0.2,0.5-0.4,1.1-0.5,1.6s-0.2,0.9-0.2,1.1c-0.7-0.1-1.2-0.4-1.5-0.7
		c-0.3-0.4-0.6-0.7-0.9-1.2c-0.3-0.4-0.6-0.8-0.9-1.2c-0.3-0.4-0.7-0.6-1.3-0.7h-0.5c-0.1,0.1-0.2,0.3-0.4,0.5s-0.2,0.4-0.4,0.6
		c-0.1,0.2-0.2,0.3-0.2,0.4c0-0.7-0.2-1.3-0.7-1.9c-0.5-0.6-1-1.2-1.5-1.8c-0.5-0.6-0.9-1.2-1.2-1.7c-0.3-0.5-0.2-1.1,0.3-1.7
		l-1.8,0.9v1.6c0,1.1,0.1,1.9,0.2,2.4c0.1,0.1,0.2,0.3,0.2,0.4c0,0.2,0.1,0.4,0.2,0.6l0.4,0.7c-1.2,1.7-2.5,2.4-4,2.1
		c-2-0.4-3.3-1.6-3.9-3.9c-0.2,0-0.6,0.1-1,0.4c-0.4,0.3-0.7,0.3-1,0c-0.2,0-0.5-0.4-0.7-1.2c-0.2-0.8-0.5-1.3-0.7-1.4
		c0-0.2-0.1-0.4-0.2-0.5c-0.1-0.1-0.2-0.2-0.4-0.2c-0.1-0.1-0.6-0.1-1.4,0.1c-0.8,0.2-1.3,0.2-1.4,0.1h-0.5c-0.4,0-0.8-0.4-1.2-1.1
		c-0.5-0.8-0.9-1.6-1.2-2.6c-0.4-1-0.6-1.9-0.9-2.8c-0.2-0.9-0.4-1.5-0.4-1.8c-1.2-0.1-2.2-1-3-2.7c-0.8-1.7-1.4-3.6-1.8-5.8
		c-0.4-2.2-0.6-4.3-0.6-6.4s0.2-3.7,0.5-4.7c-1.4,0.7-2.7,1.7-4,3c-1.2,1.3-2.5,2.6-3.7,4c-1.2,1.4-2.5,2.8-3.8,4.1
		c-1.3,1.3-2.7,2.5-4.2,3.4c0,0.2,0.1,0.5,0.3,0.7c0.2,0.2,0.4,0.4,0.6,0.4l0.7-0.4c0.2-0.1,0.4-0.2,0.6-0.2c0.2,0,0.4-0.1,0.6-0.2
		c0.1-0.2,0.6-0.7,1.6-1.4c0.9-0.7,1.5-1.2,1.8-1.4l-0.2,1.8c-0.1,0.2-0.9,0.8-2.3,1.8c-1.4,1-2.5,1.8-3.2,2.4
		c-1.1,0.6-2.2,1-3.3,1.3c-1.2,0.3-2.4,0.6-3.6,1c-1.2,0.4-2.4,0.8-3.4,1.3c-1.1,0.5-2,1.2-2.8,2c0.6-0.2,1.2-0.4,1.9-0.5
		c0.7-0.1,1.5-0.3,2.5-0.5l-0.2,0.7c-0.1,0.8-0.5,1.3-1.2,1.6c-0.7,0.2-1.5,0.4-2.3,0.5c-0.8,0.1-1.6,0.3-2.4,0.5
		c-0.8,0.2-1.2,0.8-1.3,1.6l1.4,0.2c0.4,0,1.2-0.2,2.6-0.5c1.4-0.4,2.9-0.7,4.4-1.1c1.5-0.4,3-0.8,4.3-1.3c1.3-0.5,2.2-0.8,2.5-0.9
		l-2.3-0.4c0-0.2,0.1-0.4,0.4-0.4s0.4-0.2,0.4-0.4c0.5-0.2,1.5-0.8,3.2-1.8s3.5-2.1,5.4-3.2s3.5-2.2,5-3.1c1.5-0.9,2.3-1.3,2.4-1.3
		c-0.1,0.7-0.5,1.5-1.1,2.3c-0.6,0.8-1.2,1.6-1.9,2.5c-0.7,0.8-1.4,1.6-2.1,2.2c-0.7,0.6-1.2,1.1-1.4,1.3c-1.3,0-2.3,0.3-3,0.8
		c-0.7,0.5-1.3,1.1-1.8,1.8c-0.5,0.6-0.9,1.2-1.3,1.8c-0.4,0.5-0.9,0.7-1.5,0.6l0.2-0.9c-0.9-0.1-1.7,0.1-2.2,0.5
		c-0.5,0.5-1,1-1.3,1.5s-0.7,1-1.1,1.5c-0.4,0.5-1,0.6-1.7,0.5c-0.2,0-0.5,0-0.8-0.1c-0.3-0.1-0.6-0.3-0.8-0.7
		c-0.4,0.7-0.8,1.1-1.5,1.3c-0.6,0.2-1.3,0.3-1.9,0.4c-0.6,0.1-1.2,0.3-1.8,0.5c-0.5,0.2-0.8,0.8-1,1.6c0-0.1-0.2-0.5-0.6-1.1
		c-0.4-0.6-0.7-0.9-1-0.9c-0.5-0.1-0.9,0-1.3,0.3c-0.4,0.3-0.9,0.7-1.4,1.1c-0.5,0.4-1.1,0.7-1.8,1c-0.6,0.3-1.5,0.3-2.5,0.1
		c0-0.6-0.2-0.9-0.6-1.1c-0.4-0.1-0.8-0.2-1.1-0.4c-0.6-0.1-1.1-0.1-1.7-0.1c-0.5,0.1-0.7,0.6-0.6,1.6l-0.9-0.7
		c-0.7,0.5-1.2,0.6-1.4,0.4H280L281-231.9z M243.9-286.4c-0.6-0.1-0.9,0.1-1.1,0.7s0.1,0.9,0.7,1.1c0.2,0.1,0.4-0.1,0.5-0.7
		C244.2-286,244.1-286.3,243.9-286.4z M243.7-281.7c-0.2,0-0.4,0.1-0.4,0.4c-0.1,0.3,0,0.4,0.3,0.4
		C243.9-280.8,243.9-281.1,243.7-281.7z M244.4-275.7c-0.5,0-0.7,0.3-0.8,0.9s0.1,0.9,0.6,0.9c0.4,0.1,0.6-0.1,0.7-0.7
		S244.9-275.6,244.4-275.7z M244.1-279.8c-0.1-0.1-0.2,0.2-0.4,0.9c-0.1,0.7-0.1,0.9,0.2,0.7c0.4-0.1,0.6-0.4,0.6-0.7
		S244.4-279.5,244.1-279.8z M244.8-272.1c-0.2-0.2-0.4-0.1-0.4,0.4c-0.1,0.5,0,0.6,0.3,0.4c0.4,0,0.6-0.1,0.6-0.3
		C245.3-271.8,245.1-271.9,244.8-272.1z M245.3-269.1c-0.4,0-0.6,0.2-0.6,0.6c-0.1,0.4,0.1,0.6,0.4,0.6
		C245.5-268.1,245.5-268.5,245.3-269.1z M272.3-327.8c-0.5-0.1-0.7,0.1-0.8,0.6c-0.1,0.5,0.1,0.8,0.4,1c0.2,0,0.4-0.3,0.5-0.8
		C272.6-327.6,272.6-327.8,272.3-327.8z M273.7-235.2c-0.2,0-0.4,0.2-0.4,0.6c-0.1,0.4,0,0.6,0.3,0.6c0.4,0.1,0.6,0,0.6-0.4
		C274.2-234.8,274.1-235.1,273.7-235.2z M278.2-261.2c1.5,1.9,2.7,3.4,3.7,4.7s2.4,2,4.4,2.2c0.7,0.2,1.3,0.4,1.9,0.4l11.4-3.5h0.7
		c0.8-0.7,1.6-1.3,2.5-1.9c0.7-0.6,1.4-1.1,2.1-1.6s1.3-0.9,1.8-1.4c0.2-0.1,0.7-0.4,1.4-1s1.4-1.1,2.2-1.8c0.8-0.6,1.4-1.2,2-1.8
		c0.6-0.5,1-0.8,1.2-1l0.9-0.9c0.2-0.1,0.4-0.3,0.6-0.6c0.2-0.3,0.4-0.5,0.6-0.6l0.5,0.7v0.4v0.5c-0.2,0.2-0.5,0.5-0.9,0.7
		c-0.6,0.4-1,0.5-1.2,0.5v0.7c0.2,0,0.9,0.1,2,0.4s1.8,0.4,2,0.4c0.1,0.1,0.6,0.4,1.6,0.9c0.9,0.5,1.5,0.6,1.8,0.4
		c0.8-0.2,1.5-1.1,2-2.5c0.5-1.4,0.9-2.6,1.1-3.5c0-0.4,0.1-0.8,0.3-1.3s0-0.9-0.6-1.1l1.2-8.4l-0.5-24.9c0-2.3-0.1-4.1-0.3-5.2
		c-0.2-1.1-1.3-1.8-3.3-2.2c-8.2-1.6-15.6-1.1-22.4,1.5c-6.7,2.6-12.2,6.6-16.3,11.8c-4.2,5.3-6.7,11.4-7.7,18.3
		S275-268.1,278.2-261.2z M292.7-238.5c-0.2,0-0.4,0.1-0.6,0.4c-0.2,0.3-0.4,0.4-0.6,0.3l1.9-0.5h-0.2L292.7-238.5z M303.4-238.5
		c0.5,0.1,0.6,0.4,0.5,1s-0.4,0.7-0.7,0.6s-0.5-0.4-0.4-1C302.8-238.4,303-238.7,303.4-238.5z M311.6-254.9
		c-0.2-0.4-0.5-0.4-0.9-0.1c-0.4,0.3-0.4,0.6-0.2,0.8c0.2,0.2,0.5,0.2,0.9,0C311.8-254.4,311.9-254.6,311.6-254.9z M312.8-258
		c-0.4,0-0.6,0.3-0.6,0.9c-0.1,0.6,0.1,0.9,0.4,0.9c0.5,0.1,0.8-0.1,0.9-0.7S313.4-257.9,312.8-258z M313-264.7
		c-0.2-0.1-0.4,0-0.4,0.4c-0.1,0.4,0.1,0.5,0.4,0.3c0.2,0.1,0.4,0.1,0.4-0.2S313.3-264.6,313-264.7z M313.4-261.3
		c-0.4-0.1-0.6,0.1-0.7,0.7s0,0.9,0.4,1.1c0.6,0,0.9-0.3,1.1-0.8C314.2-260.9,314-261.2,313.4-261.3z M314.6-258.4
		c-0.4-0.1-0.6,0-0.6,0.4c-0.1,0.4,0.1,0.7,0.4,0.8c0.6,0.1,0.9,0,1-0.4C315.4-258,315.2-258.2,314.6-258.4z M315.5-264.3
		c-0.4,0-0.6,0.2-0.6,0.7c-0.1,0.5,0.1,0.7,0.4,0.7c0.6,0.1,0.9-0.1,1-0.5C316.3-263.9,316.1-264.2,315.5-264.3z M316.4-245
		c-0.6-0.1-0.9,0.1-1.1,0.7c-0.1,0.6,0.1,0.9,0.7,1.1c0.2,0,0.4-0.3,0.5-0.9C316.6-244.7,316.6-245,316.4-245z M315.8-259.2l0.9-0.7
		H316L315.8-259.2z M318.6-261.3c-0.6-0.1-0.9,0.1-1,0.7c-0.1,0.6,0.2,0.9,0.8,1.1c0.2,0,0.4-0.3,0.4-0.9
		C319-261.1,318.9-261.3,318.6-261.3z M317.9-328.7c0.4,0.9,1,1.6,2,1.8s2,0.5,2.9,0.6c0.2-1.2,0-1.8-0.7-1.8
		c-0.7-0.1-1.3-0.1-1.9-0.3C319.5-328.6,318.8-328.7,317.9-328.7z M319.5-263.6c-0.2-0.1-0.4,0.1-0.4,0.5c-0.1,0.5,0,0.7,0.3,0.7
		c0.5,0.1,0.7-0.1,0.8-0.5C320.2-263.4,320-263.6,319.5-263.6z M322.7-262.6c0.4,0.1,0.5,0.5,0.4,1.1c-0.1,0.6-0.3,0.8-0.6,0.7
		c-0.5-0.1-0.7-0.5-0.6-1.1C321.9-262.5,322.2-262.7,322.7-262.6z M322.7-332.4c-0.4,0-0.6,0.3-0.6,0.9c-0.1,0.6,0.1,0.9,0.4,0.9
		c0.4,0.1,0.6-0.1,0.6-0.7C323.2-331.9,323-332.3,322.7-332.4z M335-237.7c-0.2,0-0.4,0.2-0.4,0.5c-0.1,0.4,0,0.5,0.3,0.5
		C335.6-236.4,335.7-236.7,335-237.7z M336.5-238c-0.4-0.1-0.6,0.1-0.6,0.7c-0.1,0.6,0.1,0.9,0.4,1.1c0.6,0.1,0.9-0.1,1-0.7
		C337.4-237.5,337.1-237.9,336.5-238z M346.9-234.1c-0.4,0-0.6,0.3-0.7,0.8s0,0.8,0.4,0.8c0.6,0.1,0.9-0.1,1.1-0.7
		C347.7-233.6,347.5-234,346.9-234.1z M350.9-237.8c-0.5,0-0.7,0.3-0.8,0.9c-0.1,0.6,0.1,0.9,0.4,0.9c0.4,0.1,0.6-0.1,0.7-0.7
		C351.4-237.4,351.3-237.7,350.9-237.8z M352.2-253.1c-0.5,0-0.7,0.2-0.8,0.6c-0.1,0.4,0.1,0.6,0.6,0.6c0.5,0.1,0.7,0,0.8-0.4
		C352.8-252.7,352.6-253,352.2-253.1z M357.9-235.1c-0.6-0.1-0.9,0.1-1,0.7c-0.1,0.6,0.2,1,0.8,1.1c0.4,0.1,0.6-0.1,0.6-0.7
		C358.4-234.6,358.3-234.9,357.9-235.1z M358.8-236.7c-0.4-0.1-0.6,0.1-0.6,0.7c-0.1,0.6,0.1,0.9,0.4,1.1c0.6,0.1,0.9-0.1,1-0.7
		C359.7-236.2,359.4-236.6,358.8-236.7z M358.5-258.2c-0.2,0.9,0.1,1.5,0.9,1.6v-0.4v-0.4c0-0.1-0.1-0.4-0.2-0.8s-0.1-0.7,0-1
		c-0.1,0.2-0.3,0.4-0.4,0.5C358.6-258.4,358.5-258.3,358.5-258.2z"/>
	<path id="XMLID_237_" class="st1" d="M490.1-236.9c-0.1,0-0.6,0.1-1.3,0.4c-0.8,0.2-1.2,0.4-1.3,0.4c-0.1,0.1-0.4,0.2-1,0.4
		c-0.5,0.1-1.1,0.2-1.8,0.3c-0.7,0.1-1.4,0.1-2.1,0.2s-1.3,0.1-1.8,0.2h-0.4c-0.7,0-1.1-0.3-1.2-0.8s-0.3-1.1-0.6-1.8
		c-0.3-0.6-0.8-1.3-1.4-1.9c-0.6-0.6-1.8-1.1-3.6-1.3c-1.3-0.2-2.3-0.6-3-1.1c-0.7-0.5-1.4-1.3-2.1-2.2v-4.2c0-1.4,0.1-3.6,0.3-6.5
		c0.2-2.9,0.4-6.2,0.5-9.9c0.2-3.7,0.4-7.6,0.7-11.7c0.3-4.1,0.5-8,0.7-11.7c0.2-3.7,0.4-7,0.5-10c0.2-3,0.3-5.2,0.3-6.6
		c0-0.6,0-1.7-0.1-3.4c-0.1-1.7-0.1-2.8-0.1-3.2c-0.2-0.4-0.6-1.3-1-2.8c-0.4-1.5-0.6-2.6-0.6-3.2c0-0.1,0.1-0.5,0.3-1.1
		c0.2-0.6,0.3-1.1,0.4-1.3v-6.1c0-8.3-0.4-16.5-1.2-24.5s-1.1-16.2-0.9-24.5c0-2.6,0.1-5.6,0.4-9c0.2-3.4,0.8-6.6,1.8-9.7
		c0.9-3.1,2.4-5.7,4.5-7.9c2-2.2,4.9-3.2,8.7-3.2h17.5c0.8,0,1.8,0.6,3.1,1.7s2.1,2,2.7,2.5c0,0.4,0,1,0.1,1.8
		c0.1,0.9,0.1,1.8,0.2,2.7s0.1,1.9,0.2,2.8c0.1,0.9,0.1,1.6,0.1,1.9v3c1.6,0,3-0.5,4-1.4c1.1-0.9,2.3-1.9,3.7-2.8
		c1.6-0.9,3.5-1.5,5.6-1.8c2.1-0.3,4.1-0.4,6-0.4c2.2,0,4.3,0.2,6.2,0.7s3.8,0.8,5.7,1.1c3.2,0.4,5.6,0.8,7.5,1.4
		c1.8,0.6,3.4,1.4,4.7,2.5s2.5,2.5,3.6,4.2c1.1,1.7,2.5,3.8,4.3,6.4c0.4,0.6,0.8,1.1,1.2,1.6c0.5,0.5,0.9,1,1.4,1.5s0.9,1.1,1.2,1.7
		c0.4,0.6,0.5,1.3,0.5,2.1h-0.9c0,0.9,0.2,2.1,0.6,3.6s1,2.7,1.7,3.6c0,0.2,0.3,0.4,0.8,0.6c0.5,0.2,0.8,0.4,0.8,0.6
		c0.9,1.3,1.4,2.6,1.5,4c0.1,1.4,0.6,2.7,1.7,4c0,0.1-0.1,0.2-0.2,0.4c-0.2,0.2-0.4,0.4-0.5,0.4s-0.4-0.1-0.8-0.4s-0.7-0.4-0.8-0.4
		v0.4v0.4c0,0.2,0.1,0.7,0.4,1.4s0.6,1.5,1,2.4c0.4,0.9,0.7,1.7,1.1,2.5c0.4,0.8,0.6,1.5,0.9,1.9c0.6,1.3,1,2.5,1.2,3.8
		s0.8,2.5,1.8,3.8c0.2-0.2,0.4-0.4,0.6-0.5s0.4-0.2,0.6-0.4h0.2c2.4,0,4,0.4,5,1.2c1,0.8,1.5,2.3,1.5,4.4h5.6
		c-1.6,0.9-3.3,1.8-4.9,2.7c-1.7,0.9-2.5,2.2-2.5,3.9c0.8,0,1.5,0,1.9,0.1c0.5,0.1,0.9,0.1,1.2,0.1c0.4,0,0.7-0.1,1.1-0.2
		s1-0.4,1.8-0.7l1.2,1.8c-0.8-0.6-1.6-0.6-2.2-0.1s-1.3,1.3-1.8,2.2c-0.6,0.9-1.1,1.8-1.7,2.7c-0.5,0.9-1.1,1.3-1.7,1.3
		c0,1.6,0.1,3.2,0.3,4.7c0.2,1.5,0.3,3.1,0.3,4.7c0,0.5,0,0.9,0.1,1.4s-0.3,0.8-1,0.9l1.7,0.9c0.8,10,1.5,19,2.1,27
		c0.2,3.4,0.5,6.8,0.8,10.1c0.3,3.3,0.6,6.4,0.8,9.1c0.2,2.8,0.5,5,0.7,6.8c0.2,1.8,0.4,3,0.5,3.4c0.1,0.4,0.2,0.9,0.3,1.7
		c0.1,0.8,0.2,1.5,0.4,2.3c0.2,0.8,0.4,1.4,0.7,2c0.3,0.6,0.7,0.9,1.1,1.1v9.3c-1.6,0-2.5,0.8-2.5,2.4l-0.9-2.4
		c0,0.4-0.2,0.8-0.7,1.5c-0.5,0.6-1,1-1.6,1c-0.5,0-0.8-0.2-1-0.5c-0.2-0.4-0.4-0.8-0.6-1.2c-0.2-0.5-0.5-0.9-0.8-1.3
		c-0.3-0.4-0.7-0.6-1.3-0.6l-1.2,1.1c-0.7-0.4-1.2-0.7-1.5-1.1s-0.5-0.7-0.5-1c-0.1-0.3-0.2-0.5-0.3-0.7c-0.2-0.2-0.6-0.3-1.1-0.3
		v0.7c0.1,0.2,0.2,0.5,0.2,0.8c0,0.3,0.1,0.6,0.2,1c0,0.5,0.1,0.9,0.2,1.2h1.4c-0.1,0.1-0.2,0.2-0.2,0.3v0.5
		c-0.2,0.2-0.6,0.7-1.2,1.3c-0.6,0.7-1,1-1.2,1.2c-0.2,0-0.4,0-0.4,0.1c0,0-0.1,0.1-0.2,0.1l-0.2,0.1c0-1.1-0.5-2.1-1.4-2.9
		c-0.9-0.8-1.4-1.8-1.4-3.1h-0.7c-0.4,0-0.9,0.2-1.8,0.7c-0.8,0.5-1.3,0.8-1.6,1.1c-0.6-1.5-1.6-3.2-2.9-5.1
		c-1.3-1.9-2.9-2.8-4.6-2.8v-0.5h-2.1c0-0.4-0.1-2.2-0.4-5.4c-0.3-3.3-0.7-7.3-1.2-11.9c-0.5-4.7-1.1-9.7-1.7-15
		c-0.6-5.3-1.2-10.2-1.8-14.8c-0.6-4.5-1.1-8.3-1.6-11.2c-0.5-3-0.8-4.5-1.1-4.5c-3.6,0-7.3,0.6-10.9,1.8c-3.6,1.2-7.4,1.8-11.4,1.8
		v-1.1c1.3,0,2.7-0.1,4.3-0.4c1.6-0.3,2.9-0.7,3.9-1.3h-0.5h-0.9c-0.5,0.2-1.6,0.4-3.3,0.6s-2.9,0.3-3.5,0.4l-0.7,0.7
		c-0.7,1.2-2.2,1.9-4.4,2.2c-2.2,0.3-4.6,0.5-7,0.6c-2.5,0.1-4.7,0.4-6.8,0.7s-3.3,1.1-3.8,2.3c-0.1,0.4-0.2,1.6-0.3,3.6
		c-0.1,2-0.1,4.5-0.2,7.5c-0.1,2.9-0.1,6-0.2,9.3c-0.1,3.3-0.1,6.4-0.1,9.3c0,2.9,0,5.4-0.1,7.5c-0.1,2-0.1,3.2-0.1,3.6
		c-0.4,1.2-0.8,2.2-1.4,3.1c-0.6,0.9-1.1,1.8-1.6,2.7c0,0.2,0.1,0.9,0.2,2.1c0.1,1.2,0.1,1.9-0.2,2.1c-0.6,1.4-1.1,2.5-1.6,3.4
		c-0.5,0.9-0.9,1.8-1.3,2.6c-0.4,0.9-0.7,1.6-1,2s-0.5,0.9-0.8,1.3c-0.3,0.4-0.6,0.8-0.8,1.3c-0.4,0.5-0.6,1-0.9,1.6h-2.5v-0.7
		c0-0.2,0.1-0.5,0.2-0.8S491-236.7,490.1-236.9z M528.6-367c-2-1.1-4-0.7-6,1.1c-2,1.8-3.8,4.4-5.4,7.9s-3.1,7.7-4.3,12.5
		c-1.2,4.9-2.1,9.8-2.5,14.8v1.1c0.1,0,0.5-0.1,1.1-0.2s1.1-0.2,1.3-0.2c0.8-0.1,2.5-0.3,5-0.6c2.5-0.3,5.2-0.6,8.1-1s5.5-0.6,8-0.9
		s4-0.4,4.7-0.5c0.9,0,1.5-0.1,1.8-0.4c0.2-0.3,0.4-0.7,0.4-1.3c0.5-0.9,0.4-3-0.4-6.2s-1.7-6.7-3-10.4s-2.7-7.1-4.3-10.2
		S530-366.4,528.6-367z M513.2-372.8c-0.6,0-0.9,0.3-0.9,0.9c0,0.6,0.3,0.9,0.9,0.9c0.4,0,0.5-0.3,0.5-0.9
		C513.8-372.5,513.6-372.8,513.2-372.8z M513.2-365.2c-0.6,0-0.9,0.2-0.9,0.7s0.3,0.7,0.9,0.7c0.4,0,0.5-0.2,0.5-0.7
		S513.6-365.2,513.2-365.2z M513.9-362.1c-0.2-0.2-0.5-0.2-0.7,0.2s-0.2,0.6,0,0.7C513.8-361.2,514-361.5,513.9-362.1z M514.6-364.5
		c-0.4,0-0.5,0.3-0.5,0.9s0.2,0.9,0.5,0.9c0.6,0,0.9-0.3,0.9-0.9S515.2-364.5,514.6-364.5z M516.7-305.4c-0.4,0-0.5,0.3-0.5,0.9
		s0.2,0.9,0.5,0.9c0.6,0,0.9-0.3,0.9-0.9S517.3-305.4,516.7-305.4z M519.7-374.5c-0.5,0-0.7,0.3-0.7,0.9s0.2,0.9,0.7,0.9
		c0.2,0,0.4-0.3,0.4-0.9S520-374.5,519.7-374.5z M536.2-305.2l2.5-0.7h-2.5V-305.2z M543.9-307.5c-0.6,0-0.9,0.3-0.9,0.8
		s0.3,0.8,0.9,0.8c0.4,0,0.5-0.3,0.5-0.8S544.3-307.5,543.9-307.5z M545.7-309.8c-0.6,0-0.9,0.2-0.9,0.7s0.3,0.7,0.9,0.7
		c0.4,0,0.5-0.2,0.5-0.7S546-309.8,545.7-309.8z M549.5-308.4c-0.5,0-0.7,0.3-0.7,0.8s0.2,0.8,0.7,0.8s0.7-0.3,0.7-0.8
		S550-308.4,549.5-308.4z M551.3-302.8c-0.5,0-0.7,0.3-0.7,0.9c0,0.6,0.2,0.9,0.7,0.9c0.4,0,0.5-0.3,0.5-0.9
		C551.8-302.5,551.7-302.8,551.3-302.8z M563.6-362.8c-0.5,0-0.7,0.3-0.7,0.9c0,0.6,0.2,0.9,0.7,0.9s0.7-0.3,0.7-0.9
		C564.3-362.5,564.1-362.8,563.6-362.8z M570.3-352.2c0.5,0.4,1,1,1.5,1.9c0.5,0.9,1,1.9,1.4,2.9c0.4,1,0.7,2,1,3s0.4,1.8,0.4,2.4
		c0,0.1-0.1,0.3-0.4,0.5c-0.3,0.2-0.6,0.4-0.8,0.4c-0.6-1.3-1.2-2.8-1.9-4.5s-1.1-3.4-1.1-5V-352.2z M576.7-328.7
		c-0.2,0-0.4,0.2-0.4,0.7c0,0.5,0.1,0.7,0.4,0.7c0.4,0,0.5-0.2,0.5-0.7C577.3-328.5,577.1-328.7,576.7-328.7z M577.8-242.2
		c-0.6,0-0.9,0.3-0.9,0.9c0,0.6,0.3,0.9,0.9,0.9c0.2,0,0.4-0.3,0.4-0.9C578.1-241.9,578-242.2,577.8-242.2z M578.3-238.7
		c-0.2,0-0.4,0.3-0.4,0.9c0,0.6,0.1,0.9,0.4,0.9c0.4,0,0.5-0.3,0.5-0.9C578.8-238.4,578.7-238.7,578.3-238.7z M580.1-323.8
		c-0.5,0-0.7,0.2-0.7,0.7s0.2,0.7,0.7,0.7c0.5,0,0.7-0.2,0.7-0.7S580.6-323.8,580.1-323.8z"/>
	<path id="XMLID_221_" class="st2" d="M727.1-237H726v-2.3c-1.3,0.6-2.3,1-3.1,1.3s-1.8,0.4-3.1,0.4c-2,0-3.9-0.5-5.8-1.4
		c-1.9-0.9-3.5-2.2-4.9-3.7c-1.4-1.5-2.6-3.2-3.5-5.1c-0.9-1.9-1.5-3.7-1.8-5.6c-0.1-0.1-0.2-1.1-0.2-2.8c-0.1-1.8-0.1-3.7-0.1-5.8
		s0-4,0-5.8c0-1.8,0.1-2.7,0.2-2.8v-8.8c0-6.8-0.4-13.6-1.1-20.4c-0.8-6.8-1.7-13.6-2.9-20.3c-0.2-0.7-0.5-1.7-0.8-3
		c-0.3-1.3-0.6-2.6-1-4c-0.4-1.4-0.6-2.8-0.8-4.1s-0.1-2.5,0.1-3.4c-1.3-7.4-2.4-14.4-3.3-21.1c-0.9-6.7-1.8-13.7-2.5-21
		c0-0.2-0.1-0.6-0.3-1.2c-0.2-0.6-0.3-1-0.3-1.2c-0.2,0-0.5-0.1-0.8-0.4c-0.3-0.2-0.4-0.5-0.4-0.7l1.2-1.4v-1.2v-1.4l-1.2-1.6
		c0-0.1,0.1-0.4,0.4-1c0.3-0.5,0.6-0.8,0.8-0.8c0.8-2.6,1.3-4.8,1.6-6.8c0.2-1.9,0.7-3.5,1.4-4.6c0.7-1.2,1.9-2,3.6-2.6
		c1.7-0.6,4.4-0.9,8-0.9c2.9,0,5.6,0.6,8.2,1.8c2.5,1.2,5.3,2,8.3,2.6c0.4,0,1.3,0.1,2.8,0.4c1.5,0.2,2.5,0.3,3,0.3
		c5.4,0.6,10.4,1.6,15,3.1c4.6,1.5,9.5,3,14.5,4.6l-1.4,0.7c0.4,0.7,0.8,1.2,1.5,1.5c0.6,0.3,1.3,0.4,2.1,0.4c0.8,0,1.6,0,2.4,0
		c0.8,0,1.6,0.1,2.3,0.4c4.2,1.3,8.5,3.3,13,6.1c4.4,2.8,8.5,6.1,12.2,9.8c3.7,3.7,6.7,7.9,9,12.4c2.3,4.5,3.5,9.1,3.5,13.8v4.9
		c-1.1,1.9-1.9,3.8-2.6,5.9c-0.7,2-1.8,3.9-3.3,5.7c-2.6,3.4-5.4,6.3-8.4,8.9c-3,2.5-6.3,4.7-9.7,6.7s-6.9,3.6-10.6,5
		c-3.7,1.4-7.5,2.7-11.3,4c-1.4,0.5-2.8,0.8-4.3,0.9c-1.5,0.1-3,0.2-4.5,0.3c-1.5,0.1-3,0.2-4.4,0.4c-1.4,0.2-2.8,0.5-4.2,1v2.5
		c0,4.1,0.1,8.1,0.4,12.1s0.4,8,0.4,11.9c0,0.4,0,1.8,0.1,4.2s0.1,5.1,0.2,8.1c0.1,2.9,0.1,5.6,0.2,8.2c0.1,2.5,0.1,3.9,0.1,4.3
		c0,0.1-0.1,0.4-0.3,1c-0.2,0.5-0.3,1.1-0.5,1.7c-0.2,0.6-0.3,1.2-0.4,1.8c-0.1,0.6-0.2,0.9-0.2,1.1c-0.2,1.1-0.7,2-1.4,2.7
		c-0.7,0.8-1.4,1.5-2.1,2.2c-0.7,0.7-1.4,1.4-2.1,2.2c-0.7,0.8-1.2,1.7-1.4,2.7c-0.8-0.2-1.4-0.6-1.8-1.1c-0.4-0.5-0.6-1-0.8-1.5
		c-0.2-0.5-0.4-1.1-0.6-1.7c-0.2-0.6-0.6-1.2-1.2-1.8V-237z M726.1-249.8c-0.5,0-0.7,0.2-0.7,0.6c0,0.4,0.2,0.6,0.7,0.6
		c0.4,0,0.5-0.2,0.5-0.6C726.6-249.6,726.4-249.8,726.1-249.8z M726.9-395.6c-0.5,0-0.7,0.3-0.7,0.9s0.2,0.9,0.7,0.9
		c0.5,0,0.7-0.3,0.7-0.9S727.4-395.6,726.9-395.6z M727.8-394.9c-0.5,0-0.7,0.3-0.7,0.9c0,0.6,0.2,0.9,0.7,0.9
		c0.2,0,0.4-0.3,0.4-0.9C728.2-394.6,728.1-394.9,727.8-394.9z M728.3-369.2c0,0.5,0.1,1.7,0.4,3.8s0.5,4.5,0.8,7.4
		c0.3,2.9,0.7,5.9,1.1,9.1s1,6.2,1.5,8.9c0.5,2.7,1,5,1.5,6.8s0.9,2.7,1.4,2.7h1.1c0.4-0.2,1-0.4,2-0.5c1-0.1,1.7-0.3,2.2-0.5
		c0.5,0,1.3-0.2,2.6-0.6c1.2-0.4,2.6-0.8,4-1.2c1.4-0.4,2.7-0.8,4-1.3c1.2-0.5,2.1-0.8,2.6-1.1c1.1-0.8,2.5-1.8,4.2-3
		c1.8-1.2,3.4-2.5,5-3.9c1.6-1.4,3-2.9,4.2-4.5s1.8-3.1,1.8-4.7c0-0.6-0.2-1.3-0.5-2c-0.3-0.8-0.8-1.3-1.4-1.5
		c0.1,0,0.3-0.1,0.4-0.4c0.2-0.2,0.3-0.4,0.3-0.5c0-1.6-1.1-3.3-3.3-5.1c-2.2-1.8-4.6-3.4-7.4-4.9c-2.8-1.5-5.5-2.8-8.1-3.9
		c-2.6-1.1-4.4-1.7-5.4-1.9c-2-0.4-3.9-0.6-5.6-0.6c-1.8-0.1-3.7-0.1-5.8-0.1h-2.3l-1.2,0.7V-369.2z M730.1-394.9
		c-0.2,0-0.4,0.3-0.4,0.9c0,0.6,0.1,0.9,0.4,0.9c0.4,0,0.5-0.3,0.5-0.9C730.6-394.6,730.4-394.9,730.1-394.9z M736.1-393.8
		c-0.6,0-0.9,0.2-0.9,0.7s0.3,0.7,0.9,0.7c0.4,0,0.5-0.2,0.5-0.7S736.4-393.8,736.1-393.8z M742.4-392.4c-0.2,0-0.4,0.3-0.4,0.9
		c0,0.6,0.1,0.9,0.4,0.9c0.5,0,0.7-0.3,0.7-0.9C743.1-392.1,742.8-392.4,742.4-392.4z M746.6-391.3c-0.4,0-0.5,0.3-0.5,0.9
		s0.2,0.9,0.5,0.9c0.6,0,0.9-0.3,0.9-0.9S747.2-391.3,746.6-391.3z M754.3-305.2c-0.6,0-0.9,0.3-0.9,0.9c0,0.6,0.3,0.9,0.9,0.9
		c0.4,0,0.5-0.3,0.5-0.9C754.8-304.9,754.7-305.2,754.3-305.2z M763.1-385h1.1l-1.1-0.7V-385z M764.8-382.6c-0.4,0-0.5,0.3-0.5,0.9
		s0.2,0.9,0.5,0.9c0.4,0,0.5-0.3,0.5-0.9S765.2-382.6,764.8-382.6z M765.5-381.5c-0.4,0-0.5,0.2-0.5,0.7s0.2,0.7,0.5,0.7
		c0.6,0,0.9-0.2,0.9-0.7S766.1-381.5,765.5-381.5z M768.5-381.5h0.7v-1.1h-0.7V-381.5z M770.8-380.8c-0.6,0-0.9,0.3-0.9,0.9
		c0,0.6,0.3,0.9,0.9,0.9c0.2,0,0.4-0.3,0.4-0.9C771.2-380.5,771-380.8,770.8-380.8z"/>
	<path id="XMLID_215_" class="st2" d="M835-377.6c-1.2-0.4-2.8-0.9-4.9-1.8c-2.1-0.8-4.2-1.8-6.2-2.9c-2-1.1-3.8-2.4-5.4-3.8
		c-1.5-1.4-2.3-2.9-2.3-4.4v-0.5c0-0.5,0.1-0.9,0.2-1.2c0.2-0.7,0.4-1.1,0.4-1.2s-0.1-0.3-0.4-0.5l-0.2-0.2c0.9-1.4,2.1-2.6,3.6-3.6
		c1.5-1,3.1-1.8,4.8-2.5s3.5-1.2,5.4-1.6s3.5-0.5,5-0.5c0.1,0,0.7,0.1,1.7,0.3c1,0.2,1.6,0.3,1.7,0.3c0.1,0.1,0.6,0.3,1.5,0.4
		c0.9,0.2,1.8,0.4,2.8,0.5c1,0.2,2,0.4,2.9,0.5c0.9,0.2,1.5,0.3,1.8,0.3c1.2,0.5,2.3,1.3,3.5,2.5c0.4,0.6,1.1,1.6,2.4,3
		c1.2,1.4,2,2.4,2.2,3v0.7c0,0.8-0.2,1.4-0.5,1.8v5.6c-0.2,0.2-0.6,0.6-1.2,1.1s-1.2,1.1-1.8,1.8c-0.6,0.6-1.2,1.3-1.8,1.8
		c-0.6,0.6-0.9,1-1.1,1.2H835z M834.5-238.7c-0.2,0-0.5,0.1-0.9,0.4c-0.4,0.3-0.6,0.6-0.9,0.8c-0.1-0.1-0.4-0.4-0.9-1
		c-0.5-0.5-1-1.1-1.6-1.7c-0.6-0.6-1.1-1.2-1.6-1.8c-0.5-0.6-0.8-1.1-0.9-1.5l-0.5-27.9c-1.1-1.5-1.6-2.7-1.7-3.4
		c-0.1-0.8-0.3-2.1-0.8-3.9c-0.5-3.9-0.8-8-1.1-12.5c-0.3-4.4-0.6-8.9-1.1-13.2c-0.4-4.4-1-8.7-1.7-12.8s-1.7-7.8-3-11v-13
		c-1.2-1.2-1.1-2.4,0.2-3.8s3.2-2.6,5.8-3.7s5.5-2,8.9-2.6c3.3-0.6,6.4-0.9,9.3-0.8c2.9,0.1,5.2,0.8,7.1,1.9c1.9,1.2,2.6,3,2.3,5.4
		c2.9,7.8,5.2,15.8,6.9,23.9c1.7,8.1,2.9,16.2,3.6,24.5c0.7,8.2,1.1,16.5,1.1,24.8s-0.2,16.6-0.5,24.9v1.6c0,0.5-0.1,1.4-0.3,2.8
		c-0.2,1.4-0.3,2.4-0.3,3c-0.4,0-1,0.1-1.8,0.3c-0.9,0.2-1.4,0.3-1.7,0.3h-0.7c-0.9,0-1.7-0.2-2.2-0.6c-0.5-0.4-1.1-0.6-1.8-0.6v0.7
		c0,0.2,0.1,0.8,0.3,1.6c0.2,0.8,0.3,1.3,0.3,1.4c0,0.2-0.1,0.6-0.4,1.1c-0.1,0.2-0.2,0.5-0.2,0.7c-0.4-0.9-0.8-1.6-1.4-2.1
		c-0.6-0.5-1-1.2-1.2-2.1c-0.6,0.4-1,0.8-1.2,1.3c-0.2,0.5-0.5,1-0.8,1.4c-0.3,0.4-0.6,0.8-1.1,1.1c-0.4,0.3-1,0.4-1.8,0.4
		c-0.4,0-0.9,0-1.6,0s-1.4,0-2.1-0.1c-0.7-0.1-1.3-0.1-1.9-0.2c-0.6-0.1-0.9-0.2-0.9-0.4v-2.3c0-0.2-0.6-0.5-1.8-0.8
		C836.5-238.6,835.4-238.7,834.5-238.7z M837.1-243.4c-0.5,0-0.7,0.3-0.7,0.9c0,0.6,0.2,0.9,0.7,0.9c0.4,0,0.5-0.3,0.5-0.9
		C837.7-243.2,837.5-243.4,837.1-243.4z M837.1-241c-0.5,0-0.7,0.3-0.7,0.9c0,0.6,0.2,0.9,0.7,0.9c0.4,0,0.5-0.3,0.5-0.9
		C837.7-240.7,837.5-241,837.1-241z M841.9-238.7c-0.2,0-0.4,0.2-0.4,0.6c0,0.4,0.1,0.6,0.4,0.6
		C842.2-237.8,842.2-238.2,841.9-238.7z"/>
	<path id="XMLID_189_" class="st2" d="M890.2-235.5c-0.5-0.7-1.2-1-2.2-1c-1,0.1-1.9,0.2-2.8,0.4c-0.9,0.2-1.6,0.2-2.1,0.1
		c-0.5-0.1-0.6-0.6-0.3-1.6l-5.1-5.4c0.2-1.3,0.2-2.5-0.2-3.8c-0.4-1.2-0.5-2.5-0.4-3.8c0-1.4,0.1-3.2,0.3-5.4s0.4-4.6,0.6-7
		s0.5-4.8,0.7-7.1s0.4-4.1,0.4-5.5c0-0.6,0-1.5,0.1-2.6c0.1-1.2,0.1-1.9,0.1-2.1l-4-60.9l0.4-13c0.9-0.2,1.7-0.8,2.4-1.6
		c0.6-0.8,1.4-1.5,2.2-2.1c0.5-0.4,1.3-0.7,2.4-1c1.1-0.3,2.3-0.6,3.5-0.8c1.2-0.2,2.4-0.4,3.4-0.4c1.1,0,1.9,0.1,2.5,0.2
		c0.8,0,1.8,0.1,3.1,0.4c1.2,0.3,2.5,0.6,3.7,1.1c1.2,0.4,2.4,0.9,3.5,1.4s2,1.1,2.5,1.7c0.6,0.8,1,1.5,1.3,2c0.3,0.5,0.6,1,0.8,1.5
		c0.2,0.5,0.4,0.8,0.4,0.9c0.1,0.1,0.3,0.3,0.4,0.5c0.2,0.2,0.3,0.4,0.4,0.4c0.4,1.4,0.5,3.1,0.5,5.1c0,2,0,3.9-0.1,5.6
		c-0.1,1.8-0.1,3.3-0.2,4.6c-0.1,1.3,0.1,1.9,0.4,1.9c0.2,0,0.5-0.1,0.7-0.2s0.4-0.2,0.5-0.2s0.3-0.1,0.5-0.2c1.1-0.8,2-1.5,3-2
		c0.9-0.5,1.8-1.1,2.5-1.6c0.8-0.5,1.4-1.2,1.9-1.9c0.5-0.8,0.9-1.8,1.1-3.2h1.8v-0.7l1.9-1.9c0.6-0.6,1.2-1.1,1.8-1.5
		c0.6-0.4,1.1-0.7,1.4-1c1.1-0.9,2.7-1.9,4.8-2.8c2.2-0.9,4.5-1.8,6.9-2.5c2.5-0.7,4.9-1.3,7.2-1.7c2.3-0.4,4.2-0.6,5.6-0.4
		c0.1,0,0.4,0,0.7,0.1c0.4,0.1,0.7,0.1,1.1,0.1c0.5,0.1,0.9,0.2,1.2,0.2c0.4,0,1.2,0.2,2.5,0.7s2.7,1,4.1,1.6
		c1.5,0.6,2.8,1.1,4.1,1.7c1.3,0.5,2.1,0.8,2.5,0.8c0.4,0.1,1.3,0.3,2.8,0.4c1.5,0.2,2.5,0.4,2.8,0.6c2.2,0.9,4.4,2.5,6.7,4.7
		c2.2,2.2,4.2,4.2,6,6c1.3,0.8,2.2,1.7,2.9,2.6s0.6,2.2-0.1,3.9l1.7-0.5c-0.4,0.6-0.3,1.4,0.1,2.5c0.4,1.1,0.9,2.3,1.5,3.6
		c0.6,1.3,1.2,2.5,1.8,3.8c0.6,1.2,1,2.3,1.2,3.1c0,0.2,0,0.6,0,1.1s0.1,1.1,0.2,1.7c0.1,0.6,0.2,1.1,0.3,1.7c0.1,0.5,0.1,0.8,0.1,1
		c0.1,0,0.3,0.1,0.4,0.4c0.2,0.2,0.3,0.4,0.4,0.4c-0.2,0.9-0.2,3,0,6.1c0.2,3.1,0.6,6.4,1.1,10s1.1,6.9,1.8,9.9c0.7,3,1.3,5,1.9,5.8
		l-1,24.2c0.5,0.6,0.7,1.1,0.8,1.7c0.1,0.5,0.1,1,0.1,1.5c0,1.2-0.3,2-0.8,2.4c-0.5,0.4-0.9,1.4-1.1,2.9c-0.2,1.6-0.4,3.2-0.5,4.6
		c-0.1,1.4-0.4,2.7-0.7,3.9c-0.4,1.2-0.9,2.4-1.7,3.5c-0.8,1.1-1.8,2.3-3.2,3.4c-0.6,0.4-0.9,0.6-1.1,0.9c-0.1,0.2-0.3,0.4-0.4,0.5
		c-0.2,0.1-0.4,0.2-0.6,0.2s-0.7,0-1.4,0c-1.6-0.1-2.5-1.3-2.5-3.5c0-0.8,0.1-1.6,0.4-2.4c0.3-0.8,0.4-1.5,0.4-2.2
		c-0.2-0.1-0.4-0.2-0.5-0.4c-0.2-0.1-0.4-0.2-0.4-0.4c-0.1-0.1-0.1-0.2-0.3-0.2c-0.4,0.4-0.7,0.9-1,1.6c-0.3,0.7-0.6,1.4-0.8,2.2
		c-0.2,0.8-0.4,1.5-0.6,2.1c-0.2,0.6-0.3,1.1-0.3,1.5c0,0.4,0.2,0.6,0.7,0.9c-0.2,0.2-0.5,0.4-0.9,0.6c-0.4,0.2-0.6,0.2-0.7,0.2
		h-0.9v-0.6c-0.1,0-0.2,0-0.4-0.1c-0.1,0-0.2,0-0.2-0.1c0-0.1-0.1-0.1-0.2-0.1c-0.1,0-0.2-0.1-0.2-0.2c-0.2,0.2-0.8,0.5-1.6,0.8
		c-0.8,0.3-1.3,0.6-1.6,0.8c0.4-0.9,0.6-1.7,0.7-2.4c0.1-0.6,0.2-1.4,0.2-2.4c0-0.6-0.1-1-0.4-1.3s-0.8-0.5-1.8-0.6h-0.4
		c-0.2,0-0.6,0.2-1,0.7c-0.4,0.5-0.7,0.8-1,1.1c-0.1-0.1-0.4-0.7-1-1.8c-0.5-1.1-1.1-2.2-1.8-3.4s-1.3-2.3-1.9-3.3
		c-0.6-1-1.1-1.6-1.5-1.8l2.5-2.1c-0.4-0.1-0.8-0.3-1.3-0.6c-0.5-0.3-0.9-0.6-1.1-0.8c-0.2-2.9-0.3-6.4-0.1-10.4s0.3-8.4,0.4-13
		c0.1-4.6,0.1-9.3,0.1-14.1c-0.1-4.8-0.4-9.3-1.1-13.6s-1.7-8.2-3.2-11.7c-1.5-3.5-3.4-6.3-5.9-8.4c-6.2-0.4-11.8,1.2-16.8,4.7
		c-5,3.5-9.5,8.1-13.5,13.9c-4,5.8-7.3,12.4-10.1,19.9c-2.7,7.5-4.9,15.1-6.6,23c-0.6,1.2-1.1,3-1.6,5.5c-0.5,2.5-1,5.1-1.6,7.7
		c-0.6,2.6-1.3,5-2.1,7.2c-0.8,2.2-1.9,3.4-3.3,3.8L890.2-235.5z M913.5-334.5c-0.4,0-0.5,0.3-0.5,0.9c0,0.6,0.2,0.9,0.5,0.9
		c0.6,0.1,0.9-0.1,0.9-0.7S914-334.4,913.5-334.5z M924.7-344.5c-0.2-0.2-0.7,0-1.3,0.7c-0.6,0.7-0.8,1.1-0.6,1.1s0.6-0.2,1.1-0.6
		S924.6-344.2,924.7-344.5z M928.4-328.4c-0.6-0.1-0.9,0.1-0.9,0.7c0,0.6,0.3,0.9,0.9,1.1c0.4,0,0.5-0.3,0.5-0.9
		S928.7-328.4,928.4-328.4z M930-330.8c0.1-0.2,0.4-0.4,1-0.4c0.5-0.1,0.8-0.2,0.8-0.4v-0.2v-0.5L930-330.8z M934.9-330.7
		c-0.5,0-0.7,0.2-0.7,0.7s0.2,0.7,0.7,0.7c0.4,0.1,0.5-0.1,0.5-0.5S935.2-330.5,934.9-330.7z M935.2-348.7c0-0.4-0.1-0.5-0.4-0.5
		s-0.4,0.2-0.4,0.5C934.7-348.4,935-348.4,935.2-348.7z M943.1-327c-0.6,0-0.9,0.3-0.9,0.9c0,0.6,0.3,0.9,0.9,0.9
		c0.4,0,0.5-0.3,0.5-0.9C943.6-326.7,943.5-327,943.1-327z M945.6-321.2c-0.9-0.1-1.8,0.4-2.6,1.6c0.4-0.1,0.9-0.3,1.7-0.4
		c0.8-0.2,1.4-0.6,1.8-1.1H945.6z M952.8-324.7c-0.9-0.1-1.9,0.2-2.8,1.1c-0.9,0.8-1.6,1.5-2.1,1.9h0.9c0.9,0.1,1.8-0.1,2.6-0.7
		c0.8-0.6,1.6-1.1,2.3-1.4c-0.1,0-0.2-0.1-0.2-0.2s0-0.2-0.1-0.2c-0.1,0-0.1-0.1-0.1-0.2l-0.4-0.4H952.8z M955.4-324.7
		c-0.4,0-0.5,0.3-0.5,0.9s0.2,0.9,0.5,0.9c0.4,0.1,0.5-0.1,0.5-0.7C955.9-324.2,955.7-324.6,955.4-324.7z M957.8-324.5
		c-0.2-0.2-0.5-0.2-0.8,0.2s-0.3,0.6,0.1,0.7c0.1,0,0.3-0.1,0.6-0.2C958.1-323.9,958.1-324.2,957.8-324.5z M960.1-326.1
		c0.2-0.2,0.1-0.4-0.3-0.4c-0.4-0.1-0.5,0.1-0.3,0.4c0,0.4,0.1,0.5,0.3,0.5C960-325.6,960.1-325.7,960.1-326.1z M970.1-244.2
		c-0.4-0.1-0.5,0.1-0.5,0.7c0,0.6,0.2,0.9,0.5,1.1c0.6,0,0.9-0.3,0.9-0.9C971-243.9,970.7-244.2,970.1-244.2z M985.9-242.6
		c-0.6,0-0.9,0.3-0.9,0.8s0.3,0.8,0.9,0.8c0.2,0,0.4-0.3,0.4-0.8S986.2-242.6,985.9-242.6z M986.3-336.3c-0.6,0-0.9,0.3-0.9,0.8
		c0,0.5,0.3,0.8,0.9,0.8c0.2,0,0.4-0.3,0.4-0.8C986.6-336,986.5-336.3,986.3-336.3z M987.8-244.9c-0.2-0.6-0.5-0.6-0.9-0.2
		s-0.5,0.7-0.4,0.7C987.4-244.1,987.8-244.3,987.8-244.9z M987.9-244.2c-0.6-0.1-0.9,0.1-1,0.7c-0.1,0.6,0.2,0.9,0.8,1.1
		c0.2,0,0.4-0.3,0.4-0.9C988.2-243.9,988.1-244.2,987.9-244.2z M988.3-328.9h1.2l-1.2-0.7V-328.9z M990-324.7c-0.2,0-0.4,0.3-0.4,1
		c0,0.6,0.1,0.9,0.4,0.8c0.2-0.2,0.4-0.6,0.4-1C990.3-324.3,990.2-324.6,990-324.7z M990.6-322.1c-0.2-0.1-0.4,0-0.4,0.4
		s0.1,0.5,0.4,0.5C991.4-321.5,991.4-321.8,990.6-322.1z M992.4-318.9c-0.4,0-0.6,0.3-0.6,0.9c-0.1,0.6,0.1,0.9,0.4,0.9
		c0.6,0,0.9-0.3,1-0.9C993.3-318.6,993-318.9,992.4-318.9z M993.3-234.7c0-0.4-0.2-0.5-0.5-0.5s-0.5,0.2-0.5,0.5
		c0,0.1,0.1,0.2,0.4,0.2S993.1-234.6,993.3-234.7z M993.8-308.7c-0.4,0-0.5,0.3-0.5,0.9s0.2,0.9,0.5,0.9c0.4,0.1,0.5-0.1,0.5-0.7
		S994.2-308.6,993.8-308.7z M994-312.2c-0.4,0-0.6,0.3-0.6,0.9s0.1,0.9,0.4,0.9c0.4,0.1,0.6-0.1,0.6-0.7
		C994.5-311.8,994.3-312.1,994-312.2z"/>
</g>
<g id="XMLID_190_">
	<path id="XMLID_404_" class="st0" d="M31.7,249.3c0,0.3,0.1,0.8,0.3,1.6c0.2,0.8,0.3,1.3,0.3,1.4c0,0.1-0.2,0.4-0.6,0.8
		c-0.1,0.1-0.3,0.2-0.4,0.2h-0.2c-0.3,0-0.5-0.1-0.6-0.2h-0.2c0.1-0.3,0.1-0.6-0.2-1c-0.3-0.4-0.4-0.7-0.4-1c-0.3-0.5-0.6-0.8-1-0.8
		l-1.8,0.2c-0.1,0-0.3-0.1-0.6-0.4l-0.4-0.4c-0.3-0.3-0.7-0.5-1.2-0.6c-0.5-0.1-0.9-0.2-1-0.2c0-0.4-0.1-1.2-0.4-2.4
		c-0.3-1.2-0.6-2.5-1-3.9c-0.4-1.4-0.8-2.8-1.2-4.1c-0.4-1.3-0.7-2.4-0.8-3.2c-0.5-5.6-1-12.3-1.3-20.1c-0.3-7.8-0.5-15.7-0.6-23.8
		c-0.1-8.1,0-16,0.2-23.8c0.2-7.8,0.6-14.5,1.3-20.3c0.5-5.6,1.4-11.2,2.6-16.9c1.2-5.6,2.1-11.3,2.6-17.1c0-0.5,0-1.1,0.1-1.7
		c0.1-0.6,0.2-1.2,0.3-1.9c0.1-0.7,0.2-1.4,0.2-2.2L5.4,80.4C4.5,79.3,4,77.9,4,76.3c0-1.7,0.1-3.2,0.2-4.7c1.2,0.3,2,0.1,2.3-0.5
		c0.3-0.6,0.7-1.3,1.1-2c0.4-0.7,1.1-1.3,2.1-1.8c1-0.5,2.9-0.5,5.7-0.1c0.3-1.7,1-2.5,2.3-2.4s2.9,0.3,4.9,0.6
		c0.7,0.1,1.2,0.5,1.6,1c0.4,0.5,0.9,0.9,1.6,1c0.4,0.3,1.4,0.5,2.9,0.6s2.5,0.3,2.9,0.4c2.8,0.8,5.4,2.2,7.7,4.1
		c2.3,1.9,4.5,4.1,6.5,6.6c2,2.5,3.9,5,5.7,7.5c1.8,2.5,3.5,4.8,5.1,6.6l1.6,1.6l1,1c0.1,0,0.5,0,1.1-0.1c0.6-0.1,0.9-0.2,0.9-0.3
		V96c0.7,0.9,1.8,2.5,3.5,4.8c1.7,2.3,3.4,4.7,5.2,7.1c1.8,2.5,3.5,4.9,5.2,7.1c1.7,2.3,2.8,3.9,3.5,4.8c0.4,0.7,0.9,1.5,1.6,2.6
		c0.7,1.1,0.9,1.7,0.8,1.8l-0.8,0.6c-0.1,0,0,0.4,0.5,1.2c0.5,0.8,0.8,1.4,0.9,1.8c0,0.1,0.2,0.4,0.5,0.9c0.3,0.5,0.7,0.9,1.1,1.4
		c0.4,0.5,0.8,0.9,1.2,1.4c0.4,0.5,0.7,0.8,0.8,0.9c0.3,0.3,0.7,0.9,1.3,1.8c0.6,0.9,1.2,1.9,1.9,2.9c0.7,1,1.3,2,2,2.9
		c0.7,0.9,1.1,1.6,1.4,2c-0.3,0.3,0,0.9,0.8,1.8c0.8,0.9,1.7,2,2.8,3.2s2.1,2.4,3,3.7c0.9,1.3,1.5,2.3,1.6,3.1
		c2,2.5,4.2,5.6,6.5,9.1s4.7,7.2,7,10.8s4.7,7.2,7.1,10.6c2.4,3.4,4.8,6.2,7,8.3c0-0.3,0.1-0.5,0.4-0.7c0.3-0.2,0.5-0.2,0.8-0.1h0.2
		c0.8,0.1,1.5,0.4,2,0.9c0.5,0.5,1,1,1.4,1.5c0.4,0.5,0.8,1,1.3,1.4c0.5,0.4,1,0.7,1.7,0.8c1.2,0.3,2.5-0.1,3.8-1.2
		c1.3-1.1,2.6-2.4,3.7-3.9c1.1-1.5,2.1-3.1,2.8-4.7c0.7-1.6,1.2-2.8,1.3-3.6c0.3-3.1,0.3-7.1,0-11.9s-0.8-10.2-1.5-15.9
		c-0.7-5.7-1.6-11.7-2.5-17.9c-0.9-6.2-1.9-12.2-3-17.9c-1.1-5.7-2.1-10.9-3.1-15.8c-1-4.8-1.8-8.7-2.5-11.6
		c-0.7-1.9-1.7-3.9-3.1-6.1c-1.4-2.2-2-4.3-1.7-6.3c0.1-0.1,0.3-0.4,0.6-0.8c0.3-0.4,0.5-0.7,0.6-0.8l-2.8-0.4
		c-0.3-1.5-0.9-2.9-2-4.2c-1.1-1.3-1.6-2.2-1.6-2.6l2,0.2c0.3-1.5,0.4-2.7,0.3-3.7c-0.1-1-0.4-2.1-1.1-3.3h0.4l0.4,0.2
		c0.4,0,0.9,0.3,1.6,1c0.7,0.7,1.1,1.1,1.2,1.4l3.4-5.6c1.1,0.7,2.1,1.5,3.1,2.5c1,1,1.6,2,1.7,3.1c0.7-0.5,1.4-0.7,2.2-0.4
		c1.7,0.3,2.3,1.3,1.6,3.2l2.2-0.6c-0.3,0.5-0.3,1.3-0.2,2.3c0.1,1,0.6,1.6,1.4,1.7h0.8h0.4c0-0.4,0.2-1.3,0.6-2.7
		c0.4-1.4,0.7-2.3,0.8-2.7v-0.8v-0.4c-0.3-0.4-0.5-0.7-0.8-1l-1-1v-0.8c0-0.1,0.1-0.3,0.2-0.4c4.6,0.8,8.5,2.8,11.8,6.1
		c3.3,3.3,6.1,7.1,8.1,11.5c2.1,4.4,3.5,9,4.4,13.8c0.9,4.8,1.1,9.2,0.7,13.2c0.8,0.1,1.4,0.6,1.9,1.5c0.5,0.9,0.8,1.9,1.1,3
		c0.3,1.1,0.5,2.3,0.6,3.5c0.1,1.2,0.3,2.1,0.4,2.8c0,0.3,0.2,1.5,0.5,3.8c0.3,2.3,0.8,5.1,1.3,8.4c0.5,3.3,1.1,7,1.8,10.8
		c0.7,3.9,1.3,7.5,1.8,10.8c0.5,3.3,1,6.2,1.4,8.6c0.4,2.4,0.7,3.7,0.8,4l0.8,0.8c-1.1,1.2-1.7,2.1-2,2.8c-0.3,0.7-0.5,1.7-0.6,3.2
		l-0.2,1.2c0,0.1,0.1,0.5,0.4,1c0.1,0.3,0.3,0.6,0.6,1c0,0.3,0,1,0.1,2.1s0.1,2.4,0.2,3.7s0.1,2.6,0.2,3.7c0.1,1.1,0.2,1.8,0.3,2.1
		c0,0.4,0.1,0.7,0.2,1c0,0.5,0.1,0.9,0.4,1.2l0.6,1v0.2c-0.1,1.3-0.3,2.4-0.6,3.2c-0.3,0.8-0.5,1.7-0.6,2.8l2.2,0.4
		c-0.9,8.8-3.5,16.4-7.8,22.8c-4.3,6.4-9.8,11.9-16.7,16.6c-0.9,0.3-2.3,0.7-4.1,1.3c-1.8,0.6-3.1,0.8-3.9,0.7l-0.8-0.8
		c0.3,0.1,0.8,0,1.5-0.3c0.7-0.3,1.2-0.6,1.5-0.7c0-0.3-0.1-0.6-0.3-1.1s-0.3-0.8-0.3-0.9c-1.5-0.3-2.9-0.3-4.3-0.2
		c-1.4,0.1-2.8,0.3-4.1,0.6s-2.7,0.5-4.1,0.6c-1.4,0.1-2.9,0.1-4.5-0.2c-5.6-0.9-10.9-3-15.8-6.2s-9.5-7.1-14-11.7
		c-4.4-4.6-8.6-9.7-12.5-15.3c-3.9-5.6-7.8-11.1-11.5-16.8c-3.7-5.6-7.4-11-11-16.3c-3.6-5.2-7.2-9.8-10.8-13.8
		c-0.1,0.4-0.3,1.2-0.4,2.4c-0.1,1.2-0.3,2.5-0.5,3.9c-0.2,1.4-0.4,2.7-0.5,3.9c-0.1,1.2-0.2,2.1-0.2,2.6s0,1.7,0,3.5
		c0,1.8,0,3.9,0.1,6.4c0.1,2.5,0.1,5,0.2,7.6c0.1,2.6,0.1,5.1,0.2,7.4c0.1,2.3,0.1,4.3,0.2,5.8c0.1,1.5,0.1,2.4,0.1,2.5
		c0,1.7,0,4.8,0,9c0,4.3,0,8.9,0,13.7c0,4.9,0,9.5,0.1,13.8c0.1,4.3,0.2,7.4,0.3,9.1c0,0.1,0,0.2-0.1,0.3c-0.1,0.1-0.1,0.2-0.1,0.5
		v0.6c-0.3,1.5-1,2.8-2.3,3.9c-1.3,1.1-2.4,2.2-3.3,3.3c-1.5-0.4-2.4-1.5-2.8-3.4c-1.3,1.2-2.9,1.9-4.6,2c-1.7,0.1-3.5,0.6-5.2,1.4
		V255h-0.2c-0.3,0-0.5-0.1-0.6-0.2c-0.3,0-0.7-0.3-1.3-0.8c-0.6-0.5-1-0.8-1.3-0.8c-0.7-0.1-1.6-0.1-2.9,0.2
		c-1.3,0.3-2.2,0.5-2.9,0.8l1,0.2c0-0.3-0.1-1.1-0.2-2.6c-0.1-1.5-0.7-2.3-1.8-2.6H31.7z M23.1,66.9c0-0.3-0.2-0.4-0.5-0.5
		c-0.3-0.1-0.4,0.1-0.1,0.5c0,0.3,0.1,0.4,0.3,0.4S23.1,67.2,23.1,66.9z M23.5,244.4c-0.3,0-0.4,0.2-0.5,0.7s0,0.7,0.3,0.7
		c0.4,0.1,0.6,0,0.7-0.5C24,244.8,23.9,244.5,23.5,244.4z M28.9,246.8c-0.3-0.1-0.4,0-0.4,0.5s0.1,0.8,0.4,0.9
		C29.7,247.8,29.7,247.3,28.9,246.8z M45.6,244c-0.4,0-0.6,0.3-0.7,0.9s0.1,0.9,0.5,0.9c0.7,0.1,1-0.1,1.1-0.7S46.2,244.1,45.6,244z
		 M46.6,247c-0.7-0.1-1,0.1-1.1,0.7c-0.1,0.6,0.2,1,0.9,1.1c0.4,0.1,0.6-0.1,0.7-0.7S47,247.1,46.6,247z M49.6,245.5v-0.8l-1.2-0.2
		L49.6,245.5z M66.2,104.5c-0.7-0.1-1,0.1-1.1,0.8c-0.1,0.7,0.2,1.1,0.9,1.2c0.4,0,0.6-0.3,0.7-1C66.8,104.8,66.6,104.5,66.2,104.5z
		 M66.8,105.7c-0.4,0-0.6,0.3-0.7,1c-0.1,0.7,0.1,1,0.5,1c0.7,0.1,1-0.1,1.1-0.8C67.8,106.2,67.5,105.8,66.8,105.7z M69.4,109.5
		c-0.1,0-0.2,0.2-0.3,0.7c-0.1,0.5,0,0.7,0.1,0.7C69.9,110.6,70,110.2,69.4,109.5z M71.2,111.3c-0.4-0.1-0.6,0.1-0.7,0.8
		c-0.1,0.7,0.1,1.1,0.5,1.2c0.7,0.1,1-0.1,1.1-0.8C72.2,111.8,71.9,111.4,71.2,111.3z M72.3,114.1v0.4c0,0.4,0.2,0.6,0.6,0.6
		l0.2-0.4v-0.4c0-0.1-0.1-0.3-0.4-0.6c-0.1-0.1-0.3-0.2-0.4-0.2l-0.4,0.2L72.3,114.1z M74.7,117.3l0.2-0.8l-1.2-0.2L74.7,117.3z
		 M75.5,117.5c-0.4-0.1-0.6,0.1-0.7,0.7c-0.1,0.6,0.1,1,0.5,1.1c0.5,0.1,0.8-0.1,0.9-0.7C76.2,118,76,117.7,75.5,117.5z M76.5,118.7
		c-0.5-0.1-0.8,0.1-0.9,0.7c-0.1,0.6,0.2,1,0.7,1.1c0.5,0,0.8-0.3,0.9-0.9C77.2,119,77,118.7,76.5,118.7z M77.1,121.5l0.6,0.2
		l-0.4-1.2L77.1,121.5z M78.7,121.9c-0.5-0.1-0.8,0.1-0.9,0.8c-0.1,0.7,0.2,1.1,0.7,1.2c0.4,0,0.6-0.3,0.7-1
		C79.2,122.3,79.1,121.9,78.7,121.9z M79.5,122.7c-0.4,0-0.6,0.3-0.7,1c-0.1,0.7,0.1,1,0.5,1c0.7,0.1,1-0.1,1.1-0.8
		C80.4,123.3,80.1,122.9,79.5,122.7z M129.1,193.2c-0.5-0.1-0.8,0.1-0.9,0.6c-0.1,0.5,0.2,0.9,0.7,1c0.4,0,0.6-0.3,0.7-0.8
		S129.5,193.2,129.1,193.2z M130.7,67.1c-0.5-0.1-0.8,0.1-0.9,0.6c-0.1,0.5,0.2,0.9,0.7,1c0.4,0,0.6-0.3,0.7-0.8
		C131.2,67.4,131.1,67.1,130.7,67.1z M131.9,73.6c-0.5-0.1-0.8,0.1-0.9,0.8s0.2,1.1,0.7,1.2s0.8-0.1,0.9-0.8S132.4,73.7,131.9,73.6z
		 M132.3,68.9c-0.5-0.1-0.8,0.1-0.9,0.8c-0.1,0.7,0.2,1.1,0.7,1.2s0.8-0.1,0.9-0.8S132.8,69.1,132.3,68.9z M133.9,63.5
		c-0.5-0.1-0.8,0.1-0.9,0.8c-0.1,0.7,0.2,1.1,0.7,1.2c0.5,0.1,0.8-0.1,0.9-0.8C134.6,64.1,134.4,63.7,133.9,63.5z M146.1,75.2
		c-0.7-0.1-1,0.1-1.1,0.6s0.2,0.9,0.9,1c0.4,0.1,0.6-0.1,0.7-0.6S146.5,75.3,146.1,75.2z M146.9,76c-0.4-0.1-0.6,0.1-0.7,0.8
		c-0.1,0.7,0.1,1.1,0.5,1.2c0.5,0.1,0.8-0.1,0.9-0.8S147.5,76.1,146.9,76z M149.9,65.3c-0.5-0.1-0.8,0.1-0.9,0.6s0.2,0.9,0.7,1
		c0.4,0,0.6-0.3,0.7-0.8S150.3,65.3,149.9,65.3z M150.5,66.9c-0.4,0-0.6,0.3-0.7,1s0.1,1,0.5,1c0.5,0.1,0.8-0.1,0.9-0.8
		S151.1,67.1,150.5,66.9z M158,108.3c-0.4-0.1-0.6,0.1-0.7,0.8c-0.1,0.7,0.1,1.1,0.5,1.2c0.7,0.1,1-0.1,1.1-0.8
		S158.6,108.4,158,108.3z M168.8,104.5c-0.5,0-0.8,0.3-0.9,1s0.2,1,0.7,1c0.4,0.1,0.6-0.1,0.7-0.8
		C169.4,105,169.2,104.6,168.8,104.5z M171,158.7c-0.5-0.1-0.8,0-0.8,0.5c0,0.5,0.3,0.8,0.8,0.9c0.3,0.1,0.4,0,0.4-0.5
		C171.4,159.1,171.3,158.8,171,158.7z M171.8,112.5c-0.4,0-0.6,0.3-0.7,1c-0.1,0.7,0.1,1,0.5,1c0.7,0.1,1-0.1,1.1-0.8
		C172.8,113,172.5,112.6,171.8,112.5z M171.4,116.5l1.2,0.2l-1.2-1.4V116.5z M172.2,120.3l0.8-0.8l-0.6-1L172.2,120.3z M179.2,160
		l1.2,0.2c0-0.1-0.2-1.2-0.5-3.1s-0.7-4.3-1.2-7.2c-0.5-2.9-1-6-1.7-9.2c-0.7-3.3-1.3-6.3-1.8-9.1s-1-5.2-1.5-7
		c-0.5-1.9-0.8-2.9-0.9-3L179.2,160z M180.5,161.7c-0.4-0.1-0.7,0.2-0.8,1.1c-0.1,0.9,0.1,1.2,0.6,0.9c0.1-0.1,0.2-0.4,0.2-0.9
		C180.5,162.3,180.5,162,180.5,161.7z M180.7,166.5c-0.4,0-0.6,0.3-0.7,1s0.1,1,0.5,1c0.4,0.1,0.6-0.1,0.7-0.8
		C181.2,167,181.1,166.6,180.7,166.5z M180.9,165.1c-0.4,0-0.6,0.2-0.7,0.7c-0.1,0.5,0.1,0.7,0.5,0.7c0.4,0.1,0.6,0,0.7-0.5
		C181.4,165.5,181.3,165.2,180.9,165.1z M183.3,190.2c-0.4-0.1-0.6,0.1-0.7,0.8c-0.1,0.7,0.1,1.1,0.5,1.2c0.3,0.1,0.4-0.1,0.5-0.8
		C183.6,190.7,183.5,190.3,183.3,190.2z"/>
	<path id="XMLID_393_" class="st1" d="M219,228.3c-0.7-1.6-1.5-3.3-2.4-5c-0.9-1.7-2.3-2.9-4-3.6c-2.9-4.6-5.4-8.9-7.3-13.2
		s-3.3-8.4-4.1-12.7s-1.1-8.5-0.8-13c0.3-4.4,1.1-9,2.6-13.9c0.9-3.3,1.8-6.8,2.5-10.2c0.7-3.5,2-6.8,3.7-9.8c2.7-4,5.9-7.7,9.7-11
		c3.8-3.3,8-6.2,12.5-8.6c4.6-2.4,9.3-4.3,14.2-5.6c4.9-1.3,9.7-2,14.6-2c0.3,0,0.8,0.1,1.6,0.3c0.8,0.2,1.6,0.4,2.5,0.7
		s1.7,0.5,2.4,0.7c0.7,0.2,1.2,0.3,1.5,0.3c0.9,0.3,1.5,0.5,1.8,0.8c0.3,0.3,0.5,0.6,0.6,1c0.1,0.4,0.3,0.8,0.5,1.1
		c0.2,0.3,0.8,0.6,1.7,0.9c0.3,0,1,0.1,2.3,0.4s2,0.4,2.3,0.4c0.7,0.1,1.6,0.4,2.9,0.9c1.3,0.5,2.6,1,4,1.7c1.4,0.7,2.7,1.4,3.8,2.1
		c1.1,0.7,1.9,1.4,2.3,1.9c0.3,0.3,0.5,0.8,0.6,1.6s0.3,1.2,0.4,1.2l0.6,0.2l0.4-0.2c0.3,0,0.5-0.2,0.6-0.6c0.1-0.4,0.2-0.7,0.2-0.8
		c1.7,0.4,3,0.7,3.9,1s1.6,0.6,2.3,1.1c0.7,0.5,0.8,0.9,0.4,1.3l6,5.8c-0.3,0-0.4,0.1-0.4,0.4s0.1,0.4,0.4,0.4
		c0.1,0.3,0.9,0.7,2.2,1.2c1.3,0.5,2.1,0.8,2.2,0.8c0.9,2.7,2,5.3,3.1,7.9c1.1,2.6,1.7,5.5,1.7,8.5c0,1.9-0.4,3.7-1.1,5.4
		c-0.7,1.7-1.3,3.5-1.7,5.4c-0.1,0.3-0.3,1-0.5,2.3s-0.4,2.1-0.5,2.5c-0.3,0-0.5,0.1-0.6,0.2l-0.4,0.4c-0.1,0.3-0.7,0.8-1.8,1.5
		c-1.1,0.7-1.7,1.2-2,1.3c-0.1,0.3-0.5,0.7-1,1.2s-1.1,1.1-1.8,1.8c-0.7,0.7-1.3,1.3-1.8,1.9s-0.8,1-0.8,1.1c-2.9,2-6.2,3.5-9.8,4.4
		c-3.6,0.9-7.4,1.6-11.2,2c-3.9,0.4-7.8,0.6-11.6,0.6s-7.6,0.1-11,0.2c-0.7,0-1.4,0-2.3,0.1c-0.9,0.1-1.8,0.2-2.7,0.3
		c-1.1,0.1-2.2,0.3-3.4,0.4v2c0.7,1.1,1.3,2.1,1.8,3c0.5,0.8,1.1,1.6,1.6,2.5c0.5,0.9,1,1.6,1.4,2.1c2.7,3.9,5.9,7.3,9.5,10.3
		c3.7,3,7.4,5.8,11.1,8.3c0.4,0.4,1.3,0.9,2.6,1.4c1.3,0.5,2.7,1.1,4.1,1.7c1.4,0.6,2.7,1.1,3.8,1.6c1.1,0.5,1.8,0.8,2.1,1.1h3.8
		c1.6,0,3.3-0.4,5.2-1.2c1.9-0.8,3.8-1.6,5.7-2.5c1.9-0.9,3.7-1.6,5.4-2.3c1.7-0.7,3-0.8,4.1-0.4c0.1,0,0.3,0.3,0.6,0.8
		c0.3,0.5,0.4,0.9,0.4,1.2c0.3-0.3,0.8-0.7,1.7-1.2s1.5-0.8,1.9-0.8c0.3,0,0.7,0.2,1.4,0.7c0.7,0.5,1.1,0.9,1.2,1.3l-2.6,2.6
		c0.3,0,0.5,0.1,0.6,0.4s0.3,0.4,0.6,0.4v0.8v0.2c-0.4,0.3-1.1,0.8-2.1,1.5c-1,0.7-1.6,1.2-1.9,1.3l-0.4,0.4l-0.4,0.4
		c0.1,0.3,0.3,0.5,0.4,0.6c0,0.1,0,0.2,0.1,0.2s0.1,0.1,0.1,0.2c0,0.1,0.1,0.2,0.2,0.2c0,0.3-0.1,0.6-0.4,1c-0.3,0.4-0.4,0.7-0.4,1
		c0.3-0.4,1-0.8,2.3-1.3c1.3-0.5,2.1-0.7,2.5-0.7c0.3,0,0.6,0.1,1,0.2c0.3,0.1,0.6,0.2,0.9,0.3c0.3,0.1,0.6,0.2,0.9,0.3
		c0.1,0.3,0.4,0.5,0.9,0.6c0.5,0.1,0.8,0.3,1.1,0.6v0.4v0.4l-6,5.4h1.2l7.4-4.8h0.8c-0.4,0.4-1,1.2-1.9,2.3
		c-0.9,1.1-1.3,2.2-1.3,3.3c-2.7,1.5-4.8,2.7-6.4,3.6c-1.6,0.9-3.1,1.8-4.4,2.7c-1.3,0.9-2,1.4-2,1.5c0.5-0.3,1.1-0.3,1.8-0.1
		c0.7,0.2,1.1,0.4,1.2,0.7c-1.1,0.5-2.6,1.2-4.5,1.9c-1.9,0.7-3.9,1.5-6,2.2c-2.1,0.7-4,1.4-5.8,1.9s-3.1,0.8-3.9,0.8
		c-2.4,0-4.7-0.1-6.8-0.4c-2.1-0.3-4.3-0.4-6.4-0.4h-0.6c-0.1,0-0.4,0.1-0.9,0.4c-0.5,0.3-0.8,0.4-1.1,0.4h1.2
		c-1.1-0.8-2.3-1.4-3.8-1.8c-1.5-0.4-3-0.7-4.7-1c-1.7-0.3-3.3-0.6-5-0.9c-1.7-0.3-3.2-0.7-4.5-1.1c-0.8-0.1-1.8-0.4-3.1-0.8
		c-1.3-0.4-2.6-0.8-3.9-1.2c-1.3-0.4-2.5-0.7-3.4-1c-0.9-0.3-1.5-0.4-1.6-0.4c-4.3-1.9-8.4-4.3-12.2-7.3c-3.9-3-7.4-6.3-10.4-9.9
		c-0.5-0.5-1.2-1.4-2.1-2.7c-0.9-1.3-1.8-2.2-2.7-2.7H219z M248.9,166.6c1.7,0,3.4,0.2,5.1,0.6c1.7,0.4,3.2,0.6,4.7,0.6
		c2.1,0,4-0.1,5.7-0.2c1.7-0.1,3.8-0.3,6.5-0.6c1.1-0.7,1.8-1.9,2.2-3.8c0.4-1.9,0.6-3.3,0.6-4.4c0-1.5-0.4-2.9-1.1-4.2
		c-0.7-1.3-1.9-2-3.5-2c-1.1,0-2.7,0.5-5,1.4c-2.3,0.9-4.6,2.1-6.8,3.5c-2.3,1.4-4.3,2.9-5.9,4.6S248.9,165.3,248.9,166.6z
		 M250.9,158.5c2.1-1.9,4.3-3.7,6.5-5.4c2.2-1.7,4.7-2.8,7.5-3.2c0-0.7-0.3-1-0.9-0.9c-0.6,0.1-1,0.1-1.3,0.1h-1.4
		c-1.1,0.3-2.3,0.7-3.6,1.4c-1.3,0.7-2,1.1-2,1.4v2L250.9,158.5z M287.8,133c-0.4,0-0.6,0.3-0.6,1c0,0.7,0.2,1,0.6,1
		c0.3,0,0.4-0.3,0.4-1C288.2,133.3,288.1,133,287.8,133z M289.9,133c-0.7,0-1,0.3-1,1c0,0.7,0.3,1,1,1c0.3,0,0.4-0.3,0.4-1
		C290.3,133.3,290.1,133,289.9,133z M293.3,135.8c-0.4,0-0.6,0.3-0.6,1c0,0.7,0.2,1,0.6,1c0.5,0,0.8-0.3,0.8-1
		C294.1,136.1,293.8,135.8,293.3,135.8z M297.1,137.8c-0.1,0-0.2,0.2-0.2,0.5s0.1,0.5,0.2,0.5c0.3-0.1,0.4-0.3,0.4-0.6
		S297.3,137.8,297.1,137.8z M303.9,184c0-0.3-0.2-0.4-0.7-0.4c-0.5,0-0.7,0.1-0.7,0.4C302.9,184.5,303.4,184.5,303.9,184z
		 M310.3,176.5c-0.5,0-0.8,0.3-0.8,1c0,0.7,0.3,1,0.8,1s0.8-0.3,0.8-1C311.1,176.9,310.9,176.5,310.3,176.5z M310.3,235.8
		c-0.5,0-0.8,0.3-0.8,1c0,0.7,0.3,1,0.8,1s0.8-0.3,0.8-1C311.1,236.1,310.9,235.8,310.3,235.8z"/>
	<path id="XMLID_366_" class="st2" d="M330.3,131c0.3-4.6,2-8,5.2-10.3s7-3.5,11.2-3.5c6.2,0,10.9,1,14.4,3c3.4,2,6,4.7,7.8,8
		c1.8,3.3,3.1,7.3,3.9,11.7c0.8,4.5,1.8,9.2,3,14.1c0.4,1.3,0.8,3.3,1.1,6c0.3,2.7,0.7,5.7,1,9c0.3,3.3,0.7,6.9,1,10.5
		c0.3,3.7,0.7,7.2,1,10.6c0.3,3.4,0.7,6.5,1,9.1s0.8,4.8,1.3,6.2h0.6c0.5,0,1.2-0.4,1.9-1.1c0.7-0.7,1.5-1.6,2.2-2.6s1.4-1.9,2-2.8
		c0.6-0.9,1.1-1.5,1.5-1.9c0.1-0.8,0.5-2.1,1-3.8c0.5-1.7,1.1-3.6,1.7-5.6c0.6-2,1.2-3.9,1.8-5.6c0.6-1.7,1-2.9,1.3-3.6
		c0-0.4,0.3-1.4,1-2.9c0.7-1.5,1.1-2.5,1.4-2.9c0-0.3-0.2-0.9-0.5-2c-0.3-1.1-0.5-1.7-0.5-2l0.4-0.4c0.3-0.3,0.5-0.4,0.8-0.4
		c0.7-2.3,1.3-5.7,1.8-10.2s1.3-9.1,2.3-13.6c1-4.6,2.4-8.5,4.3-11.9c1.9-3.4,4.6-5.1,8-5.1c0.8,0,1.4,0.4,1.7,1.3
		c0.3,0.9,0.9,1.3,1.7,1.3c0.7,0,1.3-0.4,1.8-1.3c0.5-0.9,1.1-1.3,1.8-1.3l0.6,0.6l0.6,0.8c0.3,0.3,0.8,0.7,1.6,1.2
		c0.4,0.3,0.7,0.5,1,0.8h5.8c1.7,0.1,3.2,0.8,4.5,1.9c1.3,1.1,2.4,2.5,3.4,4c1,1.5,1.9,3.1,2.6,4.7s1.4,2.9,1.9,4
		c0.3,1.5,0.8,4.1,1.7,7.8c0.9,3.7,1.8,7.7,2.7,11.7c0.9,4.1,1.8,8,2.6,11.6c0.8,3.7,1.3,6.3,1.6,7.7c0.4,1.7,1.3,4.8,2.8,9.2
		c1.5,4.4,3.3,8.9,5.4,13.6s4.4,8.7,6.8,12.2c2.4,3.5,4.8,5.3,7,5.3c2.7,0,4.9-0.6,6.6-1.7c1.7-1.1,3.3-2.5,4.7-4.1s2.7-3.3,3.9-5.2
		c1.2-1.9,2.5-3.5,4-5c0.3,0.1,0.5,0.2,0.8,0.2c0.5,0,0.8-0.1,0.8-0.2c0.1,0,0.2-0.4,0.1-1.3c-0.1-0.9-0.1-1.8-0.2-2.8
		c-0.1-1-0.2-2.4-0.3-4.3c0.1-0.7,0.4-1.6,0.8-2.9c0.4-1.3,0.8-2.5,1.1-3.8s0.7-2.5,1-3.6s0.5-1.9,0.5-2.3c0-0.3,0.1-1.1,0.4-2.5
		c0.3-1.4,0.6-2.9,0.9-4.6c0.3-1.7,0.7-3.3,1-4.9s0.6-2.8,0.7-3.6c0.1-1.2,0.1-2.1,0-2.6s0.2-1.3,1-2.2h-1.2c0.4-0.4,0.6-0.7,0.6-1
		c0.1-0.4,0.3-0.7,0.4-1c0.3-0.5,0.4-0.9,0.4-1l0.2-0.6v-0.2c0-0.3-0.1-0.6-0.4-1c-0.3-0.4-0.4-0.7-0.4-1v-0.4
		c0.1-0.5,0.4-0.9,0.6-1.1c0.3-0.2,0.4-0.6,0.4-1.3c0.1-1.1,0-1.9-0.3-2.5c-0.3-0.6-0.9-1.3-1.6-2.1l0.8-13.4
		c-0.4-0.5-0.6-1.3-0.7-2.2c-0.1-0.9,0-1.9,0.2-2.9c0.2-1,0.4-1.9,0.6-2.6c0.2-0.7,0.3-1.2,0.3-1.5h-1.4c-0.3,0-0.5-0.9-0.7-2.6
		c-0.2-1.7-0.2-3.1-0.1-4.2c0-0.7,0-1.9,0.1-3.8c0.1-1.9,0.1-3.1,0.1-3.8c1.7,0,2.9,0.2,3.5,0.7c0.6,0.5,1,1.6,1.3,3.5
		c0.4-0.8,0.7-1.4,1-1.9c0.3-0.5,0.4-1.2,0.4-2.1c0-0.4,0-0.8,0-1.1c0-0.3-0.3-0.6-1-0.7h2c1.1,0,1.6,0.1,1.6,0.2
		c0,0.1,0.3,0.6,1,1.6c0.3,0.5,0.6,1.2,1,2s0.7,1.5,1,2.2c0.4,0.8,0.8,1.7,1.2,2.6h1.8c0-0.8,0.1-1.4,0.3-1.8s0.4-0.7,0.7-0.9
		s0.6-0.4,1-0.7s0.9-0.7,1.4-1.4c-0.7-0.1-1-0.8-1-2v-0.8c1.1,0.9,2.5,2.3,4.2,4.1s3.3,2.7,4.6,2.7c0.7,0,1.3-0.1,1.8-0.4
		c0.5-0.3,1.1-0.5,1.8-0.8c-0.3,0.7-0.3,1.2-0.1,1.6s0.5,0.8,0.9,1.1c0.4,0.3,0.8,0.6,1.2,0.9s0.7,0.6,1,1c0,0.4,0.1,1,0.3,1.7
		c0.2,0.7,0.4,1.6,0.5,2.5c0.1,0.9,0.3,1.8,0.4,2.6c0.1,0.8,0.2,1.4,0.2,1.8c-0.1,0.7-0.3,1.4-0.4,2.2c-0.1,0.8-0.3,1.2-0.6,1.2h-2
		c0,0.4,0,1.1,0,2.2s0,2.1,0.1,3.2c0.1,1.1,0.1,2.1,0.2,3.2c0.1,1.1,0.1,1.8,0.1,2.2c0.1,0.1,0.3,0.4,0.4,0.9
		c0.1,0.5,0.3,0.8,0.4,0.9c0-0.8,0-1.6,0.1-2.5c0.1-0.9,0.4-1.6,0.9-2.1c0.5,1.9,1.1,4.1,1.6,6.8c0.5,2.7,0.7,5.1,0.4,7.2l-0.8,0.8
		v2c0,0.1,0,0.6-0.1,1.5c-0.1,0.9,0.2,1.3,0.7,1.3c0.3,0,0.7-0.1,1.2-0.4l0.8-0.4c-0.1,0.9-0.2,1.7-0.2,2.2c0,1.5,0.4,2.3,1.2,2.4
		H536l-1.4,21.5l2,0.8l-2,1.2c-0.1,0.3-0.2,0.5-0.2,0.8v1.2c0,0.1,0,0.8-0.1,1.9c-0.1,1.1,0.3,1.7,1.1,1.7l-2,1.2l-1.2,21.1h2
		c-1.5,3.1-2.9,6.1-4.3,9.2c-1.4,3-3,5.9-4.9,8.8c-1.9,2.8-4,5.4-6.5,7.8c-2.5,2.3-5.5,4.3-8.9,5.9c-2.3,1.3-4.6,2.1-7,2.2
		c-2.4,0.1-4.9,0.7-7.4,1.8h-7.2c-11.2,0-21.4-2.2-30.5-6.5c-9.1-4.3-16.7-11.3-22.9-20.8c-0.7-1.1-1.4-2.4-2.1-4.1
		s-1.5-3.4-2.4-5.1c-0.9-1.7-1.8-3.4-2.7-5c-0.9-1.6-1.9-2.8-2.8-3.6c-1.1,1.9-1.7,3.6-1.9,5.2s-0.8,3.3-1.7,5.2
		c-2.8,7.2-6.5,13.7-11,19.3c-4.6,5.6-10.3,10.6-17.3,14.9c-2.1,1-4.6,1.6-7.4,1.7c-2.8,0.1-5.4,0.6-7.6,1.6c-1.6-2-3.4-3.5-5.4-4.4
		c-2-0.9-4.1-1.8-6.2-2.7c-2.1-0.9-4.3-1.9-6.4-3.2s-4.1-3.2-5.8-5.7c-2.5-3.5-4.5-7.5-5.8-12.1c-1.3-4.6-2.6-9.1-3.8-13.3
		c-0.9-2.7-1.9-6.3-2.9-10.7c-1-4.5-2-9.5-3.1-15s-2.1-11.2-3.1-17.2c-1-6-1.9-11.7-2.6-17.2s-1.3-10.6-1.6-15.3
		C330.2,137.7,330.1,133.9,330.3,131z M381.2,255.9l1,0l-0.8-1.4L381.2,255.9z M507.1,135.4c-0.4,0-0.6,0.3-0.7,1
		c-0.1,0.7,0.1,1,0.5,1c0.4,0,0.6-0.3,0.7-1C507.6,135.7,507.5,135.4,507.1,135.4z M513.1,125.4c-0.3-0.3-0.4-0.2-0.5,0.1
		c-0.1,0.3,0,0.5,0.3,0.5c0.4,0,0.6-0.1,0.7-0.3C513.6,125.5,513.5,125.4,513.1,125.4z M515.1,124c-0.5,0-0.8,0.3-0.9,1
		c-0.1,0.7,0.2,1,0.7,1c0.5,0,0.8-0.3,0.9-1S515.6,124,515.1,124z M515.7,160.1c-0.5,0-0.8,0.3-0.8,0.8s0.3,0.8,0.8,0.8
		c0.5,0,0.8-0.3,0.8-0.8S516.2,160.1,515.7,160.1z M514.9,127.4c0.7,0.1,1,0.6,1,1.4h0.8l1.2-3.4
		C516.6,125.7,515.6,126.3,514.9,127.4z M515.9,158.1c-0.5,0-0.8,0.3-0.9,1c-0.1,0.7,0.2,1,0.7,1c0.5,0,0.8-0.3,0.9-1
		C516.7,158.4,516.4,158.1,515.9,158.1z M516.1,171.5c-0.5,0-0.8,0.2-0.8,0.7s0.3,0.7,0.8,0.7c0.4,0,0.6-0.2,0.6-0.7
		S516.5,171.5,516.1,171.5z M518.2,121.4c-0.3-0.3-0.4,0.1-0.5,1c-0.1,0.9,0,1.3,0.3,1C519,122.6,519.1,121.9,518.2,121.4z
		 M523.5,128c0,0.5,0.2,1,0.7,1.4c0.5,0.4,0.9,0.8,1.4,1.2c0.5,0.4,0.8,0.8,1.1,1.1s0.2,0.6-0.2,0.9c0.4,0,0.8-0.1,1.3-0.2
		c0.5-0.1,0.8-0.3,0.9-0.6c0.1-0.3-0.1-0.9-0.7-2s-1.3-2.2-2.1-3.5c-0.8-1.3-1.6-2.4-2.4-3.5c-0.8-1.1-1.3-1.8-1.6-2.2
		c-0.9,1.1-1.7,2.7-2.4,4.8c-0.7,2.1-1.1,3.8-1.2,5C519.9,130.4,521.6,129.6,523.5,128z M521.3,130.8c-0.4,0-0.6,0.3-0.7,0.9
		c-0.1,0.6,0.1,0.9,0.5,0.9s0.6-0.3,0.7-0.9S521.7,130.8,521.3,130.8z M522.7,174.1c-0.7,0-1,0.3-1,1c0,0.7,0.3,1,1,1
		c0.4,0,0.6-0.3,0.6-1C523.3,174.5,523.1,174.1,522.7,174.1z M522.5,177.7c-0.3-0.1-0.4,0-0.5,0.5s-0.1,1.1-0.2,1.8
		c-0.1,0.7-0.1,1.4,0,1.9s0.2,0.7,0.5,0.6c0.1-0.4,0.2-1.2,0.3-2.4C522.7,179,522.6,178.1,522.5,177.7z M522.9,171.5
		c-0.7,0-1,0.2-1,0.7s0.3,0.7,1,0.7c0.4,0,0.6-0.2,0.6-0.7S523.3,171.5,522.9,171.5z M522.7,155.5c-0.3-0.3-0.4-0.2-0.4,0.3
		s0.1,0.6,0.4,0.3c0.3,0,0.4-0.1,0.4-0.3S523,155.5,522.7,155.5z M526.3,162.9c-0.7,0-1,0.3-1.1,1c-0.1,0.7,0.2,1,0.9,1
		c0.3,0,0.4-0.3,0.5-1C526.7,163.2,526.6,162.9,526.3,162.9z M528.3,160.9c-0.7,0-1,0.3-1,1c0,0.7,0.3,1,1,1c0.3,0,0.4-0.3,0.4-1
		C528.7,161.2,528.6,160.9,528.3,160.9z M529.1,123.9c0,0.3-0.1,0.5-0.3,0.7c-0.2,0.2-0.3,0.4-0.3,0.7l-0.2,0.2v0.4L529.1,123.9z
		 M530.3,128.8c-0.7,0-1,0.3-1.1,1c-0.1,0.7,0.2,1,0.9,1c0.3,0,0.4-0.3,0.5-1C530.7,129.1,530.6,128.8,530.3,128.8z M530.1,153.5
		c-0.4,0-0.6,0.3-0.6,1c0,0.7,0.2,1,0.6,1c0.5,0,0.8-0.3,0.8-1C530.9,153.8,530.7,153.5,530.1,153.5z M531.7,128
		c0.1-0.3,0-0.4-0.3-0.4c-0.3,0-0.5,0.1-0.5,0.4c0,0.3,0.1,0.4,0.4,0.4C531.6,128.4,531.7,128.2,531.7,128z M531.7,128.8
		c-0.4,0-0.6,0.3-0.7,1c-0.1,0.7,0.1,1,0.5,1c0.5,0,0.8-0.3,0.9-1C532.5,129.1,532.3,128.8,531.7,128.8z M532.5,130.8
		c-0.4,0-0.6,0.2-0.6,0.5c0,0.3,0.2,0.5,0.6,0.5c0.3-0.1,0.4-0.3,0.4-0.6S532.8,130.8,532.5,130.8z M533.4,151.4
		c-0.5,0-0.8,0.3-0.9,1c-0.1,0.7,0.2,1,0.7,1c0.4,0,0.6-0.3,0.7-1S533.8,151.4,533.4,151.4z M535.2,167.7c-0.5,0-0.8,0.3-0.8,0.9
		c0,0.6,0.3,0.9,0.8,0.9c0.4,0,0.6-0.3,0.6-0.9C535.8,168,535.6,167.7,535.2,167.7z"/>
	<path id="XMLID_350_" class="st3" d="M707.1,256.4h-1.2v-2.6c-1.5,0.7-2.6,1.2-3.5,1.5c-0.9,0.3-2,0.5-3.5,0.5
		c-2.3,0-4.5-0.5-6.6-1.6c-2.1-1.1-4-2.5-5.6-4.2c-1.6-1.7-3-3.7-4-5.8c-1.1-2.1-1.7-4.3-2-6.4c-0.1-0.1-0.2-1.2-0.3-3.2
		c-0.1-2-0.1-4.2-0.1-6.6c0-2.4,0-4.6,0-6.6c0-2,0.1-3.1,0.2-3.2v-10c0-7.8-0.4-15.6-1.3-23.4c-0.9-7.8-2-15.6-3.3-23.2
		c-0.3-0.8-0.6-1.9-0.9-3.4c-0.3-1.5-0.7-3-1.1-4.6c-0.4-1.6-0.7-3.2-0.9-4.7s-0.2-2.8,0.1-3.9c-1.5-8.4-2.7-16.5-3.8-24.2
		s-2-15.7-2.8-24c0-0.3-0.1-0.7-0.3-1.4c-0.2-0.7-0.3-1.1-0.3-1.4c-0.3,0-0.6-0.1-0.9-0.4c-0.3-0.3-0.5-0.5-0.5-0.8l1.4-1.6v-1.4V88
		l-1.4-1.8c0-0.1,0.2-0.5,0.5-1.1c0.3-0.6,0.6-0.9,0.9-0.9c0.9-2.9,1.5-5.5,1.8-7.7c0.3-2.2,0.8-4,1.6-5.3s2.2-2.3,4.1-3s5-1,9.1-1
		c3.3,0,6.5,0.7,9.3,2c2.9,1.3,6.1,2.3,9.5,3c0.4,0,1.5,0.1,3.2,0.4c1.7,0.3,2.9,0.4,3.4,0.4c6.2,0.7,11.9,1.8,17.2,3.5
		c5.3,1.7,10.8,3.4,16.6,5.3l-1.6,0.8c0.4,0.8,1,1.4,1.7,1.7c0.7,0.3,1.5,0.5,2.4,0.5c0.9,0,1.8,0,2.7,0c0.9,0,1.8,0.1,2.6,0.4
		c4.8,1.5,9.8,3.8,14.9,7c5.1,3.2,9.7,7,14,11.2c4.2,4.3,7.7,9,10.3,14.2c2.7,5.2,4,10.4,4,15.8v5.6c-1.2,2.1-2.2,4.4-3,6.7
		c-0.8,2.3-2.1,4.5-3.8,6.5c-2.9,3.9-6.2,7.3-9.6,10.1c-3.5,2.9-7.2,5.4-11,7.6s-7.9,4.1-12.1,5.7c-4.2,1.6-8.5,3.1-13,4.6
		c-1.6,0.5-3.2,0.9-4.9,1c-1.7,0.1-3.4,0.2-5.1,0.3s-3.4,0.2-5,0.4c-1.6,0.2-3.2,0.6-4.8,1.1v2.8c0,4.7,0.2,9.3,0.5,13.8
		c0.3,4.6,0.5,9.1,0.5,13.7c0,0.4,0,2,0.1,4.8s0.1,5.9,0.2,9.2c0.1,3.3,0.1,6.5,0.2,9.3c0.1,2.9,0.1,4.5,0.1,4.9
		c0,0.1-0.1,0.5-0.3,1.1c-0.2,0.6-0.4,1.2-0.6,1.9c-0.2,0.7-0.4,1.3-0.5,2c-0.1,0.7-0.2,1.1-0.2,1.2c-0.3,1.2-0.8,2.2-1.6,3.1
		c-0.8,0.9-1.6,1.7-2.4,2.5c-0.8,0.8-1.6,1.6-2.4,2.5c-0.8,0.9-1.3,1.9-1.6,3.1c-0.9-0.3-1.6-0.7-2-1.2c-0.4-0.5-0.7-1.1-0.9-1.7
		c-0.2-0.6-0.4-1.2-0.7-1.9c-0.3-0.7-0.7-1.3-1.4-2V256.4z M706,241.8c-0.5,0-0.8,0.2-0.8,0.7c0,0.5,0.3,0.7,0.8,0.7
		c0.4,0,0.6-0.2,0.6-0.7C706.6,242,706.4,241.8,706,241.8z M707,75c-0.5,0-0.8,0.3-0.8,1c0,0.7,0.3,1,0.8,1c0.5,0,0.8-0.3,0.8-1
		C707.8,75.3,707.5,75,707,75z M708,75.8c-0.5,0-0.8,0.3-0.8,1s0.3,1,0.8,1c0.3,0,0.4-0.3,0.4-1S708.3,75.8,708,75.8z M708.5,105.1
		c0,0.5,0.1,2,0.4,4.3c0.3,2.3,0.6,5.2,0.9,8.4c0.3,3.3,0.8,6.8,1.3,10.4c0.5,3.7,1.1,7.1,1.7,10.2c0.6,3.1,1.2,5.8,1.7,7.8
		c0.5,2.1,1.1,3.1,1.6,3.1h1.2c0.4-0.3,1.2-0.5,2.3-0.6c1.1-0.1,2-0.3,2.5-0.6c0.5,0,1.5-0.2,2.9-0.7c1.4-0.5,2.9-0.9,4.6-1.4
		c1.6-0.5,3.1-1,4.6-1.5c1.4-0.5,2.4-0.9,2.9-1.2c1.2-0.9,2.8-2.1,4.9-3.4s3.9-2.8,5.8-4.4c1.8-1.6,3.4-3.3,4.8-5.1
		c1.3-1.8,2-3.6,2-5.3c0-0.7-0.2-1.4-0.5-2.3c-0.3-0.9-0.9-1.4-1.5-1.7c0.1,0,0.3-0.1,0.5-0.4s0.3-0.5,0.3-0.6
		c0-1.9-1.2-3.8-3.7-5.8c-2.5-2-5.3-3.9-8.5-5.6c-3.2-1.7-6.3-3.2-9.3-4.4s-5.1-1.9-6.2-2.2c-2.3-0.4-4.4-0.6-6.4-0.7
		c-2-0.1-4.2-0.1-6.6-0.1h-2.6l-1.4,0.8V105.1z M710.6,75.8c-0.3,0-0.4,0.3-0.4,1c0,0.7,0.1,1,0.4,1c0.4,0,0.6-0.3,0.6-1
		C711.2,76.1,711,75.8,710.6,75.8z M717.4,77c-0.7,0-1,0.3-1,0.8s0.3,0.8,1,0.8c0.4,0,0.6-0.3,0.6-0.8S717.8,77,717.4,77z
		 M724.7,78.6c-0.3,0-0.4,0.3-0.4,1s0.1,1,0.4,1c0.5,0,0.8-0.3,0.8-1S725.2,78.6,724.7,78.6z M729.5,79.9c-0.4,0-0.6,0.3-0.6,1
		s0.2,1,0.6,1c0.7,0,1-0.3,1-1S730.1,79.9,729.5,79.9z M738.3,178.3c-0.7,0-1,0.3-1,1c0,0.7,0.3,1,1,1c0.4,0,0.6-0.3,0.6-1
		C738.9,178.7,738.7,178.3,738.3,178.3z M748.3,87h1.2l-1.2-0.8V87z M750.4,89.8c-0.4,0-0.6,0.3-0.6,1s0.2,1,0.6,1s0.6-0.3,0.6-1
		S750.8,89.8,750.4,89.8z M751.2,91c-0.4,0-0.6,0.3-0.6,0.8s0.2,0.8,0.6,0.8c0.7,0,1-0.3,1-0.8S751.8,91,751.2,91z M754.5,91h0.8
		v-1.2h-0.8V91z M757.2,91.8c-0.7,0-1,0.3-1,1s0.3,1,1,1c0.3,0,0.4-0.3,0.4-1S757.4,91.8,757.2,91.8z"/>
	<path id="XMLID_344_" class="st4" d="M830.6,95.5c-1.3-0.4-3.2-1.1-5.6-2s-4.8-2-7.1-3.3c-2.3-1.3-4.4-2.7-6.1-4.3s-2.6-3.3-2.6-5
		v-0.6c0-0.5,0.1-1,0.2-1.4c0.3-0.8,0.4-1.3,0.4-1.4s-0.1-0.3-0.4-0.6l-0.2-0.2c1.1-1.6,2.4-3,4.1-4.1s3.5-2.1,5.5-2.9
		s4-1.4,6.1-1.8c2.1-0.4,4-0.6,5.7-0.6c0.1,0,0.8,0.1,1.9,0.3c1.1,0.2,1.8,0.3,1.9,0.3c0.1,0.1,0.7,0.3,1.7,0.5
		c1,0.2,2.1,0.4,3.2,0.6c1.1,0.2,2.2,0.4,3.3,0.6s1.7,0.3,2,0.3c1.3,0.5,2.7,1.5,4,2.8c0.4,0.7,1.3,1.8,2.7,3.4
		c1.4,1.6,2.2,2.7,2.5,3.4v0.8c0,0.9-0.2,1.6-0.6,2v6.4c-0.3,0.3-0.7,0.7-1.4,1.3c-0.7,0.6-1.3,1.3-2,2c-0.7,0.7-1.3,1.4-2,2.1
		s-1.1,1.1-1.2,1.4H830.6z M830,254.4c-0.3,0-0.6,0.2-1,0.5c-0.4,0.3-0.7,0.6-1,0.9c-0.1-0.1-0.5-0.5-1-1.1
		c-0.5-0.6-1.1-1.2-1.8-1.9c-0.7-0.7-1.3-1.4-1.8-2.1c-0.5-0.7-0.9-1.3-1-1.7l-0.6-31.9c-1.2-1.7-1.8-3-1.9-3.9s-0.4-2.4-0.9-4.5
		c-0.5-4.4-1-9.2-1.3-14.3c-0.3-5.1-0.7-10.1-1.2-15.2c-0.5-5-1.1-9.9-1.9-14.7c-0.8-4.8-1.9-8.9-3.4-12.5v-14.9
		c-1.3-1.3-1.3-2.8,0.2-4.3c1.5-1.5,3.7-2.9,6.6-4.2c2.9-1.3,6.3-2.3,10.1-3c3.8-0.7,7.3-1,10.6-0.9c3.3,0.1,6,0.9,8.1,2.2
		c2.1,1.3,3,3.4,2.6,6.2c3.3,9,6,18.1,7.9,27.3s3.3,18.6,4.1,28c0.8,9.4,1.2,18.9,1.2,28.4s-0.2,19-0.6,28.5v1.8
		c0,0.5-0.1,1.6-0.4,3.2c-0.3,1.6-0.4,2.7-0.4,3.4c-0.4,0-1.1,0.1-2.1,0.3c-1,0.2-1.6,0.3-1.9,0.3h-0.8c-1.1,0-1.9-0.2-2.5-0.7
		c-0.6-0.5-1.3-0.7-2.1-0.7v0.8c0,0.3,0.1,0.9,0.3,1.8c0.2,0.9,0.3,1.5,0.3,1.6c0,0.3-0.1,0.7-0.4,1.2c-0.1,0.3-0.2,0.5-0.2,0.8
		c-0.4-1.1-0.9-1.9-1.6-2.4c-0.7-0.5-1.1-1.3-1.4-2.4c-0.7,0.4-1.1,0.9-1.4,1.5c-0.3,0.6-0.6,1.1-0.9,1.6c-0.3,0.5-0.7,0.9-1.2,1.2
		c-0.5,0.3-1.2,0.5-2.1,0.5c-0.4,0-1,0-1.8,0c-0.8,0-1.6,0-2.4-0.1c-0.8-0.1-1.5-0.1-2.2-0.2c-0.7-0.1-1-0.2-1-0.5v-2.6
		c0-0.3-0.7-0.6-2.1-0.9C832.3,254.6,831.1,254.4,830,254.4z M833.1,249c-0.5,0-0.8,0.3-0.8,1c0,0.7,0.3,1,0.8,1
		c0.4,0,0.6-0.3,0.6-1C833.7,249.3,833.5,249,833.1,249z M833.1,251.8c-0.5,0-0.8,0.3-0.8,1c0,0.7,0.3,1,0.8,1c0.4,0,0.6-0.3,0.6-1
		C833.7,252.2,833.5,251.8,833.1,251.8z M838.5,254.4c-0.3,0-0.4,0.2-0.4,0.7c0,0.5,0.1,0.7,0.4,0.7
		C838.9,255.4,838.9,255,838.5,254.4z"/>
	<path id="XMLID_317_" class="st4" d="M893.8,258.1c-0.5-0.8-1.4-1.2-2.5-1.1c-1.1,0.1-2.2,0.2-3.2,0.4c-1,0.2-1.8,0.2-2.4,0.1
		c-0.6-0.1-0.7-0.7-0.3-1.8l-5.8-6.2c0.3-1.5,0.2-2.9-0.2-4.3c-0.4-1.4-0.5-2.8-0.4-4.3c0-1.6,0.1-3.7,0.3-6.2
		c0.2-2.5,0.4-5.2,0.7-8c0.3-2.8,0.5-5.5,0.8-8.1c0.3-2.6,0.4-4.7,0.4-6.3c0-0.7,0-1.7,0.1-3c0.1-1.3,0.1-2.1,0.1-2.4l-4.6-69.7
		l0.4-14.9c1.1-0.3,2-0.9,2.7-1.8c0.7-0.9,1.6-1.7,2.5-2.4c0.5-0.4,1.4-0.8,2.7-1.1s2.6-0.6,4-0.9c1.4-0.3,2.7-0.4,3.9-0.4
		c1.2,0,2.1,0.1,2.8,0.2c0.9,0,2.1,0.2,3.5,0.5c1.4,0.3,2.8,0.7,4.2,1.2c1.4,0.5,2.7,1,4,1.6s2.2,1.2,2.9,1.9
		c0.7,0.9,1.2,1.7,1.5,2.3c0.3,0.6,0.6,1.2,0.9,1.7s0.4,0.9,0.4,1c0.1,0.1,0.3,0.3,0.5,0.6s0.4,0.4,0.5,0.4c0.4,1.6,0.6,3.5,0.6,5.8
		s0,4.4-0.1,6.4c-0.1,2-0.1,3.7-0.2,5.2c-0.1,1.5,0.1,2.2,0.5,2.2c0.3,0,0.5-0.1,0.8-0.2c0.3-0.1,0.5-0.2,0.6-0.2s0.3-0.1,0.6-0.2
		c1.2-0.9,2.3-1.7,3.4-2.3c1.1-0.6,2-1.2,2.9-1.8s1.6-1.3,2.2-2.2s1-2.1,1.3-3.7h2v-0.8l2.2-2.2c0.7-0.7,1.3-1.2,2-1.7
		c0.7-0.5,1.2-0.8,1.6-1.1c1.2-1.1,3-2.1,5.5-3.2c2.5-1.1,5.1-2,7.9-2.8c2.8-0.8,5.6-1.4,8.2-1.9c2.7-0.5,4.8-0.6,6.4-0.5
		c0.1,0,0.4,0,0.8,0.1c0.4,0.1,0.8,0.1,1.2,0.1c0.5,0.1,1,0.2,1.4,0.2c0.4,0,1.3,0.3,2.8,0.8c1.5,0.5,3,1.1,4.7,1.8
		c1.7,0.7,3.2,1.3,4.7,1.9c1.5,0.6,2.4,0.9,2.8,0.9c0.4,0.1,1.5,0.3,3.2,0.5c1.7,0.2,2.8,0.4,3.2,0.7c2.5,1.1,5.1,2.9,7.6,5.4
		c2.5,2.5,4.8,4.8,6.8,6.8c1.5,0.9,2.6,1.9,3.3,3s0.7,2.5-0.1,4.4l2-0.6c-0.4,0.7-0.4,1.6,0.1,2.9c0.5,1.3,1,2.6,1.7,4.1
		c0.7,1.5,1.3,2.9,2,4.3c0.7,1.4,1.1,2.6,1.4,3.5c0,0.3,0,0.7,0,1.3s0.1,1.2,0.2,1.9c0.1,0.7,0.2,1.3,0.3,1.9c0.1,0.6,0.1,1,0.1,1.1
		c0.1,0,0.3,0.1,0.5,0.4c0.2,0.3,0.4,0.4,0.5,0.4c-0.3,1.1-0.3,3.4,0,6.9s0.7,7.4,1.3,11.4s1.3,7.9,2.1,11.3
		c0.8,3.5,1.5,5.7,2.2,6.6l-1.2,27.7c0.5,0.7,0.8,1.3,0.9,1.9c0.1,0.6,0.1,1.2,0.1,1.7c0,1.3-0.3,2.2-0.9,2.7
		c-0.6,0.5-1,1.6-1.3,3.3c-0.3,1.9-0.5,3.6-0.6,5.2c-0.1,1.6-0.4,3.1-0.8,4.5s-1,2.7-1.9,4c-0.9,1.3-2.1,2.6-3.7,3.9
		c-0.7,0.4-1.1,0.7-1.2,1c-0.1,0.3-0.3,0.5-0.5,0.6c-0.2,0.1-0.4,0.2-0.7,0.2s-0.8,0-1.6,0c-1.9-0.1-2.8-1.5-2.8-4
		c0-0.9,0.2-1.8,0.5-2.7c0.3-0.9,0.5-1.7,0.5-2.5c-0.3-0.1-0.5-0.3-0.6-0.4c-0.3-0.1-0.4-0.3-0.5-0.4c-0.1-0.1-0.2-0.2-0.3-0.2
		c-0.4,0.4-0.8,1-1.1,1.8c-0.3,0.8-0.6,1.6-0.9,2.5s-0.5,1.7-0.7,2.4c-0.2,0.7-0.3,1.3-0.3,1.7c0,0.4,0.3,0.7,0.8,1
		c-0.3,0.3-0.6,0.5-1,0.7c-0.4,0.2-0.7,0.3-0.8,0.3h-1v-0.6c-0.1,0-0.3-0.1-0.4-0.2c-0.1,0-0.2,0-0.2-0.1c0-0.1-0.1-0.1-0.2-0.1
		c-0.1,0-0.2-0.1-0.2-0.2c-0.3,0.3-0.9,0.6-1.8,0.9c-0.9,0.3-1.5,0.6-1.8,0.9c0.4-1.1,0.7-2,0.8-2.7c0.1-0.7,0.2-1.6,0.2-2.7
		c0-0.7-0.1-1.2-0.4-1.5c-0.3-0.3-0.9-0.6-2-0.7h-0.4c-0.3,0-0.6,0.3-1.1,0.8c-0.5,0.5-0.8,0.9-1.1,1.2c-0.1-0.1-0.5-0.8-1.1-2
		c-0.6-1.2-1.3-2.5-2-3.9c-0.7-1.4-1.5-2.7-2.2-3.8c-0.7-1.1-1.3-1.8-1.7-2.1l2.8-2.4c-0.4-0.1-0.9-0.4-1.5-0.7
		c-0.6-0.3-1-0.6-1.3-0.9c-0.3-3.3-0.3-7.3-0.1-11.9c0.2-4.6,0.4-9.6,0.5-14.9c0.1-5.3,0.2-10.7,0.1-16.2s-0.5-10.7-1.2-15.6
		c-0.7-4.9-1.9-9.3-3.6-13.4c-1.7-4-3.9-7.2-6.7-9.6c-7.1-0.4-13.5,1.4-19.3,5.3s-10.9,9.2-15.5,15.9s-8.4,14.2-11.5,22.8
		c-3.1,8.6-5.7,17.3-7.5,26.3c-0.7,1.3-1.3,3.4-1.8,6.3c-0.5,2.9-1.1,5.8-1.8,8.8s-1.5,5.8-2.4,8.2c-0.9,2.5-2.2,3.9-3.8,4.3
		L893.8,258.1z M920.4,144.8c-0.4,0-0.6,0.3-0.6,1c0,0.7,0.2,1,0.6,1c0.7,0.1,1-0.1,1-0.8C921.4,145.4,921,145,920.4,144.8z
		 M933.2,133.4c-0.3-0.3-0.8,0-1.5,0.8c-0.7,0.8-1,1.2-0.7,1.2c0.3,0,0.7-0.2,1.2-0.7C932.8,134.2,933.1,133.8,933.2,133.4z
		 M937.4,151.9c-0.7-0.1-1,0.1-1,0.8c0,0.7,0.3,1.1,1,1.2c0.4,0,0.6-0.3,0.6-1C938,152.2,937.8,151.9,937.4,151.9z M939.3,149
		c0.1-0.3,0.5-0.4,1.1-0.5c0.6-0.1,0.9-0.2,0.9-0.5v-0.2v-0.6L939.3,149z M944.9,149.2c-0.5,0-0.8,0.3-0.8,0.8s0.3,0.8,0.8,0.8
		c0.4,0.1,0.6-0.1,0.6-0.6S945.3,149.4,944.9,149.2z M945.3,128.6c0-0.4-0.2-0.6-0.5-0.6c-0.3,0-0.5,0.2-0.5,0.6
		C944.7,129,945,129,945.3,128.6z M954.3,153.5c-0.7,0-1,0.3-1,1c0,0.7,0.3,1,1,1c0.4,0,0.6-0.3,0.6-1
		C954.9,153.8,954.7,153.5,954.3,153.5z M957.1,160.1c-1.1-0.1-2.1,0.5-3,1.8c0.4-0.1,1-0.3,1.9-0.5c0.9-0.2,1.6-0.6,2.1-1.3H957.1z
		 M965.3,156.1c-1.1-0.1-2.1,0.3-3.2,1.2c-1.1,0.9-1.9,1.7-2.4,2.2h1c1.1,0.1,2.1-0.1,3-0.8c0.9-0.7,1.8-1.2,2.6-1.6
		c-0.1,0-0.2-0.1-0.2-0.2c0-0.1,0-0.2-0.1-0.2c-0.1,0-0.1-0.1-0.1-0.2l-0.4-0.4H965.3z M968.4,156.1c-0.4,0-0.6,0.3-0.6,1
		c0,0.7,0.2,1,0.6,1c0.4,0.1,0.6-0.1,0.6-0.8C969,156.6,968.8,156.2,968.4,156.1z M971.2,156.3c-0.3-0.3-0.6-0.2-0.9,0.2
		c-0.3,0.4-0.3,0.7,0.1,0.8c0.1,0,0.4-0.1,0.7-0.2C971.4,156.9,971.4,156.7,971.2,156.3z M973.8,154.5c0.3-0.3,0.2-0.4-0.3-0.5
		s-0.6,0.1-0.3,0.5c0,0.4,0.1,0.6,0.3,0.6S973.8,154.9,973.8,154.5z M985.2,248.2c-0.4-0.1-0.6,0.1-0.6,0.8c0,0.7,0.2,1.1,0.6,1.2
		c0.7,0,1-0.3,1-1C986.2,248.5,985.9,248.2,985.2,248.2z M1003.3,250c-0.7,0-1,0.3-1,0.9s0.3,0.9,1,0.9c0.3,0,0.4-0.3,0.4-0.9
		S1003.6,250,1003.3,250z M1003.7,142.8c-0.7,0-1,0.3-1,0.9s0.3,0.9,1,0.9c0.3,0,0.4-0.3,0.4-0.9S1004,142.8,1003.7,142.8z
		 M1005.4,247.4c-0.3-0.7-0.6-0.7-1-0.2s-0.5,0.8-0.4,0.8C1005,248.3,1005.4,248.1,1005.4,247.4z M1005.5,248.2
		c-0.7-0.1-1,0.1-1.1,0.8c-0.1,0.7,0.2,1.1,0.9,1.2c0.3,0,0.4-0.3,0.5-1C1005.9,248.5,1005.8,248.2,1005.5,248.2z M1006,151.2h1.4
		l-1.4-0.8V151.2z M1007.9,156.1c-0.3,0-0.4,0.4-0.4,1.1s0.1,1,0.4,0.9c0.3-0.3,0.4-0.6,0.4-1.1
		C1008.3,156.5,1008.2,156.2,1007.9,156.1z M1008.6,159.1c-0.3-0.1-0.4,0-0.4,0.4c0,0.4,0.1,0.6,0.4,0.6
		C1009.6,159.7,1009.6,159.3,1008.6,159.1z M1010.7,162.7c-0.4,0-0.6,0.3-0.7,1c-0.1,0.7,0.1,1,0.5,1c0.7,0,1-0.3,1.1-1
		C1011.7,163,1011.4,162.7,1010.7,162.7z M1011.7,259c0-0.4-0.2-0.6-0.6-0.6s-0.6,0.2-0.6,0.6c0,0.1,0.1,0.2,0.4,0.2
		S1011.4,259.2,1011.7,259z M1012.3,174.3c-0.4,0-0.6,0.3-0.6,1c0,0.7,0.2,1,0.6,1c0.4,0.1,0.6-0.1,0.6-0.8
		C1012.9,174.9,1012.7,174.5,1012.3,174.3z M1012.5,170.3c-0.4,0-0.6,0.3-0.7,1c-0.1,0.7,0.1,1,0.5,1c0.4,0.1,0.6-0.1,0.7-0.8
		C1013.1,170.9,1012.9,170.5,1012.5,170.3z"/>
</g>
</svg>
